<ttFont>
    <TTGlyph name="A" xMin="-100" yMin="-49" xMax="2205" yMax="1491">
      <contour>
        <pt x="1956" y="5" on="1"/>
        <pt x="1960" y="-2" on="0"/>
        <pt x="1960" y="-12" on="1"/>
        <pt x="1960" y="-27" on="0"/>
        <pt x="1939" y="-49" on="0"/>
        <pt x="1922" y="-49" on="1"/>
        <pt x="1911" y="-49" on="0"/>
        <pt x="1894" y="-39" on="0"/>
        <pt x="1889" y="-29" on="1"/>
        <pt x="1870" y="8" on="0"/>
        <pt x="1841" y="119" on="0"/>
        <pt x="1820" y="255" on="0"/>
        <pt x="1807" y="412" on="0"/>
        <pt x="1803" y="496" on="1"/>
        <pt x="1728" y="486" on="0"/>
        <pt x="1541" y="462" on="0"/>
        <pt x="1421" y="446" on="1"/>
        <pt x="1337" y="434" on="0"/>
        <pt x="1250" y="425" on="1"/>
        <pt x="1036" y="192" on="0"/>
        <pt x="563" y="-49" on="0"/>
        <pt x="325" y="-49" on="1"/>
        <pt x="219" y="-49" on="0"/>
        <pt x="64" y="-8" on="0"/>
        <pt x="-37" y="43" on="0"/>
        <pt x="-88" y="87" on="0"/>
        <pt x="-90" y="89" on="1"/>
        <pt x="-100" y="99" on="0"/>
        <pt x="-100" y="115" on="1"/>
        <pt x="-100" y="131" on="0"/>
        <pt x="-78" y="153" on="0"/>
        <pt x="-63" y="153" on="1"/>
        <pt x="-46" y="153" on="0"/>
        <pt x="-35" y="141" on="1"/>
        <pt x="-33" y="139" on="0"/>
        <pt x="11" y="102" on="0"/>
        <pt x="98" y="60" on="0"/>
        <pt x="232" y="26" on="0"/>
        <pt x="324" y="26" on="1"/>
        <pt x="450" y="26" on="0"/>
        <pt x="680" y="94" on="0"/>
        <pt x="885" y="203" on="0"/>
        <pt x="1062" y="343" on="0"/>
        <pt x="1134" y="415" on="1"/>
        <pt x="1063" y="409" on="0"/>
        <pt x="923" y="403" on="0"/>
        <pt x="855" y="403" on="1"/>
        <pt x="721" y="403" on="0"/>
        <pt x="479" y="433" on="0"/>
        <pt x="295" y="504" on="0"/>
        <pt x="186" y="622" on="0"/>
        <pt x="186" y="710" on="1"/>
        <pt x="186" y="750" on="0"/>
        <pt x="219" y="830" on="0"/>
        <pt x="265" y="895" on="0"/>
        <pt x="315" y="936" on="0"/>
        <pt x="333" y="936" on="1"/>
        <pt x="347" y="936" on="0"/>
        <pt x="371" y="916" on="0"/>
        <pt x="371" y="899" on="1"/>
        <pt x="371" y="890" on="0"/>
        <pt x="363" y="873" on="0"/>
        <pt x="355" y="868" on="1"/>
        <pt x="353" y="866" on="0"/>
        <pt x="323" y="842" on="0"/>
        <pt x="289" y="801" on="0"/>
        <pt x="261" y="744" on="0"/>
        <pt x="261" y="711" on="1"/>
        <pt x="261" y="654" on="0"/>
        <pt x="340" y="567" on="0"/>
        <pt x="491" y="508" on="0"/>
        <pt x="711" y="478" on="0"/>
        <pt x="852" y="478" on="1"/>
        <pt x="933" y="478" on="0"/>
        <pt x="1113" y="488" on="0"/>
        <pt x="1213" y="498" on="1"/>
        <pt x="1261" y="551" on="0"/>
        <pt x="1335" y="645" on="0"/>
        <pt x="1361" y="682" on="1"/>
        <pt x="1404" y="743" on="0"/>
        <pt x="1498" y="881" on="0"/>
        <pt x="1591" y="1023" on="0"/>
        <pt x="1680" y="1162" on="0"/>
        <pt x="1758" y="1285" on="0"/>
        <pt x="1820" y="1386" on="0"/>
        <pt x="1840" y="1419" on="1"/>
        <pt x="1846" y="1446" on="0"/>
        <pt x="1870" y="1491" on="0"/>
        <pt x="1897" y="1491" on="1"/>
        <pt x="1912" y="1491" on="0"/>
        <pt x="1940" y="1466" on="0"/>
        <pt x="1940" y="1447" on="1"/>
        <pt x="1940" y="1433" on="0"/>
        <pt x="1920" y="1401" on="0"/>
        <pt x="1911" y="1390" on="1"/>
        <pt x="1908" y="1371" on="0"/>
        <pt x="1895" y="1247" on="0"/>
        <pt x="1882" y="1068" on="0"/>
        <pt x="1873" y="853" on="0"/>
        <pt x="1873" y="743" on="1"/>
        <pt x="1873" y="702" on="0"/>
        <pt x="1873" y="622" on="0"/>
        <pt x="1875" y="581" on="1"/>
        <pt x="2025" y="600" on="0"/>
        <pt x="2163" y="615" on="0"/>
        <pt x="2167" y="615" on="1"/>
        <pt x="2180" y="615" on="0"/>
        <pt x="2205" y="594" on="0"/>
        <pt x="2205" y="577" on="1"/>
        <pt x="2205" y="563" on="0"/>
        <pt x="2186" y="542" on="0"/>
        <pt x="2171" y="540" on="1"/>
        <pt x="2153" y="538" on="0"/>
        <pt x="2105" y="532" on="0"/>
        <pt x="2035" y="524" on="0"/>
        <pt x="1941" y="513" on="0"/>
        <pt x="1878" y="505" on="1"/>
        <pt x="1881" y="423" on="0"/>
        <pt x="1894" y="272" on="0"/>
        <pt x="1913" y="142" on="0"/>
        <pt x="1939" y="38" on="0"/>
      </contour>
      <contour>
        <pt x="1411" y="521" on="1"/>
        <pt x="1529" y="537" on="0"/>
        <pt x="1722" y="562" on="0"/>
        <pt x="1800" y="572" on="1"/>
        <pt x="1799" y="615" on="0"/>
        <pt x="1798" y="701" on="0"/>
        <pt x="1798" y="745" on="1"/>
        <pt x="1798" y="886" on="0"/>
        <pt x="1808" y="1143" on="0"/>
        <pt x="1817" y="1238" on="1"/>
        <pt x="1777" y="1175" on="0"/>
        <pt x="1680" y="1022" on="0"/>
        <pt x="1576" y="863" on="0"/>
        <pt x="1470" y="707" on="0"/>
        <pt x="1422" y="639" on="1"/>
        <pt x="1398" y="605" on="0"/>
        <pt x="1348" y="541" on="0"/>
        <pt x="1323" y="510" on="1"/>
        <pt x="1345" y="512" on="0"/>
        <pt x="1388" y="518" on="0"/>
      </contour>
    </TTGlyph>
    <TTGlyph name="AE" xMin="-100" yMin="-54" xMax="3388" yMax="1491">
      <contour>
        <pt x="1956" y="5" on="1"/>
        <pt x="1960" y="-2" on="0"/>
        <pt x="1960" y="-12" on="1"/>
        <pt x="1960" y="-27" on="0"/>
        <pt x="1939" y="-49" on="0"/>
        <pt x="1922" y="-49" on="1"/>
        <pt x="1911" y="-49" on="0"/>
        <pt x="1894" y="-39" on="0"/>
        <pt x="1889" y="-29" on="1"/>
        <pt x="1870" y="8" on="0"/>
        <pt x="1841" y="119" on="0"/>
        <pt x="1820" y="255" on="0"/>
        <pt x="1807" y="412" on="0"/>
        <pt x="1803" y="495" on="1"/>
        <pt x="1728" y="486" on="0"/>
        <pt x="1541" y="462" on="0"/>
        <pt x="1421" y="446" on="1"/>
        <pt x="1337" y="434" on="0"/>
        <pt x="1250" y="425" on="1"/>
        <pt x="1036" y="192" on="0"/>
        <pt x="563" y="-49" on="0"/>
        <pt x="325" y="-49" on="1"/>
        <pt x="219" y="-49" on="0"/>
        <pt x="64" y="-8" on="0"/>
        <pt x="-37" y="43" on="0"/>
        <pt x="-88" y="87" on="0"/>
        <pt x="-90" y="89" on="1"/>
        <pt x="-100" y="99" on="0"/>
        <pt x="-100" y="115" on="1"/>
        <pt x="-100" y="131" on="0"/>
        <pt x="-78" y="153" on="0"/>
        <pt x="-63" y="153" on="1"/>
        <pt x="-46" y="153" on="0"/>
        <pt x="-35" y="141" on="1"/>
        <pt x="-33" y="139" on="0"/>
        <pt x="11" y="102" on="0"/>
        <pt x="98" y="60" on="0"/>
        <pt x="232" y="26" on="0"/>
        <pt x="324" y="26" on="1"/>
        <pt x="450" y="26" on="0"/>
        <pt x="680" y="94" on="0"/>
        <pt x="885" y="203" on="0"/>
        <pt x="1062" y="343" on="0"/>
        <pt x="1134" y="415" on="1"/>
        <pt x="1063" y="409" on="0"/>
        <pt x="923" y="403" on="0"/>
        <pt x="855" y="403" on="1"/>
        <pt x="721" y="403" on="0"/>
        <pt x="479" y="433" on="0"/>
        <pt x="295" y="504" on="0"/>
        <pt x="186" y="622" on="0"/>
        <pt x="186" y="710" on="1"/>
        <pt x="186" y="750" on="0"/>
        <pt x="219" y="830" on="0"/>
        <pt x="265" y="895" on="0"/>
        <pt x="315" y="936" on="0"/>
        <pt x="333" y="936" on="1"/>
        <pt x="347" y="936" on="0"/>
        <pt x="371" y="916" on="0"/>
        <pt x="371" y="899" on="1"/>
        <pt x="371" y="890" on="0"/>
        <pt x="363" y="873" on="0"/>
        <pt x="355" y="868" on="1"/>
        <pt x="353" y="866" on="0"/>
        <pt x="323" y="842" on="0"/>
        <pt x="289" y="801" on="0"/>
        <pt x="261" y="744" on="0"/>
        <pt x="261" y="711" on="1"/>
        <pt x="261" y="654" on="0"/>
        <pt x="340" y="567" on="0"/>
        <pt x="491" y="508" on="0"/>
        <pt x="711" y="478" on="0"/>
        <pt x="852" y="478" on="1"/>
        <pt x="933" y="478" on="0"/>
        <pt x="1113" y="488" on="0"/>
        <pt x="1213" y="498" on="1"/>
        <pt x="1261" y="551" on="0"/>
        <pt x="1335" y="645" on="0"/>
        <pt x="1361" y="682" on="1"/>
        <pt x="1404" y="743" on="0"/>
        <pt x="1498" y="881" on="0"/>
        <pt x="1591" y="1023" on="0"/>
        <pt x="1680" y="1162" on="0"/>
        <pt x="1758" y="1285" on="0"/>
        <pt x="1820" y="1386" on="0"/>
        <pt x="1840" y="1419" on="1"/>
        <pt x="1846" y="1446" on="0"/>
        <pt x="1870" y="1491" on="0"/>
        <pt x="1897" y="1491" on="1"/>
        <pt x="1912" y="1491" on="0"/>
        <pt x="1940" y="1466" on="0"/>
        <pt x="1940" y="1447" on="1"/>
        <pt x="1940" y="1433" on="0"/>
        <pt x="1920" y="1401" on="0"/>
        <pt x="1911" y="1390" on="1"/>
        <pt x="1908" y="1371" on="0"/>
        <pt x="1895" y="1247" on="0"/>
        <pt x="1882" y="1068" on="0"/>
        <pt x="1873" y="853" on="0"/>
        <pt x="1873" y="743" on="1"/>
        <pt x="1873" y="643" on="1"/>
        <pt x="1954" y="768" on="0"/>
        <pt x="2133" y="834" on="1"/>
        <pt x="2076" y="887" on="0"/>
        <pt x="2020" y="1015" on="0"/>
        <pt x="2020" y="1084" on="1"/>
        <pt x="2020" y="1170" on="0"/>
        <pt x="2099" y="1316" on="0"/>
        <pt x="2239" y="1422" on="0"/>
        <pt x="2432" y="1481" on="0"/>
        <pt x="2547" y="1481" on="1"/>
        <pt x="2663" y="1481" on="0"/>
        <pt x="2836" y="1437" on="0"/>
        <pt x="2959" y="1371" on="0"/>
        <pt x="3038" y="1293" on="0"/>
        <pt x="3084" y="1225" on="0"/>
        <pt x="3102" y="1178" on="0"/>
        <pt x="3103" y="1175" on="1"/>
        <pt x="3104" y="1171" on="0"/>
        <pt x="3104" y="1164" on="1"/>
        <pt x="3104" y="1150" on="0"/>
        <pt x="3083" y="1127" on="0"/>
        <pt x="3066" y="1127" on="1"/>
        <pt x="3054" y="1127" on="0"/>
        <pt x="3035" y="1142" on="0"/>
        <pt x="3031" y="1155" on="1"/>
        <pt x="3031" y="1157" on="0"/>
        <pt x="3015" y="1196" on="0"/>
        <pt x="2975" y="1252" on="0"/>
        <pt x="2906" y="1315" on="0"/>
        <pt x="2798" y="1370" on="0"/>
        <pt x="2648" y="1406" on="0"/>
        <pt x="2547" y="1406" on="1"/>
        <pt x="2431" y="1406" on="0"/>
        <pt x="2260" y="1348" on="0"/>
        <pt x="2149" y="1255" on="0"/>
        <pt x="2095" y="1141" on="0"/>
        <pt x="2095" y="1086" on="1"/>
        <pt x="2095" y="1021" on="0"/>
        <pt x="2159" y="903" on="0"/>
        <pt x="2219" y="861" on="1"/>
        <pt x="2273" y="875" on="0"/>
        <pt x="2377" y="891" on="0"/>
        <pt x="2469" y="900" on="0"/>
        <pt x="2544" y="903" on="0"/>
        <pt x="2568" y="903" on="1"/>
        <pt x="2612" y="903" on="0"/>
        <pt x="2686" y="890" on="0"/>
        <pt x="2739" y="865" on="0"/>
        <pt x="2769" y="826" on="0"/>
        <pt x="2769" y="801" on="1"/>
        <pt x="2769" y="776" on="0"/>
        <pt x="2739" y="736" on="0"/>
        <pt x="2686" y="708" on="0"/>
        <pt x="2612" y="693" on="0"/>
        <pt x="2568" y="693" on="1"/>
        <pt x="2520" y="693" on="0"/>
        <pt x="2422" y="705" on="0"/>
        <pt x="2329" y="727" on="0"/>
        <pt x="2243" y="760" on="0"/>
        <pt x="2208" y="781" on="1"/>
        <pt x="2049" y="733" on="0"/>
        <pt x="1885" y="552" on="0"/>
        <pt x="1885" y="419" on="1"/>
        <pt x="1885" y="347" on="0"/>
        <pt x="1936" y="232" on="0"/>
        <pt x="2026" y="144" on="0"/>
        <pt x="2147" y="81" on="0"/>
        <pt x="2285" y="41" on="0"/>
        <pt x="2435" y="22" on="0"/>
        <pt x="2509" y="22" on="1"/>
        <pt x="2557" y="22" on="0"/>
        <pt x="2647" y="29" on="0"/>
        <pt x="2689" y="36" on="1"/>
        <pt x="2815" y="56" on="0"/>
        <pt x="3006" y="133" on="0"/>
        <pt x="3145" y="224" on="0"/>
        <pt x="3237" y="319" on="0"/>
        <pt x="3292" y="398" on="0"/>
        <pt x="3315" y="448" on="0"/>
        <pt x="3315" y="449" on="1"/>
        <pt x="3319" y="461" on="0"/>
        <pt x="3338" y="474" on="0"/>
        <pt x="3350" y="474" on="1"/>
        <pt x="3366" y="474" on="0"/>
        <pt x="3388" y="452" on="0"/>
        <pt x="3388" y="437" on="1"/>
        <pt x="3388" y="433" on="0"/>
        <pt x="3386" y="425" on="1"/>
        <pt x="3385" y="421" on="0"/>
        <pt x="3359" y="361" on="0"/>
        <pt x="3298" y="273" on="0"/>
        <pt x="3198" y="167" on="0"/>
        <pt x="3046" y="66" on="0"/>
        <pt x="2838" y="-17" on="0"/>
        <pt x="2701" y="-39" on="1"/>
        <pt x="2609" y="-54" on="0"/>
        <pt x="2508" y="-54" on="1"/>
        <pt x="2423" y="-54" on="0"/>
        <pt x="2253" y="-30" on="0"/>
        <pt x="2097" y="20" on="0"/>
        <pt x="1962" y="97" on="0"/>
        <pt x="1913" y="150" on="1"/>
        <pt x="1921" y="104" on="0"/>
        <pt x="1942" y="31" on="0"/>
      </contour>
      <contour>
        <pt x="1411" y="521" on="1"/>
        <pt x="1529" y="537" on="0"/>
        <pt x="1722" y="562" on="0"/>
        <pt x="1800" y="572" on="1"/>
        <pt x="1799" y="616" on="0"/>
        <pt x="1798" y="701" on="0"/>
        <pt x="1798" y="745" on="1"/>
        <pt x="1798" y="886" on="0"/>
        <pt x="1808" y="1143" on="0"/>
        <pt x="1817" y="1238" on="1"/>
        <pt x="1777" y="1175" on="0"/>
        <pt x="1680" y="1022" on="0"/>
        <pt x="1576" y="863" on="0"/>
        <pt x="1470" y="707" on="0"/>
        <pt x="1422" y="639" on="1"/>
        <pt x="1398" y="605" on="0"/>
        <pt x="1348" y="541" on="0"/>
        <pt x="1323" y="510" on="1"/>
        <pt x="1345" y="512" on="0"/>
        <pt x="1388" y="518" on="0"/>
      </contour>
      <contour>
        <pt x="2693" y="800" on="1"/>
        <pt x="2693" y="808" on="0"/>
        <pt x="2667" y="820" on="0"/>
        <pt x="2626" y="827" on="0"/>
        <pt x="2574" y="830" on="0"/>
        <pt x="2547" y="830" on="1"/>
        <pt x="2488" y="830" on="0"/>
        <pt x="2382" y="823" on="0"/>
        <pt x="2314" y="810" on="1"/>
        <pt x="2366" y="791" on="0"/>
        <pt x="2501" y="768" on="0"/>
        <pt x="2570" y="768" on="1"/>
        <pt x="2633" y="768" on="0"/>
        <pt x="2693" y="788" on="0"/>
      </contour>
    </TTGlyph>
    <TTGlyph name="AEacute" xMin="-100" yMin="-54" xMax="3388" yMax="1786">
      <component glyphName="AE" x="0" y="0" flags="0x204"/>
      <component glyphName="acute" x="1968" y="984" flags="0x4"/>
    </TTGlyph>
    <TTGlyph name="Aacute" xMin="-100" yMin="-49" xMax="2205" yMax="1787">
      <component glyphName="A" x="0" y="0" flags="0x204"/>
      <component glyphName="acute" x="1697" y="985" flags="0x4"/>
    </TTGlyph>
    <TTGlyph name="Abreve" xMin="-100" yMin="-49" xMax="2205" yMax="1764">
      <component glyphName="A" x="0" y="0" flags="0x204"/>
      <component glyphName="breve" x="1653" y="985" flags="0x4"/>
    </TTGlyph>
    <TTGlyph name="Acircumflex" xMin="-100" yMin="-49" xMax="2205" yMax="1787">
      <component glyphName="A" x="0" y="0" flags="0x204"/>
      <component glyphName="circumflex" x="1653" y="985" flags="0x4"/>
    </TTGlyph>
    <TTGlyph name="Adieresis" xMin="-100" yMin="-49" xMax="2205" yMax="1711">
      <component glyphName="A" x="0" y="0" flags="0x204"/>
      <component glyphName="dieresis" x="1655" y="985" flags="0x4"/>
    </TTGlyph>
    <TTGlyph name="Agrave" xMin="-100" yMin="-49" xMax="2205" yMax="1787">
      <component glyphName="A" x="0" y="0" flags="0x204"/>
      <component glyphName="grave" x="1617" y="985" flags="0x4"/>
    </TTGlyph>
    <TTGlyph name="Amacron" xMin="-100" yMin="-49" xMax="2205" yMax="1700">
      <component glyphName="A" x="0" y="0" flags="0x204"/>
      <component glyphName="macron" x="1654" y="985" flags="0x4"/>
    </TTGlyph>
    <TTGlyph name="Aogonek" xMin="-100" yMin="-320" xMax="2205" yMax="1491">
      <contour>
        <pt x="2023" y="-222" on="1"/>
        <pt x="2023" y="-238" on="0"/>
        <pt x="2005" y="-272" on="0"/>
        <pt x="1974" y="-301" on="0"/>
        <pt x="1930" y="-320" on="0"/>
        <pt x="1904" y="-320" on="1"/>
        <pt x="1874" y="-320" on="0"/>
        <pt x="1830" y="-300" on="0"/>
        <pt x="1802" y="-269" on="0"/>
        <pt x="1788" y="-229" on="0"/>
        <pt x="1788" y="-209" on="1"/>
        <pt x="1788" y="-179" on="0"/>
        <pt x="1807" y="-120" on="0"/>
        <pt x="1836" y="-68" on="0"/>
        <pt x="1868" y="-25" on="0"/>
        <pt x="1880" y="-10" on="1"/>
        <pt x="1863" y="29" on="0"/>
        <pt x="1837" y="138" on="0"/>
        <pt x="1819" y="269" on="0"/>
        <pt x="1806" y="417" on="0"/>
        <pt x="1803" y="496" on="1"/>
        <pt x="1728" y="486" on="0"/>
        <pt x="1541" y="462" on="0"/>
        <pt x="1421" y="446" on="1"/>
        <pt x="1337" y="434" on="0"/>
        <pt x="1250" y="425" on="1"/>
        <pt x="1036" y="192" on="0"/>
        <pt x="563" y="-49" on="0"/>
        <pt x="325" y="-49" on="1"/>
        <pt x="219" y="-49" on="0"/>
        <pt x="64" y="-8" on="0"/>
        <pt x="-37" y="43" on="0"/>
        <pt x="-88" y="87" on="0"/>
        <pt x="-90" y="89" on="1"/>
        <pt x="-100" y="99" on="0"/>
        <pt x="-100" y="115" on="1"/>
        <pt x="-100" y="131" on="0"/>
        <pt x="-78" y="153" on="0"/>
        <pt x="-63" y="153" on="1"/>
        <pt x="-46" y="153" on="0"/>
        <pt x="-35" y="141" on="1"/>
        <pt x="-33" y="139" on="0"/>
        <pt x="11" y="102" on="0"/>
        <pt x="98" y="60" on="0"/>
        <pt x="232" y="26" on="0"/>
        <pt x="324" y="26" on="1"/>
        <pt x="450" y="26" on="0"/>
        <pt x="680" y="94" on="0"/>
        <pt x="885" y="203" on="0"/>
        <pt x="1062" y="343" on="0"/>
        <pt x="1134" y="415" on="1"/>
        <pt x="1063" y="409" on="0"/>
        <pt x="923" y="403" on="0"/>
        <pt x="855" y="403" on="1"/>
        <pt x="721" y="403" on="0"/>
        <pt x="479" y="433" on="0"/>
        <pt x="295" y="504" on="0"/>
        <pt x="186" y="622" on="0"/>
        <pt x="186" y="710" on="1"/>
        <pt x="186" y="750" on="0"/>
        <pt x="219" y="830" on="0"/>
        <pt x="265" y="895" on="0"/>
        <pt x="315" y="936" on="0"/>
        <pt x="333" y="936" on="1"/>
        <pt x="347" y="936" on="0"/>
        <pt x="371" y="916" on="0"/>
        <pt x="371" y="899" on="1"/>
        <pt x="371" y="890" on="0"/>
        <pt x="363" y="873" on="0"/>
        <pt x="355" y="868" on="1"/>
        <pt x="353" y="866" on="0"/>
        <pt x="323" y="842" on="0"/>
        <pt x="289" y="801" on="0"/>
        <pt x="261" y="744" on="0"/>
        <pt x="261" y="711" on="1"/>
        <pt x="261" y="654" on="0"/>
        <pt x="340" y="567" on="0"/>
        <pt x="491" y="508" on="0"/>
        <pt x="711" y="478" on="0"/>
        <pt x="852" y="478" on="1"/>
        <pt x="933" y="478" on="0"/>
        <pt x="1113" y="488" on="0"/>
        <pt x="1213" y="498" on="1"/>
        <pt x="1261" y="551" on="0"/>
        <pt x="1335" y="645" on="0"/>
        <pt x="1361" y="682" on="1"/>
        <pt x="1404" y="743" on="0"/>
        <pt x="1498" y="881" on="0"/>
        <pt x="1591" y="1023" on="0"/>
        <pt x="1680" y="1162" on="0"/>
        <pt x="1758" y="1285" on="0"/>
        <pt x="1820" y="1386" on="0"/>
        <pt x="1840" y="1419" on="1"/>
        <pt x="1846" y="1446" on="0"/>
        <pt x="1870" y="1491" on="0"/>
        <pt x="1897" y="1491" on="1"/>
        <pt x="1912" y="1491" on="0"/>
        <pt x="1940" y="1466" on="0"/>
        <pt x="1940" y="1447" on="1"/>
        <pt x="1940" y="1433" on="0"/>
        <pt x="1920" y="1401" on="0"/>
        <pt x="1911" y="1390" on="1"/>
        <pt x="1908" y="1371" on="0"/>
        <pt x="1895" y="1247" on="0"/>
        <pt x="1882" y="1068" on="0"/>
        <pt x="1873" y="853" on="0"/>
        <pt x="1873" y="743" on="1"/>
        <pt x="1873" y="702" on="0"/>
        <pt x="1873" y="622" on="0"/>
        <pt x="1875" y="581" on="1"/>
        <pt x="2025" y="600" on="0"/>
        <pt x="2163" y="615" on="0"/>
        <pt x="2167" y="615" on="1"/>
        <pt x="2180" y="615" on="0"/>
        <pt x="2205" y="594" on="0"/>
        <pt x="2205" y="577" on="1"/>
        <pt x="2205" y="563" on="0"/>
        <pt x="2186" y="542" on="0"/>
        <pt x="2171" y="540" on="1"/>
        <pt x="2153" y="538" on="0"/>
        <pt x="2105" y="532" on="0"/>
        <pt x="2035" y="524" on="0"/>
        <pt x="1941" y="513" on="0"/>
        <pt x="1878" y="505" on="1"/>
        <pt x="1881" y="423" on="0"/>
        <pt x="1894" y="272" on="0"/>
        <pt x="1913" y="142" on="0"/>
        <pt x="1939" y="38" on="0"/>
        <pt x="1956" y="5" on="1"/>
        <pt x="1958" y="2" on="0"/>
        <pt x="1960" y="-6" on="0"/>
        <pt x="1960" y="-12" on="1"/>
        <pt x="1960" y="-23" on="0"/>
        <pt x="1951" y="-36" on="0"/>
        <pt x="1946" y="-41" on="1"/>
        <pt x="1946" y="-41" on="0"/>
        <pt x="1918" y="-75" on="0"/>
        <pt x="1885" y="-125" on="0"/>
        <pt x="1857" y="-184" on="0"/>
        <pt x="1857" y="-209" on="1"/>
        <pt x="1857" y="-232" on="0"/>
        <pt x="1882" y="-254" on="0"/>
        <pt x="1902" y="-254" on="1"/>
        <pt x="1927" y="-254" on="0"/>
        <pt x="1953" y="-223" on="0"/>
        <pt x="1960" y="-210" on="1"/>
        <pt x="1971" y="-190" on="0"/>
        <pt x="1992" y="-190" on="1"/>
        <pt x="2006" y="-190" on="0"/>
        <pt x="2023" y="-209" on="0"/>
      </contour>
      <contour>
        <pt x="1411" y="521" on="1"/>
        <pt x="1529" y="537" on="0"/>
        <pt x="1722" y="562" on="0"/>
        <pt x="1800" y="572" on="1"/>
        <pt x="1799" y="615" on="0"/>
        <pt x="1798" y="701" on="0"/>
        <pt x="1798" y="745" on="1"/>
        <pt x="1798" y="886" on="0"/>
        <pt x="1808" y="1143" on="0"/>
        <pt x="1817" y="1238" on="1"/>
        <pt x="1777" y="1175" on="0"/>
        <pt x="1680" y="1022" on="0"/>
        <pt x="1576" y="863" on="0"/>
        <pt x="1470" y="707" on="0"/>
        <pt x="1422" y="639" on="1"/>
        <pt x="1398" y="605" on="0"/>
        <pt x="1348" y="541" on="0"/>
        <pt x="1323" y="510" on="1"/>
        <pt x="1345" y="512" on="0"/>
        <pt x="1388" y="518" on="0"/>
      </contour>
    </TTGlyph>
    <TTGlyph name="Aring" xMin="-100" yMin="-49" xMax="2205" yMax="1845">
      <component glyphName="A" x="0" y="0" flags="0x204"/>
      <component glyphName="ring" x="1655" y="985" flags="0x4"/>
    </TTGlyph>
    <TTGlyph name="Atilde" xMin="-100" yMin="-49" xMax="2205" yMax="1763">
      <component glyphName="A" x="0" y="0" flags="0x204"/>
      <component glyphName="tilde" x="1653" y="985" flags="0x4"/>
    </TTGlyph>
    <TTGlyph name="B" xMin="60" yMin="-42" xMax="2249" yMax="1519">
      <contour>
        <pt x="1878" y="695" on="1"/>
        <pt x="1964" y="671" on="0"/>
        <pt x="2085" y="609" on="0"/>
        <pt x="2168" y="542" on="0"/>
        <pt x="2216" y="472" on="0"/>
        <pt x="2242" y="408" on="0"/>
        <pt x="2249" y="353" on="0"/>
        <pt x="2249" y="334" on="1"/>
        <pt x="2249" y="264" on="0"/>
        <pt x="2196" y="154" on="0"/>
        <pt x="2106" y="70" on="0"/>
        <pt x="1987" y="12" on="0"/>
        <pt x="1857" y="-25" on="0"/>
        <pt x="1721" y="-42" on="0"/>
        <pt x="1660" y="-42" on="1"/>
        <pt x="1561" y="-42" on="0"/>
        <pt x="1350" y="-2" on="0"/>
        <pt x="1242" y="43" on="1"/>
        <pt x="1218" y="53" on="0"/>
        <pt x="1218" y="78" on="1"/>
        <pt x="1218" y="95" on="0"/>
        <pt x="1242" y="116" on="0"/>
        <pt x="1256" y="116" on="1"/>
        <pt x="1263" y="116" on="0"/>
        <pt x="1271" y="113" on="1"/>
        <pt x="1364" y="74" on="0"/>
        <pt x="1560" y="34" on="0"/>
        <pt x="1659" y="34" on="1"/>
        <pt x="1794" y="34" on="0"/>
        <pt x="1988" y="86" on="0"/>
        <pt x="2113" y="171" on="0"/>
        <pt x="2173" y="278" on="0"/>
        <pt x="2173" y="333" on="1"/>
        <pt x="2173" y="394" on="0"/>
        <pt x="2106" y="498" on="0"/>
        <pt x="1983" y="580" on="0"/>
        <pt x="1811" y="638" on="0"/>
        <pt x="1706" y="652" on="1"/>
        <pt x="1637" y="640" on="0"/>
        <pt x="1507" y="630" on="0"/>
        <pt x="1452" y="630" on="1"/>
        <pt x="1429" y="630" on="1"/>
        <pt x="1422" y="630" on="0"/>
        <pt x="1416" y="631" on="1"/>
        <pt x="1344" y="458" on="0"/>
        <pt x="1145" y="206" on="0"/>
        <pt x="920" y="41" on="0"/>
        <pt x="683" y="-38" on="0"/>
        <pt x="574" y="-38" on="1"/>
        <pt x="461" y="-38" on="0"/>
        <pt x="272" y="25" on="0"/>
        <pt x="136" y="141" on="0"/>
        <pt x="60" y="306" on="0"/>
        <pt x="60" y="408" on="1"/>
        <pt x="60" y="514" on="0"/>
        <pt x="143" y="741" on="0"/>
        <pt x="225" y="858" on="1"/>
        <pt x="303" y="968" on="0"/>
        <pt x="493" y="1143" on="0"/>
        <pt x="702" y="1275" on="0"/>
        <pt x="924" y="1369" on="0"/>
        <pt x="1143" y="1429" on="0"/>
        <pt x="1352" y="1456" on="0"/>
        <pt x="1444" y="1456" on="1"/>
        <pt x="1519" y="1456" on="0"/>
        <pt x="1655" y="1446" on="0"/>
        <pt x="1717" y="1436" on="1"/>
        <pt x="1753" y="1476" on="0"/>
        <pt x="1797" y="1511" on="0"/>
        <pt x="1800" y="1513" on="1"/>
        <pt x="1812" y="1519" on="0"/>
        <pt x="1821" y="1519" on="1"/>
        <pt x="1835" y="1519" on="0"/>
        <pt x="1857" y="1503" on="0"/>
        <pt x="1857" y="1488" on="1"/>
        <pt x="1857" y="1468" on="0"/>
        <pt x="1829" y="1441" on="0"/>
        <pt x="1805" y="1418" on="1"/>
        <pt x="1988" y="1373" on="0"/>
        <pt x="2182" y="1192" on="0"/>
        <pt x="2182" y="1059" on="1"/>
        <pt x="2182" y="986" on="0"/>
        <pt x="2134" y="870" on="0"/>
        <pt x="2051" y="782" on="0"/>
        <pt x="1940" y="717" on="0"/>
      </contour>
      <contour>
        <pt x="1707" y="728" on="1"/>
        <pt x="1751" y="736" on="0"/>
        <pt x="1844" y="762" on="0"/>
        <pt x="1933" y="799" on="0"/>
        <pt x="2013" y="850" on="0"/>
        <pt x="2072" y="919" on="0"/>
        <pt x="2107" y="1005" on="0"/>
        <pt x="2107" y="1060" on="1"/>
        <pt x="2107" y="1172" on="0"/>
        <pt x="1921" y="1318" on="0"/>
        <pt x="1747" y="1353" on="1"/>
        <pt x="1697" y="1291" on="0"/>
        <pt x="1609" y="1141" on="0"/>
        <pt x="1535" y="980" on="0"/>
        <pt x="1476" y="815" on="0"/>
        <pt x="1457" y="738" on="1"/>
        <pt x="1477" y="739" on="0"/>
        <pt x="1511" y="739" on="0"/>
        <pt x="1523" y="739" on="1"/>
        <pt x="1562" y="739" on="0"/>
        <pt x="1654" y="734" on="0"/>
      </contour>
      <contour>
        <pt x="1662" y="1367" on="1"/>
        <pt x="1611" y="1374" on="0"/>
        <pt x="1503" y="1380" on="0"/>
        <pt x="1444" y="1380" on="1"/>
        <pt x="1356" y="1380" on="0"/>
        <pt x="1158" y="1354" on="0"/>
        <pt x="950" y="1298" on="0"/>
        <pt x="739" y="1209" on="0"/>
        <pt x="540" y="1084" on="0"/>
        <pt x="360" y="918" on="0"/>
        <pt x="286" y="814" on="1"/>
        <pt x="211" y="708" on="0"/>
        <pt x="135" y="502" on="0"/>
        <pt x="135" y="409" on="1"/>
        <pt x="135" y="322" on="0"/>
        <pt x="198" y="184" on="0"/>
        <pt x="314" y="89" on="0"/>
        <pt x="476" y="38" on="0"/>
        <pt x="574" y="38" on="1"/>
        <pt x="672" y="38" on="0"/>
        <pt x="884" y="109" on="0"/>
        <pt x="1086" y="256" on="0"/>
        <pt x="1268" y="481" on="0"/>
        <pt x="1336" y="636" on="1"/>
        <pt x="1318" y="636" on="0"/>
        <pt x="1280" y="657" on="0"/>
        <pt x="1280" y="680" on="1"/>
        <pt x="1280" y="704" on="0"/>
        <pt x="1326" y="725" on="0"/>
        <pt x="1375" y="732" on="1"/>
        <pt x="1402" y="814" on="0"/>
        <pt x="1458" y="978" on="0"/>
        <pt x="1526" y="1138" on="0"/>
        <pt x="1608" y="1293" on="0"/>
      </contour>
    </TTGlyph>
    <TTGlyph name="C" xMin="60" yMin="-46" xMax="1679" yMax="1452">
      <contour>
        <pt x="1674" y="371" on="1"/>
        <pt x="1627" y="295" on="0"/>
        <pt x="1467" y="146" on="0"/>
        <pt x="1262" y="27" on="0"/>
        <pt x="1020" y="-46" on="0"/>
        <pt x="891" y="-46" on="1"/>
        <pt x="790" y="-46" on="0"/>
        <pt x="589" y="-10" on="0"/>
        <pt x="404" y="64" on="0"/>
        <pt x="245" y="177" on="0"/>
        <pt x="127" y="331" on="0"/>
        <pt x="60" y="527" on="0"/>
        <pt x="60" y="647" on="1"/>
        <pt x="60" y="764" on="0"/>
        <pt x="129" y="974" on="0"/>
        <pt x="253" y="1153" on="0"/>
        <pt x="423" y="1297" on="0"/>
        <pt x="625" y="1398" on="0"/>
        <pt x="849" y="1452" on="0"/>
        <pt x="966" y="1452" on="1"/>
        <pt x="1095" y="1452" on="0"/>
        <pt x="1322" y="1391" on="0"/>
        <pt x="1492" y="1280" on="0"/>
        <pt x="1591" y="1125" on="0"/>
        <pt x="1591" y="1030" on="1"/>
        <pt x="1591" y="942" on="0"/>
        <pt x="1509" y="783" on="0"/>
        <pt x="1366" y="663" on="0"/>
        <pt x="1175" y="593" on="0"/>
        <pt x="1067" y="593" on="1"/>
        <pt x="980" y="593" on="0"/>
        <pt x="846" y="636" on="0"/>
        <pt x="756" y="712" on="0"/>
        <pt x="710" y="814" on="0"/>
        <pt x="710" y="873" on="1"/>
        <pt x="710" y="922" on="0"/>
        <pt x="741" y="1003" on="0"/>
        <pt x="778" y="1061" on="0"/>
        <pt x="811" y="1094" on="0"/>
        <pt x="813" y="1096" on="1"/>
        <pt x="818" y="1101" on="0"/>
        <pt x="831" y="1104" on="0"/>
        <pt x="837" y="1104" on="1"/>
        <pt x="853" y="1104" on="0"/>
        <pt x="875" y="1084" on="0"/>
        <pt x="875" y="1068" on="1"/>
        <pt x="875" y="1050" on="0"/>
        <pt x="862" y="1038" on="1"/>
        <pt x="860" y="1037" on="0"/>
        <pt x="836" y="1012" on="0"/>
        <pt x="808" y="969" on="0"/>
        <pt x="785" y="909" on="0"/>
        <pt x="785" y="873" on="1"/>
        <pt x="785" y="816" on="0"/>
        <pt x="836" y="738" on="0"/>
        <pt x="918" y="689" on="0"/>
        <pt x="1018" y="668" on="0"/>
        <pt x="1068" y="668" on="1"/>
        <pt x="1161" y="668" on="0"/>
        <pt x="1324" y="728" on="0"/>
        <pt x="1446" y="828" on="0"/>
        <pt x="1516" y="958" on="0"/>
        <pt x="1516" y="1029" on="1"/>
        <pt x="1516" y="1107" on="0"/>
        <pt x="1428" y="1236" on="0"/>
        <pt x="1278" y="1327" on="0"/>
        <pt x="1077" y="1377" on="0"/>
        <pt x="963" y="1377" on="1"/>
        <pt x="877" y="1377" on="0"/>
        <pt x="688" y="1336" on="0"/>
        <pt x="504" y="1254" on="0"/>
        <pt x="337" y="1132" on="0"/>
        <pt x="211" y="969" on="0"/>
        <pt x="136" y="767" on="0"/>
        <pt x="136" y="647" on="1"/>
        <pt x="136" y="538" on="0"/>
        <pt x="197" y="362" on="0"/>
        <pt x="305" y="225" on="0"/>
        <pt x="450" y="125" on="0"/>
        <pt x="617" y="60" on="0"/>
        <pt x="799" y="29" on="0"/>
        <pt x="889" y="29" on="1"/>
        <pt x="1009" y="29" on="0"/>
        <pt x="1231" y="96" on="0"/>
        <pt x="1420" y="205" on="0"/>
        <pt x="1566" y="341" on="0"/>
        <pt x="1609" y="410" on="1"/>
        <pt x="1614" y="419" on="0"/>
        <pt x="1632" y="428" on="0"/>
        <pt x="1642" y="428" on="1"/>
        <pt x="1659" y="428" on="0"/>
        <pt x="1679" y="405" on="0"/>
        <pt x="1679" y="391" on="1"/>
        <pt x="1679" y="386" on="0"/>
        <pt x="1677" y="376" on="0"/>
      </contour>
    </TTGlyph>
    <TTGlyph name="Cacute" xMin="60" yMin="-46" xMax="1679" yMax="1753">
      <component glyphName="C" x="0" y="0" flags="0x204"/>
      <component glyphName="acute" x="772" y="951" flags="0x4"/>
    </TTGlyph>
    <TTGlyph name="Ccaron" xMin="60" yMin="-46" xMax="1679" yMax="1753">
      <component glyphName="C" x="0" y="0" flags="0x204"/>
      <component glyphName="caron" x="732" y="951" flags="0x4"/>
    </TTGlyph>
    <TTGlyph name="Ccedilla" xMin="60" yMin="-367" xMax="1679" yMax="1452">
      <contour>
        <pt x="1004" y="-240" on="1"/>
        <pt x="1004" y="-264" on="0"/>
        <pt x="986" y="-309" on="0"/>
        <pt x="950" y="-345" on="0"/>
        <pt x="897" y="-367" on="0"/>
        <pt x="863" y="-367" on="1"/>
        <pt x="843" y="-367" on="0"/>
        <pt x="797" y="-358" on="0"/>
        <pt x="759" y="-340" on="0"/>
        <pt x="734" y="-315" on="0"/>
        <pt x="734" y="-299" on="1"/>
        <pt x="734" y="-284" on="0"/>
        <pt x="755" y="-267" on="0"/>
        <pt x="768" y="-267" on="1"/>
        <pt x="776" y="-267" on="0"/>
        <pt x="792" y="-278" on="0"/>
        <pt x="813" y="-291" on="0"/>
        <pt x="842" y="-302" on="0"/>
        <pt x="862" y="-302" on="1"/>
        <pt x="892" y="-302" on="0"/>
        <pt x="936" y="-271" on="0"/>
        <pt x="936" y="-239" on="1"/>
        <pt x="936" y="-221" on="0"/>
        <pt x="923" y="-197" on="0"/>
        <pt x="904" y="-182" on="0"/>
        <pt x="880" y="-176" on="0"/>
        <pt x="870" y="-176" on="1"/>
        <pt x="853" y="-176" on="0"/>
        <pt x="831" y="-182" on="0"/>
        <pt x="824" y="-182" on="1"/>
        <pt x="811" y="-182" on="0"/>
        <pt x="794" y="-167" on="0"/>
        <pt x="794" y="-153" on="1"/>
        <pt x="794" y="-145" on="0"/>
        <pt x="798" y="-132" on="0"/>
        <pt x="800" y="-126" on="1"/>
        <pt x="831" y="-44" on="1"/>
        <pt x="735" y="-39" on="0"/>
        <pt x="546" y="4" on="0"/>
        <pt x="374" y="81" on="0"/>
        <pt x="228" y="195" on="0"/>
        <pt x="121" y="345" on="0"/>
        <pt x="60" y="533" on="0"/>
        <pt x="60" y="647" on="1"/>
        <pt x="60" y="764" on="0"/>
        <pt x="129" y="974" on="0"/>
        <pt x="253" y="1153" on="0"/>
        <pt x="423" y="1297" on="0"/>
        <pt x="625" y="1398" on="0"/>
        <pt x="849" y="1452" on="0"/>
        <pt x="966" y="1452" on="1"/>
        <pt x="1095" y="1452" on="0"/>
        <pt x="1322" y="1391" on="0"/>
        <pt x="1492" y="1280" on="0"/>
        <pt x="1591" y="1125" on="0"/>
        <pt x="1591" y="1030" on="1"/>
        <pt x="1591" y="942" on="0"/>
        <pt x="1509" y="783" on="0"/>
        <pt x="1366" y="663" on="0"/>
        <pt x="1175" y="593" on="0"/>
        <pt x="1067" y="593" on="1"/>
        <pt x="980" y="593" on="0"/>
        <pt x="846" y="636" on="0"/>
        <pt x="756" y="712" on="0"/>
        <pt x="710" y="814" on="0"/>
        <pt x="710" y="873" on="1"/>
        <pt x="710" y="922" on="0"/>
        <pt x="741" y="1003" on="0"/>
        <pt x="778" y="1061" on="0"/>
        <pt x="811" y="1094" on="0"/>
        <pt x="813" y="1096" on="1"/>
        <pt x="818" y="1101" on="0"/>
        <pt x="831" y="1104" on="0"/>
        <pt x="837" y="1104" on="1"/>
        <pt x="853" y="1104" on="0"/>
        <pt x="875" y="1084" on="0"/>
        <pt x="875" y="1068" on="1"/>
        <pt x="875" y="1050" on="0"/>
        <pt x="862" y="1038" on="1"/>
        <pt x="860" y="1037" on="0"/>
        <pt x="836" y="1012" on="0"/>
        <pt x="808" y="969" on="0"/>
        <pt x="785" y="909" on="0"/>
        <pt x="785" y="873" on="1"/>
        <pt x="785" y="816" on="0"/>
        <pt x="836" y="738" on="0"/>
        <pt x="918" y="689" on="0"/>
        <pt x="1018" y="668" on="0"/>
        <pt x="1068" y="668" on="1"/>
        <pt x="1161" y="668" on="0"/>
        <pt x="1324" y="728" on="0"/>
        <pt x="1446" y="828" on="0"/>
        <pt x="1516" y="958" on="0"/>
        <pt x="1516" y="1029" on="1"/>
        <pt x="1516" y="1107" on="0"/>
        <pt x="1428" y="1236" on="0"/>
        <pt x="1278" y="1327" on="0"/>
        <pt x="1077" y="1377" on="0"/>
        <pt x="963" y="1377" on="1"/>
        <pt x="877" y="1377" on="0"/>
        <pt x="688" y="1336" on="0"/>
        <pt x="504" y="1254" on="0"/>
        <pt x="337" y="1132" on="0"/>
        <pt x="211" y="969" on="0"/>
        <pt x="136" y="767" on="0"/>
        <pt x="136" y="647" on="1"/>
        <pt x="136" y="538" on="0"/>
        <pt x="197" y="362" on="0"/>
        <pt x="305" y="225" on="0"/>
        <pt x="450" y="125" on="0"/>
        <pt x="617" y="60" on="0"/>
        <pt x="799" y="29" on="0"/>
        <pt x="889" y="29" on="1"/>
        <pt x="1009" y="29" on="0"/>
        <pt x="1231" y="96" on="0"/>
        <pt x="1420" y="205" on="0"/>
        <pt x="1566" y="341" on="0"/>
        <pt x="1609" y="410" on="1"/>
        <pt x="1614" y="419" on="0"/>
        <pt x="1632" y="428" on="0"/>
        <pt x="1642" y="428" on="1"/>
        <pt x="1659" y="428" on="0"/>
        <pt x="1679" y="405" on="0"/>
        <pt x="1679" y="391" on="1"/>
        <pt x="1679" y="386" on="0"/>
        <pt x="1677" y="376" on="0"/>
        <pt x="1674" y="371" on="1"/>
        <pt x="1627" y="295" on="0"/>
        <pt x="1469" y="147" on="0"/>
        <pt x="1265" y="29" on="0"/>
        <pt x="1026" y="-45" on="0"/>
        <pt x="898" y="-46" on="1"/>
        <pt x="898" y="-47" on="1"/>
        <pt x="898" y="-53" on="0"/>
        <pt x="892" y="-71" on="0"/>
        <pt x="890" y="-75" on="1"/>
        <pt x="876" y="-114" on="1"/>
        <pt x="899" y="-114" on="0"/>
        <pt x="945" y="-129" on="0"/>
        <pt x="981" y="-161" on="0"/>
        <pt x="1004" y="-208" on="0"/>
      </contour>
    </TTGlyph>
    <TTGlyph name="Ccircumflex" xMin="60" yMin="-46" xMax="1679" yMax="1753">
      <component glyphName="C" x="0" y="0" flags="0x204"/>
      <component glyphName="circumflex" x="728" y="951" flags="0x4"/>
    </TTGlyph>
    <TTGlyph name="Cdotaccent" xMin="60" yMin="-46" xMax="1679" yMax="1680">
      <component glyphName="C" x="0" y="0" flags="0x204"/>
      <component glyphName="dotaccent" x="730" y="951" flags="0x4"/>
    </TTGlyph>
    <TTGlyph name="D" xMin="60" yMin="-27" xMax="2024" yMax="1471">
      <contour>
        <pt x="936" y="1471" on="1"/>
        <pt x="1059" y="1471" on="0"/>
        <pt x="1315" y="1426" on="0"/>
        <pt x="1557" y="1334" on="0"/>
        <pt x="1771" y="1195" on="0"/>
        <pt x="1931" y="1009" on="0"/>
        <pt x="2024" y="775" on="0"/>
        <pt x="2024" y="633" on="1"/>
        <pt x="2024" y="491" on="0"/>
        <pt x="1924" y="249" on="0"/>
        <pt x="1744" y="73" on="0"/>
        <pt x="1494" y="-27" on="0"/>
        <pt x="1344" y="-27" on="1"/>
        <pt x="1273" y="-27" on="0"/>
        <pt x="1121" y="-6" on="0"/>
        <pt x="969" y="38" on="0"/>
        <pt x="822" y="103" on="0"/>
        <pt x="755" y="148" on="1"/>
        <pt x="676" y="70" on="0"/>
        <pt x="469" y="-17" on="0"/>
        <pt x="354" y="-17" on="1"/>
        <pt x="292" y="-17" on="0"/>
        <pt x="184" y="11" on="0"/>
        <pt x="105" y="63" on="0"/>
        <pt x="60" y="137" on="0"/>
        <pt x="60" y="182" on="1"/>
        <pt x="60" y="221" on="0"/>
        <pt x="99" y="289" on="0"/>
        <pt x="170" y="341" on="0"/>
        <pt x="269" y="371" on="0"/>
        <pt x="328" y="371" on="1"/>
        <pt x="502" y="371" on="0"/>
        <pt x="740" y="243" on="1"/>
        <pt x="784" y="298" on="0"/>
        <pt x="812" y="367" on="1"/>
        <pt x="843" y="444" on="0"/>
        <pt x="878" y="607" on="0"/>
        <pt x="905" y="769" on="0"/>
        <pt x="934" y="923" on="0"/>
        <pt x="985" y="1059" on="0"/>
        <pt x="1068" y="1172" on="0"/>
        <pt x="1135" y="1212" on="1"/>
        <pt x="1145" y="1217" on="0"/>
        <pt x="1153" y="1217" on="1"/>
        <pt x="1167" y="1217" on="0"/>
        <pt x="1192" y="1197" on="0"/>
        <pt x="1192" y="1179" on="1"/>
        <pt x="1192" y="1158" on="0"/>
        <pt x="1173" y="1147" on="1"/>
        <pt x="1120" y="1116" on="0"/>
        <pt x="1053" y="1023" on="0"/>
        <pt x="1009" y="907" on="0"/>
        <pt x="983" y="773" on="0"/>
        <pt x="971" y="700" on="1"/>
        <pt x="961" y="640" on="0"/>
        <pt x="937" y="509" on="0"/>
        <pt x="901" y="380" on="0"/>
        <pt x="846" y="257" on="0"/>
        <pt x="806" y="205" on="1"/>
        <pt x="808" y="204" on="0"/>
        <pt x="809" y="203" on="0"/>
        <pt x="811" y="202" on="1"/>
        <pt x="938" y="126" on="0"/>
        <pt x="1212" y="48" on="0"/>
        <pt x="1343" y="48" on="1"/>
        <pt x="1485" y="48" on="0"/>
        <pt x="1710" y="142" on="0"/>
        <pt x="1866" y="301" on="0"/>
        <pt x="1948" y="513" on="0"/>
        <pt x="1948" y="631" on="1"/>
        <pt x="1948" y="751" on="0"/>
        <pt x="1868" y="958" on="0"/>
        <pt x="1729" y="1128" on="0"/>
        <pt x="1538" y="1260" on="0"/>
        <pt x="1317" y="1349" on="0"/>
        <pt x="1074" y="1396" on="0"/>
        <pt x="952" y="1396" on="1"/>
        <pt x="788" y="1396" on="0"/>
        <pt x="517" y="1341" on="0"/>
        <pt x="322" y="1235" on="0"/>
        <pt x="214" y="1081" on="0"/>
        <pt x="214" y="983" on="1"/>
        <pt x="214" y="927" on="0"/>
        <pt x="247" y="841" on="0"/>
        <pt x="298" y="778" on="0"/>
        <pt x="358" y="734" on="0"/>
        <pt x="410" y="707" on="0"/>
        <pt x="447" y="695" on="0"/>
        <pt x="450" y="694" on="1"/>
        <pt x="463" y="691" on="0"/>
        <pt x="478" y="670" on="0"/>
        <pt x="478" y="657" on="1"/>
        <pt x="478" y="640" on="0"/>
        <pt x="454" y="622" on="0"/>
        <pt x="440" y="622" on="1"/>
        <pt x="420" y="622" on="0"/>
        <pt x="360" y="641" on="0"/>
        <pt x="293" y="680" on="0"/>
        <pt x="226" y="739" on="0"/>
        <pt x="172" y="819" on="0"/>
        <pt x="139" y="921" on="0"/>
        <pt x="139" y="983" on="1"/>
        <pt x="139" y="1096" on="0"/>
        <pt x="254" y="1277" on="0"/>
        <pt x="464" y="1403" on="0"/>
        <pt x="757" y="1471" on="0"/>
      </contour>
      <contour>
        <pt x="686" y="186" on="1"/>
        <pt x="582" y="241" on="0"/>
        <pt x="404" y="297" on="0"/>
        <pt x="330" y="297" on="1"/>
        <pt x="288" y="297" on="0"/>
        <pt x="217" y="278" on="0"/>
        <pt x="165" y="246" on="0"/>
        <pt x="135" y="204" on="0"/>
        <pt x="135" y="181" on="1"/>
        <pt x="135" y="159" on="0"/>
        <pt x="162" y="115" on="0"/>
        <pt x="217" y="81" on="0"/>
        <pt x="299" y="59" on="0"/>
        <pt x="354" y="59" on="1"/>
        <pt x="448" y="59" on="0"/>
        <pt x="619" y="126" on="0"/>
      </contour>
    </TTGlyph>
    <TTGlyph name="Dcaron" xMin="60" yMin="-27" xMax="2024" yMax="1769">
      <component glyphName="D" x="0" y="0" flags="0x204"/>
      <component glyphName="caron" x="782" y="967" flags="0x4"/>
    </TTGlyph>
    <TTGlyph name="Dcroat" xMin="60" yMin="-27" xMax="2024" yMax="1471">
      <component glyphName="Eth" x="0" y="0" flags="0x204"/>
    </TTGlyph>
    <TTGlyph name="E" xMin="60" yMin="-54" xMax="1638" yMax="1481">
      <contour>
        <pt x="1636" y="425" on="1"/>
        <pt x="1635" y="421" on="0"/>
        <pt x="1609" y="361" on="0"/>
        <pt x="1548" y="273" on="0"/>
        <pt x="1448" y="167" on="0"/>
        <pt x="1296" y="66" on="0"/>
        <pt x="1088" y="-17" on="0"/>
        <pt x="951" y="-39" on="1"/>
        <pt x="859" y="-54" on="0"/>
        <pt x="758" y="-54" on="1"/>
        <pt x="674" y="-54" on="0"/>
        <pt x="505" y="-31" on="0"/>
        <pt x="350" y="18" on="0"/>
        <pt x="216" y="94" on="0"/>
        <pt x="117" y="198" on="0"/>
        <pt x="60" y="333" on="0"/>
        <pt x="60" y="416" on="1"/>
        <pt x="60" y="563" on="0"/>
        <pt x="223" y="775" on="0"/>
        <pt x="383" y="834" on="1"/>
        <pt x="326" y="887" on="0"/>
        <pt x="270" y="1015" on="0"/>
        <pt x="270" y="1084" on="1"/>
        <pt x="270" y="1170" on="0"/>
        <pt x="349" y="1316" on="0"/>
        <pt x="489" y="1422" on="0"/>
        <pt x="682" y="1481" on="0"/>
        <pt x="797" y="1481" on="1"/>
        <pt x="913" y="1481" on="0"/>
        <pt x="1086" y="1437" on="0"/>
        <pt x="1209" y="1371" on="0"/>
        <pt x="1288" y="1293" on="0"/>
        <pt x="1334" y="1225" on="0"/>
        <pt x="1352" y="1178" on="0"/>
        <pt x="1353" y="1175" on="1"/>
        <pt x="1354" y="1171" on="0"/>
        <pt x="1354" y="1164" on="1"/>
        <pt x="1354" y="1150" on="0"/>
        <pt x="1333" y="1127" on="0"/>
        <pt x="1316" y="1127" on="1"/>
        <pt x="1304" y="1127" on="0"/>
        <pt x="1285" y="1142" on="0"/>
        <pt x="1281" y="1155" on="1"/>
        <pt x="1281" y="1157" on="0"/>
        <pt x="1265" y="1196" on="0"/>
        <pt x="1225" y="1252" on="0"/>
        <pt x="1156" y="1315" on="0"/>
        <pt x="1048" y="1370" on="0"/>
        <pt x="898" y="1406" on="0"/>
        <pt x="797" y="1406" on="1"/>
        <pt x="681" y="1406" on="0"/>
        <pt x="510" y="1348" on="0"/>
        <pt x="399" y="1255" on="0"/>
        <pt x="345" y="1141" on="0"/>
        <pt x="345" y="1086" on="1"/>
        <pt x="345" y="1021" on="0"/>
        <pt x="409" y="903" on="0"/>
        <pt x="469" y="861" on="1"/>
        <pt x="523" y="875" on="0"/>
        <pt x="627" y="891" on="0"/>
        <pt x="719" y="900" on="0"/>
        <pt x="794" y="903" on="0"/>
        <pt x="818" y="903" on="1"/>
        <pt x="862" y="903" on="0"/>
        <pt x="936" y="890" on="0"/>
        <pt x="989" y="865" on="0"/>
        <pt x="1019" y="826" on="0"/>
        <pt x="1019" y="801" on="1"/>
        <pt x="1019" y="776" on="0"/>
        <pt x="989" y="736" on="0"/>
        <pt x="936" y="708" on="0"/>
        <pt x="862" y="693" on="0"/>
        <pt x="818" y="693" on="1"/>
        <pt x="770" y="693" on="0"/>
        <pt x="672" y="705" on="0"/>
        <pt x="579" y="727" on="0"/>
        <pt x="493" y="760" on="0"/>
        <pt x="458" y="781" on="1"/>
        <pt x="299" y="733" on="0"/>
        <pt x="135" y="552" on="0"/>
        <pt x="135" y="419" on="1"/>
        <pt x="135" y="347" on="0"/>
        <pt x="186" y="232" on="0"/>
        <pt x="276" y="144" on="0"/>
        <pt x="397" y="81" on="0"/>
        <pt x="535" y="41" on="0"/>
        <pt x="685" y="22" on="0"/>
        <pt x="759" y="22" on="1"/>
        <pt x="807" y="22" on="0"/>
        <pt x="897" y="29" on="0"/>
        <pt x="939" y="36" on="1"/>
        <pt x="1065" y="56" on="0"/>
        <pt x="1256" y="133" on="0"/>
        <pt x="1395" y="224" on="0"/>
        <pt x="1487" y="319" on="0"/>
        <pt x="1542" y="398" on="0"/>
        <pt x="1565" y="448" on="0"/>
        <pt x="1565" y="449" on="1"/>
        <pt x="1569" y="461" on="0"/>
        <pt x="1588" y="474" on="0"/>
        <pt x="1600" y="474" on="1"/>
        <pt x="1616" y="474" on="0"/>
        <pt x="1638" y="452" on="0"/>
        <pt x="1638" y="437" on="1"/>
        <pt x="1638" y="433" on="0"/>
      </contour>
      <contour>
        <pt x="943" y="800" on="1"/>
        <pt x="943" y="808" on="0"/>
        <pt x="917" y="820" on="0"/>
        <pt x="876" y="827" on="0"/>
        <pt x="824" y="830" on="0"/>
        <pt x="797" y="830" on="1"/>
        <pt x="738" y="830" on="0"/>
        <pt x="632" y="823" on="0"/>
        <pt x="564" y="810" on="1"/>
        <pt x="616" y="791" on="0"/>
        <pt x="751" y="768" on="0"/>
        <pt x="820" y="768" on="1"/>
        <pt x="883" y="768" on="0"/>
        <pt x="943" y="788" on="0"/>
      </contour>
    </TTGlyph>
    <TTGlyph name="Eacute" xMin="60" yMin="-54" xMax="1638" yMax="1779">
      <component glyphName="E" x="0" y="0" flags="0x204"/>
      <component glyphName="acute" x="599" y="977" flags="0x4"/>
    </TTGlyph>
    <TTGlyph name="Ebreve" xMin="60" yMin="-54" xMax="1638" yMax="1756">
      <component glyphName="E" x="0" y="0" flags="0x204"/>
      <component glyphName="breve" x="555" y="977" flags="0x4"/>
    </TTGlyph>
    <TTGlyph name="Ecaron" xMin="60" yMin="-54" xMax="1638" yMax="1779">
      <component glyphName="E" x="0" y="0" flags="0x204"/>
      <component glyphName="caron" x="559" y="977" flags="0x4"/>
    </TTGlyph>
    <TTGlyph name="Ecircumflex" xMin="60" yMin="-54" xMax="1638" yMax="1779">
      <component glyphName="E" x="0" y="0" flags="0x204"/>
      <component glyphName="circumflex" x="555" y="977" flags="0x4"/>
    </TTGlyph>
    <TTGlyph name="Edieresis" xMin="60" yMin="-54" xMax="1638" yMax="1703">
      <component glyphName="E" x="0" y="0" flags="0x204"/>
      <component glyphName="dieresis" x="557" y="977" flags="0x4"/>
    </TTGlyph>
    <TTGlyph name="Edotaccent" xMin="60" yMin="-54" xMax="1638" yMax="1706">
      <component glyphName="E" x="0" y="0" flags="0x204"/>
      <component glyphName="dotaccent" x="557" y="977" flags="0x4"/>
    </TTGlyph>
    <TTGlyph name="Egrave" xMin="60" yMin="-54" xMax="1638" yMax="1779">
      <component glyphName="E" x="0" y="0" flags="0x204"/>
      <component glyphName="grave" x="519" y="977" flags="0x4"/>
    </TTGlyph>
    <TTGlyph name="Emacron" xMin="60" yMin="-54" xMax="1638" yMax="1692">
      <component glyphName="E" x="0" y="0" flags="0x204"/>
      <component glyphName="macron" x="556" y="977" flags="0x4"/>
    </TTGlyph>
    <TTGlyph name="Eng" xMin="30" yMin="-675" xMax="2660" yMax="1548">
      <contour>
        <pt x="2660" y="1504" on="1"/>
        <pt x="2658" y="1489" on="0"/>
        <pt x="2636" y="1471" on="0"/>
        <pt x="2622" y="1471" on="1"/>
        <pt x="2620" y="1471" on="0"/>
        <pt x="2610" y="1472" on="0"/>
        <pt x="2592" y="1472" on="1"/>
        <pt x="2573" y="1472" on="0"/>
        <pt x="2514" y="1464" on="0"/>
        <pt x="2443" y="1439" on="0"/>
        <pt x="2366" y="1391" on="0"/>
        <pt x="2292" y="1310" on="0"/>
        <pt x="2226" y="1191" on="0"/>
        <pt x="2203" y="1107" on="1"/>
        <pt x="2193" y="1073" on="0"/>
        <pt x="2169" y="957" on="0"/>
        <pt x="2142" y="811" on="0"/>
        <pt x="2114" y="643" on="0"/>
        <pt x="2087" y="467" on="0"/>
        <pt x="2061" y="293" on="0"/>
        <pt x="2051" y="215" on="1"/>
        <pt x="2094" y="223" on="0"/>
        <pt x="2178" y="235" on="0"/>
        <pt x="2220" y="237" on="1"/>
        <pt x="2236" y="238" on="0"/>
        <pt x="2260" y="216" on="0"/>
        <pt x="2260" y="197" on="1"/>
        <pt x="2260" y="183" on="0"/>
        <pt x="2240" y="162" on="0"/>
        <pt x="2225" y="161" on="1"/>
        <pt x="2179" y="158" on="0"/>
        <pt x="2087" y="146" on="0"/>
        <pt x="2040" y="136" on="1"/>
        <pt x="2036" y="102" on="0"/>
        <pt x="2029" y="40" on="0"/>
        <pt x="2026" y="14" on="1"/>
        <pt x="2025" y="5" on="0"/>
        <pt x="2018" y="-65" on="0"/>
        <pt x="2001" y="-165" on="0"/>
        <pt x="1970" y="-287" on="0"/>
        <pt x="1923" y="-412" on="0"/>
        <pt x="1856" y="-529" on="0"/>
        <pt x="1764" y="-620" on="0"/>
        <pt x="1647" y="-675" on="0"/>
        <pt x="1573" y="-675" on="1"/>
        <pt x="1508" y="-675" on="0"/>
        <pt x="1407" y="-627" on="0"/>
        <pt x="1336" y="-546" on="0"/>
        <pt x="1299" y="-438" on="0"/>
        <pt x="1299" y="-379" on="1"/>
        <pt x="1299" y="-283" on="0"/>
        <pt x="1399" y="-112" on="0"/>
        <pt x="1566" y="30" on="0"/>
        <pt x="1782" y="141" on="0"/>
        <pt x="1899" y="177" on="1"/>
        <pt x="1875" y="248" on="0"/>
        <pt x="1816" y="420" on="0"/>
        <pt x="1750" y="606" on="0"/>
        <pt x="1681" y="799" on="0"/>
        <pt x="1614" y="981" on="0"/>
        <pt x="1554" y="1146" on="0"/>
        <pt x="1530" y="1211" on="1"/>
        <pt x="1525" y="1155" on="0"/>
        <pt x="1504" y="1018" on="0"/>
        <pt x="1469" y="861" on="0"/>
        <pt x="1417" y="686" on="0"/>
        <pt x="1381" y="592" on="1"/>
        <pt x="1325" y="448" on="0"/>
        <pt x="1174" y="244" on="0"/>
        <pt x="1008" y="108" on="0"/>
        <pt x="837" y="29" on="0"/>
        <pt x="687" y="-11" on="0"/>
        <pt x="567" y="-22" on="0"/>
        <pt x="535" y="-22" on="1"/>
        <pt x="425" y="-22" on="0"/>
        <pt x="240" y="36" on="0"/>
        <pt x="105" y="143" on="0"/>
        <pt x="30" y="292" on="0"/>
        <pt x="30" y="382" on="1"/>
        <pt x="30" y="463" on="0"/>
        <pt x="103" y="604" on="0"/>
        <pt x="226" y="708" on="0"/>
        <pt x="385" y="768" on="0"/>
        <pt x="471" y="768" on="1"/>
        <pt x="542" y="768" on="0"/>
        <pt x="655" y="740" on="0"/>
        <pt x="742" y="697" on="0"/>
        <pt x="805" y="647" on="0"/>
        <pt x="846" y="602" on="0"/>
        <pt x="867" y="570" on="0"/>
        <pt x="869" y="567" on="1"/>
        <pt x="873" y="559" on="0"/>
        <pt x="873" y="549" on="1"/>
        <pt x="873" y="535" on="0"/>
        <pt x="852" y="511" on="0"/>
        <pt x="835" y="511" on="1"/>
        <pt x="813" y="511" on="0"/>
        <pt x="802" y="531" on="1"/>
        <pt x="801" y="534" on="0"/>
        <pt x="764" y="585" on="0"/>
        <pt x="687" y="645" on="0"/>
        <pt x="565" y="694" on="0"/>
        <pt x="478" y="694" on="1"/>
        <pt x="407" y="694" on="0"/>
        <pt x="272" y="646" on="0"/>
        <pt x="168" y="562" on="0"/>
        <pt x="105" y="447" on="0"/>
        <pt x="105" y="380" on="1"/>
        <pt x="105" y="307" on="0"/>
        <pt x="173" y="186" on="0"/>
        <pt x="290" y="100" on="0"/>
        <pt x="445" y="53" on="0"/>
        <pt x="533" y="53" on="1"/>
        <pt x="567" y="53" on="0"/>
        <pt x="679" y="63" on="0"/>
        <pt x="818" y="99" on="0"/>
        <pt x="972" y="172" on="0"/>
        <pt x="1122" y="298" on="0"/>
        <pt x="1259" y="486" on="0"/>
        <pt x="1311" y="620" on="1"/>
        <pt x="1365" y="758" on="0"/>
        <pt x="1426" y="1007" on="0"/>
        <pt x="1456" y="1207" on="0"/>
        <pt x="1463" y="1348" on="0"/>
        <pt x="1463" y="1378" on="1"/>
        <pt x="1463" y="1398" on="1"/>
        <pt x="1463" y="1414" on="0"/>
        <pt x="1484" y="1437" on="0"/>
        <pt x="1501" y="1437" on="1"/>
        <pt x="1526" y="1437" on="0"/>
        <pt x="1536" y="1412" on="1"/>
        <pt x="1539" y="1405" on="0"/>
        <pt x="1568" y="1325" on="0"/>
        <pt x="1615" y="1198" on="0"/>
        <pt x="1676" y="1032" on="0"/>
        <pt x="1744" y="845" on="0"/>
        <pt x="1816" y="645" on="0"/>
        <pt x="1885" y="451" on="0"/>
        <pt x="1947" y="271" on="0"/>
        <pt x="1972" y="197" on="1"/>
        <pt x="1983" y="277" on="0"/>
        <pt x="2009" y="456" on="0"/>
        <pt x="2038" y="639" on="0"/>
        <pt x="2067" y="815" on="0"/>
        <pt x="2096" y="969" on="0"/>
        <pt x="2120" y="1091" on="0"/>
        <pt x="2130" y="1128" on="1"/>
        <pt x="2152" y="1216" on="0"/>
        <pt x="2234" y="1369" on="0"/>
        <pt x="2351" y="1483" on="0"/>
        <pt x="2502" y="1548" on="0"/>
        <pt x="2594" y="1548" on="1"/>
        <pt x="2629" y="1548" on="0"/>
        <pt x="2660" y="1532" on="0"/>
        <pt x="2660" y="1509" on="1"/>
      </contour>
      <contour>
        <pt x="1571" y="-602" on="1"/>
        <pt x="1650" y="-602" on="0"/>
        <pt x="1766" y="-523" on="0"/>
        <pt x="1849" y="-401" on="0"/>
        <pt x="1902" y="-254" on="0"/>
        <pt x="1934" y="-118" on="0"/>
        <pt x="1948" y="-11" on="0"/>
        <pt x="1951" y="10" on="1"/>
        <pt x="1942" y="46" on="0"/>
        <pt x="1922" y="106" on="1"/>
        <pt x="1812" y="73" on="0"/>
        <pt x="1614" y="-24" on="0"/>
        <pt x="1464" y="-149" on="0"/>
        <pt x="1375" y="-297" on="0"/>
        <pt x="1375" y="-379" on="1"/>
        <pt x="1375" y="-429" on="0"/>
        <pt x="1406" y="-511" on="0"/>
        <pt x="1460" y="-569" on="0"/>
        <pt x="1531" y="-602" on="0"/>
      </contour>
    </TTGlyph>
    <TTGlyph name="Eogonek" xMin="60" yMin="-168" xMax="1638" yMax="1481">
      <contour>
        <pt x="1446" y="-70" on="1"/>
        <pt x="1446" y="-86" on="0"/>
        <pt x="1428" y="-120" on="0"/>
        <pt x="1397" y="-149" on="0"/>
        <pt x="1353" y="-168" on="0"/>
        <pt x="1327" y="-168" on="1"/>
        <pt x="1297" y="-168" on="0"/>
        <pt x="1253" y="-150" on="0"/>
        <pt x="1225" y="-120" on="0"/>
        <pt x="1211" y="-83" on="0"/>
        <pt x="1211" y="-64" on="1"/>
        <pt x="1211" y="-29" on="0"/>
        <pt x="1248" y="31" on="0"/>
        <pt x="1281" y="64" on="1"/>
        <pt x="1246" y="49" on="0"/>
        <pt x="1166" y="18" on="0"/>
        <pt x="1080" y="-10" on="0"/>
        <pt x="993" y="-32" on="0"/>
        <pt x="951" y="-39" on="1"/>
        <pt x="859" y="-54" on="0"/>
        <pt x="758" y="-54" on="1"/>
        <pt x="674" y="-54" on="0"/>
        <pt x="505" y="-31" on="0"/>
        <pt x="350" y="18" on="0"/>
        <pt x="216" y="94" on="0"/>
        <pt x="117" y="198" on="0"/>
        <pt x="60" y="333" on="0"/>
        <pt x="60" y="416" on="1"/>
        <pt x="60" y="563" on="0"/>
        <pt x="223" y="775" on="0"/>
        <pt x="383" y="834" on="1"/>
        <pt x="326" y="887" on="0"/>
        <pt x="270" y="1015" on="0"/>
        <pt x="270" y="1084" on="1"/>
        <pt x="270" y="1170" on="0"/>
        <pt x="349" y="1316" on="0"/>
        <pt x="489" y="1422" on="0"/>
        <pt x="682" y="1481" on="0"/>
        <pt x="797" y="1481" on="1"/>
        <pt x="913" y="1481" on="0"/>
        <pt x="1086" y="1437" on="0"/>
        <pt x="1209" y="1371" on="0"/>
        <pt x="1288" y="1293" on="0"/>
        <pt x="1334" y="1225" on="0"/>
        <pt x="1352" y="1178" on="0"/>
        <pt x="1353" y="1175" on="1"/>
        <pt x="1354" y="1171" on="0"/>
        <pt x="1354" y="1164" on="1"/>
        <pt x="1354" y="1150" on="0"/>
        <pt x="1333" y="1127" on="0"/>
        <pt x="1316" y="1127" on="1"/>
        <pt x="1304" y="1127" on="0"/>
        <pt x="1285" y="1142" on="0"/>
        <pt x="1281" y="1155" on="1"/>
        <pt x="1281" y="1157" on="0"/>
        <pt x="1265" y="1196" on="0"/>
        <pt x="1225" y="1252" on="0"/>
        <pt x="1156" y="1315" on="0"/>
        <pt x="1048" y="1370" on="0"/>
        <pt x="898" y="1406" on="0"/>
        <pt x="797" y="1406" on="1"/>
        <pt x="681" y="1406" on="0"/>
        <pt x="510" y="1348" on="0"/>
        <pt x="399" y="1255" on="0"/>
        <pt x="345" y="1141" on="0"/>
        <pt x="345" y="1086" on="1"/>
        <pt x="345" y="1021" on="0"/>
        <pt x="409" y="903" on="0"/>
        <pt x="469" y="861" on="1"/>
        <pt x="523" y="875" on="0"/>
        <pt x="627" y="891" on="0"/>
        <pt x="719" y="900" on="0"/>
        <pt x="794" y="903" on="0"/>
        <pt x="818" y="903" on="1"/>
        <pt x="862" y="903" on="0"/>
        <pt x="936" y="890" on="0"/>
        <pt x="989" y="865" on="0"/>
        <pt x="1019" y="826" on="0"/>
        <pt x="1019" y="801" on="1"/>
        <pt x="1019" y="776" on="0"/>
        <pt x="989" y="736" on="0"/>
        <pt x="936" y="708" on="0"/>
        <pt x="862" y="693" on="0"/>
        <pt x="818" y="693" on="1"/>
        <pt x="770" y="693" on="0"/>
        <pt x="672" y="705" on="0"/>
        <pt x="579" y="727" on="0"/>
        <pt x="493" y="760" on="0"/>
        <pt x="458" y="781" on="1"/>
        <pt x="299" y="733" on="0"/>
        <pt x="135" y="552" on="0"/>
        <pt x="135" y="419" on="1"/>
        <pt x="135" y="347" on="0"/>
        <pt x="186" y="232" on="0"/>
        <pt x="276" y="144" on="0"/>
        <pt x="397" y="81" on="0"/>
        <pt x="535" y="41" on="0"/>
        <pt x="685" y="22" on="0"/>
        <pt x="759" y="22" on="1"/>
        <pt x="807" y="22" on="0"/>
        <pt x="897" y="29" on="0"/>
        <pt x="939" y="36" on="1"/>
        <pt x="1065" y="56" on="0"/>
        <pt x="1256" y="133" on="0"/>
        <pt x="1395" y="224" on="0"/>
        <pt x="1487" y="319" on="0"/>
        <pt x="1542" y="398" on="0"/>
        <pt x="1565" y="448" on="0"/>
        <pt x="1565" y="449" on="1"/>
        <pt x="1569" y="461" on="0"/>
        <pt x="1588" y="474" on="0"/>
        <pt x="1600" y="474" on="1"/>
        <pt x="1616" y="474" on="0"/>
        <pt x="1638" y="452" on="0"/>
        <pt x="1638" y="437" on="1"/>
        <pt x="1638" y="429" on="0"/>
        <pt x="1636" y="425" on="1"/>
        <pt x="1615" y="373" on="0"/>
        <pt x="1546" y="275" on="0"/>
        <pt x="1467" y="185" on="0"/>
        <pt x="1386" y="104" on="0"/>
        <pt x="1321" y="32" on="0"/>
        <pt x="1280" y="-31" on="0"/>
        <pt x="1280" y="-57" on="1"/>
        <pt x="1280" y="-80" on="0"/>
        <pt x="1305" y="-102" on="0"/>
        <pt x="1325" y="-102" on="1"/>
        <pt x="1350" y="-102" on="0"/>
        <pt x="1376" y="-71" on="0"/>
        <pt x="1383" y="-58" on="1"/>
        <pt x="1394" y="-38" on="0"/>
        <pt x="1415" y="-38" on="1"/>
        <pt x="1429" y="-38" on="0"/>
        <pt x="1446" y="-57" on="0"/>
      </contour>
      <contour>
        <pt x="943" y="800" on="1"/>
        <pt x="943" y="808" on="0"/>
        <pt x="917" y="820" on="0"/>
        <pt x="876" y="827" on="0"/>
        <pt x="824" y="830" on="0"/>
        <pt x="797" y="830" on="1"/>
        <pt x="738" y="830" on="0"/>
        <pt x="632" y="823" on="0"/>
        <pt x="564" y="810" on="1"/>
        <pt x="616" y="791" on="0"/>
        <pt x="751" y="768" on="0"/>
        <pt x="820" y="768" on="1"/>
        <pt x="883" y="768" on="0"/>
        <pt x="943" y="788" on="0"/>
      </contour>
    </TTGlyph>
    <TTGlyph name="Eth" xMin="60" yMin="-27" xMax="2024" yMax="1471">
      <contour>
        <pt x="936" y="1471" on="1"/>
        <pt x="1059" y="1471" on="0"/>
        <pt x="1315" y="1426" on="0"/>
        <pt x="1557" y="1334" on="0"/>
        <pt x="1771" y="1195" on="0"/>
        <pt x="1931" y="1009" on="0"/>
        <pt x="2024" y="775" on="0"/>
        <pt x="2024" y="633" on="1"/>
        <pt x="2024" y="491" on="0"/>
        <pt x="1924" y="249" on="0"/>
        <pt x="1744" y="73" on="0"/>
        <pt x="1494" y="-27" on="0"/>
        <pt x="1344" y="-27" on="1"/>
        <pt x="1273" y="-27" on="0"/>
        <pt x="1121" y="-6" on="0"/>
        <pt x="969" y="38" on="0"/>
        <pt x="822" y="103" on="0"/>
        <pt x="755" y="148" on="1"/>
        <pt x="676" y="70" on="0"/>
        <pt x="469" y="-17" on="0"/>
        <pt x="354" y="-17" on="1"/>
        <pt x="292" y="-17" on="0"/>
        <pt x="184" y="11" on="0"/>
        <pt x="105" y="63" on="0"/>
        <pt x="60" y="137" on="0"/>
        <pt x="60" y="182" on="1"/>
        <pt x="60" y="221" on="0"/>
        <pt x="99" y="289" on="0"/>
        <pt x="170" y="341" on="0"/>
        <pt x="269" y="371" on="0"/>
        <pt x="328" y="371" on="1"/>
        <pt x="502" y="371" on="0"/>
        <pt x="740" y="243" on="1"/>
        <pt x="784" y="298" on="0"/>
        <pt x="812" y="367" on="1"/>
        <pt x="837" y="430" on="0"/>
        <pt x="869" y="559" on="0"/>
        <pt x="880" y="625" on="1"/>
        <pt x="853" y="625" on="0"/>
        <pt x="811" y="625" on="0"/>
        <pt x="770" y="624" on="0"/>
        <pt x="727" y="623" on="0"/>
        <pt x="699" y="623" on="1"/>
        <pt x="685" y="623" on="0"/>
        <pt x="662" y="642" on="0"/>
        <pt x="662" y="657" on="1"/>
        <pt x="662" y="673" on="0"/>
        <pt x="680" y="695" on="0"/>
        <pt x="697" y="695" on="1"/>
        <pt x="893" y="697" on="1"/>
        <pt x="906" y="776" on="0"/>
        <pt x="936" y="927" on="0"/>
        <pt x="987" y="1061" on="0"/>
        <pt x="1069" y="1173" on="0"/>
        <pt x="1135" y="1212" on="1"/>
        <pt x="1145" y="1217" on="0"/>
        <pt x="1153" y="1217" on="1"/>
        <pt x="1167" y="1217" on="0"/>
        <pt x="1192" y="1197" on="0"/>
        <pt x="1192" y="1179" on="1"/>
        <pt x="1192" y="1158" on="0"/>
        <pt x="1173" y="1147" on="1"/>
        <pt x="1120" y="1116" on="0"/>
        <pt x="1053" y="1023" on="0"/>
        <pt x="1009" y="907" on="0"/>
        <pt x="983" y="773" on="0"/>
        <pt x="971" y="700" on="1"/>
        <pt x="971" y="699" on="0"/>
        <pt x="970" y="698" on="0"/>
        <pt x="970" y="697" on="1"/>
        <pt x="1317" y="701" on="1"/>
        <pt x="1333" y="701" on="0"/>
        <pt x="1356" y="683" on="0"/>
        <pt x="1357" y="667" on="1"/>
        <pt x="1357" y="651" on="0"/>
        <pt x="1338" y="629" on="0"/>
        <pt x="1321" y="629" on="1"/>
        <pt x="1188" y="627" on="0"/>
        <pt x="1015" y="626" on="0"/>
        <pt x="958" y="626" on="1"/>
        <pt x="949" y="572" on="0"/>
        <pt x="925" y="460" on="0"/>
        <pt x="890" y="351" on="0"/>
        <pt x="840" y="249" on="0"/>
        <pt x="806" y="205" on="1"/>
        <pt x="808" y="204" on="0"/>
        <pt x="809" y="203" on="0"/>
        <pt x="811" y="202" on="1"/>
        <pt x="938" y="126" on="0"/>
        <pt x="1212" y="48" on="0"/>
        <pt x="1343" y="48" on="1"/>
        <pt x="1485" y="48" on="0"/>
        <pt x="1710" y="142" on="0"/>
        <pt x="1866" y="301" on="0"/>
        <pt x="1948" y="513" on="0"/>
        <pt x="1948" y="631" on="1"/>
        <pt x="1948" y="751" on="0"/>
        <pt x="1868" y="958" on="0"/>
        <pt x="1729" y="1128" on="0"/>
        <pt x="1538" y="1260" on="0"/>
        <pt x="1317" y="1349" on="0"/>
        <pt x="1074" y="1396" on="0"/>
        <pt x="952" y="1396" on="1"/>
        <pt x="788" y="1396" on="0"/>
        <pt x="517" y="1341" on="0"/>
        <pt x="322" y="1235" on="0"/>
        <pt x="214" y="1081" on="0"/>
        <pt x="214" y="983" on="1"/>
        <pt x="214" y="927" on="0"/>
        <pt x="247" y="841" on="0"/>
        <pt x="298" y="778" on="0"/>
        <pt x="358" y="734" on="0"/>
        <pt x="410" y="707" on="0"/>
        <pt x="447" y="695" on="0"/>
        <pt x="450" y="694" on="1"/>
        <pt x="463" y="691" on="0"/>
        <pt x="478" y="670" on="0"/>
        <pt x="478" y="657" on="1"/>
        <pt x="478" y="640" on="0"/>
        <pt x="454" y="622" on="0"/>
        <pt x="440" y="622" on="1"/>
        <pt x="420" y="622" on="0"/>
        <pt x="360" y="641" on="0"/>
        <pt x="293" y="680" on="0"/>
        <pt x="226" y="739" on="0"/>
        <pt x="172" y="819" on="0"/>
        <pt x="139" y="921" on="0"/>
        <pt x="139" y="983" on="1"/>
        <pt x="139" y="1096" on="0"/>
        <pt x="254" y="1277" on="0"/>
        <pt x="464" y="1403" on="0"/>
        <pt x="757" y="1471" on="0"/>
      </contour>
      <contour>
        <pt x="686" y="186" on="1"/>
        <pt x="582" y="241" on="0"/>
        <pt x="404" y="297" on="0"/>
        <pt x="330" y="297" on="1"/>
        <pt x="288" y="297" on="0"/>
        <pt x="217" y="278" on="0"/>
        <pt x="165" y="246" on="0"/>
        <pt x="135" y="204" on="0"/>
        <pt x="135" y="181" on="1"/>
        <pt x="135" y="159" on="0"/>
        <pt x="162" y="115" on="0"/>
        <pt x="217" y="81" on="0"/>
        <pt x="299" y="59" on="0"/>
        <pt x="354" y="59" on="1"/>
        <pt x="448" y="59" on="0"/>
        <pt x="619" y="126" on="0"/>
      </contour>
    </TTGlyph>
    <TTGlyph name="Euro" xMin="60" yMin="315" xMax="1025" yMax="1102">
      <contour>
        <pt x="530" y="623" on="1"/>
        <pt x="530" y="607" on="0"/>
        <pt x="509" y="585" on="0"/>
        <pt x="493" y="585" on="1"/>
        <pt x="268" y="583" on="1"/>
        <pt x="287" y="528" on="0"/>
        <pt x="364" y="454" on="0"/>
        <pt x="460" y="409" on="0"/>
        <pt x="566" y="390" on="0"/>
        <pt x="614" y="390" on="1"/>
        <pt x="671" y="390" on="0"/>
        <pt x="776" y="422" on="0"/>
        <pt x="866" y="474" on="0"/>
        <pt x="935" y="539" on="0"/>
        <pt x="955" y="572" on="1"/>
        <pt x="960" y="581" on="0"/>
        <pt x="978" y="590" on="0"/>
        <pt x="988" y="590" on="1"/>
        <pt x="1005" y="590" on="0"/>
        <pt x="1025" y="566" on="0"/>
        <pt x="1025" y="552" on="1"/>
        <pt x="1025" y="540" on="0"/>
        <pt x="1020" y="533" on="1"/>
        <pt x="991" y="485" on="0"/>
        <pt x="900" y="405" on="0"/>
        <pt x="791" y="347" on="0"/>
        <pt x="671" y="315" on="0"/>
        <pt x="613" y="315" on="1"/>
        <pt x="580" y="315" on="0"/>
        <pt x="502" y="323" on="0"/>
        <pt x="422" y="344" on="0"/>
        <pt x="342" y="378" on="0"/>
        <pt x="307" y="405" on="1"/>
        <pt x="215" y="474" on="0"/>
        <pt x="189" y="582" on="1"/>
        <pt x="98" y="582" on="1"/>
        <pt x="82" y="582" on="0"/>
        <pt x="60" y="604" on="0"/>
        <pt x="60" y="620" on="1"/>
        <pt x="60" y="636" on="0"/>
        <pt x="82" y="658" on="0"/>
        <pt x="98" y="658" on="1"/>
        <pt x="178" y="658" on="1"/>
        <pt x="178" y="681" on="1"/>
        <pt x="178" y="709" on="0"/>
        <pt x="181" y="735" on="1"/>
        <pt x="101" y="735" on="1"/>
        <pt x="85" y="735" on="0"/>
        <pt x="63" y="756" on="0"/>
        <pt x="63" y="772" on="1"/>
        <pt x="63" y="788" on="0"/>
        <pt x="85" y="810" on="0"/>
        <pt x="100" y="810" on="1"/>
        <pt x="199" y="811" on="1"/>
        <pt x="216" y="859" on="0"/>
        <pt x="266" y="930" on="0"/>
        <pt x="292" y="956" on="1"/>
        <pt x="326" y="991" on="0"/>
        <pt x="410" y="1045" on="0"/>
        <pt x="502" y="1083" on="0"/>
        <pt x="600" y="1102" on="0"/>
        <pt x="649" y="1102" on="1"/>
        <pt x="718" y="1102" on="0"/>
        <pt x="839" y="1069" on="0"/>
        <pt x="929" y="1008" on="0"/>
        <pt x="981" y="923" on="0"/>
        <pt x="981" y="872" on="1"/>
        <pt x="981" y="824" on="0"/>
        <pt x="937" y="738" on="0"/>
        <pt x="861" y="673" on="0"/>
        <pt x="758" y="635" on="0"/>
        <pt x="700" y="635" on="1"/>
        <pt x="674" y="635" on="0"/>
        <pt x="650" y="658" on="0"/>
        <pt x="651" y="687" on="0"/>
        <pt x="675" y="710" on="0"/>
        <pt x="699" y="710" on="1"/>
        <pt x="742" y="710" on="0"/>
        <pt x="818" y="737" on="0"/>
        <pt x="874" y="781" on="0"/>
        <pt x="906" y="839" on="0"/>
        <pt x="906" y="871" on="1"/>
        <pt x="906" y="906" on="0"/>
        <pt x="865" y="963" on="0"/>
        <pt x="794" y="1004" on="0"/>
        <pt x="700" y="1026" on="0"/>
        <pt x="648" y="1026" on="1"/>
        <pt x="609" y="1026" on="0"/>
        <pt x="505" y="1003" on="0"/>
        <pt x="399" y="952" on="0"/>
        <pt x="307" y="870" on="0"/>
        <pt x="280" y="811" on="1"/>
        <pt x="551" y="814" on="1"/>
        <pt x="567" y="814" on="0"/>
        <pt x="589" y="793" on="0"/>
        <pt x="589" y="777" on="1"/>
        <pt x="589" y="761" on="0"/>
        <pt x="567" y="739" on="0"/>
        <pt x="552" y="739" on="1"/>
        <pt x="257" y="736" on="1"/>
        <pt x="255" y="722" on="0"/>
        <pt x="253" y="695" on="0"/>
        <pt x="253" y="681" on="1"/>
        <pt x="253" y="675" on="0"/>
        <pt x="253" y="664" on="0"/>
        <pt x="254" y="659" on="1"/>
        <pt x="492" y="660" on="1"/>
        <pt x="507" y="660" on="0"/>
        <pt x="530" y="639" on="0"/>
      </contour>
    </TTGlyph>
    <TTGlyph name="F" xMin="0" yMin="-38" xMax="2516" yMax="1480">
      <contour>
        <pt x="2291" y="1480" on="1"/>
        <pt x="2325" y="1480" on="0"/>
        <pt x="2404" y="1465" on="0"/>
        <pt x="2472" y="1430" on="0"/>
        <pt x="2516" y="1371" on="0"/>
        <pt x="2516" y="1327" on="1"/>
        <pt x="2516" y="1273" on="0"/>
        <pt x="2453" y="1185" on="0"/>
        <pt x="2339" y="1122" on="0"/>
        <pt x="2180" y="1087" on="0"/>
        <pt x="2084" y="1087" on="1"/>
        <pt x="1976" y="1087" on="0"/>
        <pt x="1850" y="1102" on="1"/>
        <pt x="1827" y="1030" on="0"/>
        <pt x="1804" y="852" on="0"/>
        <pt x="1803" y="743" on="1"/>
        <pt x="1841" y="744" on="0"/>
        <pt x="1920" y="745" on="0"/>
        <pt x="1962" y="745" on="1"/>
        <pt x="2018" y="745" on="0"/>
        <pt x="2132" y="742" on="0"/>
        <pt x="2190" y="740" on="1"/>
        <pt x="2207" y="739" on="0"/>
        <pt x="2226" y="716" on="0"/>
        <pt x="2226" y="701" on="1"/>
        <pt x="2226" y="685" on="0"/>
        <pt x="2204" y="665" on="0"/>
        <pt x="2189" y="665" on="1"/>
        <pt x="2132" y="665" on="0"/>
        <pt x="2019" y="669" on="0"/>
        <pt x="1964" y="669" on="1"/>
        <pt x="1922" y="669" on="0"/>
        <pt x="1842" y="668" on="0"/>
        <pt x="1803" y="667" on="1"/>
        <pt x="1803" y="653" on="0"/>
        <pt x="1804" y="627" on="0"/>
        <pt x="1804" y="613" on="1"/>
        <pt x="1804" y="457" on="0"/>
        <pt x="1710" y="214" on="0"/>
        <pt x="1529" y="48" on="0"/>
        <pt x="1265" y="-38" on="0"/>
        <pt x="1094" y="-38" on="1"/>
        <pt x="968" y="-38" on="0"/>
        <pt x="773" y="7" on="0"/>
        <pt x="626" y="81" on="0"/>
        <pt x="521" y="174" on="0"/>
        <pt x="451" y="269" on="0"/>
        <pt x="409" y="358" on="0"/>
        <pt x="399" y="390" on="1"/>
        <pt x="398" y="393" on="0"/>
        <pt x="397" y="398" on="0"/>
        <pt x="397" y="401" on="1"/>
        <pt x="397" y="416" on="0"/>
        <pt x="419" y="439" on="0"/>
        <pt x="436" y="439" on="1"/>
        <pt x="448" y="439" on="0"/>
        <pt x="467" y="425" on="0"/>
        <pt x="471" y="413" on="1"/>
        <pt x="480" y="385" on="0"/>
        <pt x="516" y="307" on="0"/>
        <pt x="579" y="224" on="0"/>
        <pt x="672" y="142" on="0"/>
        <pt x="805" y="78" on="0"/>
        <pt x="980" y="38" on="0"/>
        <pt x="1094" y="38" on="1"/>
        <pt x="1408" y="38" on="0"/>
        <pt x="1729" y="330" on="0"/>
        <pt x="1729" y="615" on="1"/>
        <pt x="1729" y="627" on="0"/>
        <pt x="1728" y="652" on="0"/>
        <pt x="1728" y="664" on="1"/>
        <pt x="1627" y="660" on="0"/>
        <pt x="1457" y="649" on="0"/>
        <pt x="1330" y="638" on="0"/>
        <pt x="1252" y="631" on="0"/>
        <pt x="1243" y="631" on="1"/>
        <pt x="1226" y="631" on="0"/>
        <pt x="1200" y="650" on="0"/>
        <pt x="1200" y="669" on="1"/>
        <pt x="1200" y="683" on="0"/>
        <pt x="1220" y="704" on="0"/>
        <pt x="1234" y="706" on="1"/>
        <pt x="1235" y="706" on="0"/>
        <pt x="1310" y="714" on="0"/>
        <pt x="1442" y="725" on="0"/>
        <pt x="1622" y="736" on="0"/>
        <pt x="1728" y="740" on="1"/>
        <pt x="1730" y="961" on="0"/>
        <pt x="1774" y="1112" on="1"/>
        <pt x="1665" y="1128" on="0"/>
        <pt x="1439" y="1173" on="0"/>
        <pt x="1215" y="1223" on="0"/>
        <pt x="998" y="1272" on="0"/>
        <pt x="798" y="1312" on="0"/>
        <pt x="622" y="1336" on="0"/>
        <pt x="550" y="1336" on="1"/>
        <pt x="449" y="1336" on="0"/>
        <pt x="275" y="1295" on="0"/>
        <pt x="148" y="1217" on="0"/>
        <pt x="75" y="1104" on="0"/>
        <pt x="75" y="1032" on="1"/>
        <pt x="75" y="985" on="0"/>
        <pt x="110" y="910" on="0"/>
        <pt x="154" y="857" on="0"/>
        <pt x="192" y="828" on="0"/>
        <pt x="194" y="827" on="1"/>
        <pt x="203" y="822" on="0"/>
        <pt x="211" y="804" on="0"/>
        <pt x="211" y="795" on="1"/>
        <pt x="211" y="778" on="0"/>
        <pt x="188" y="757" on="0"/>
        <pt x="174" y="757" on="1"/>
        <pt x="163" y="757" on="0"/>
        <pt x="153" y="764" on="1"/>
        <pt x="129" y="780" on="0"/>
        <pt x="75" y="832" on="0"/>
        <pt x="30" y="899" on="0"/>
        <pt x="0" y="983" on="0"/>
        <pt x="0" y="1032" on="1"/>
        <pt x="0" y="1122" on="0"/>
        <pt x="85" y="1262" on="0"/>
        <pt x="233" y="1360" on="0"/>
        <pt x="434" y="1411" on="0"/>
        <pt x="551" y="1411" on="1"/>
        <pt x="620" y="1411" on="0"/>
        <pt x="796" y="1386" on="0"/>
        <pt x="999" y="1346" on="0"/>
        <pt x="1222" y="1296" on="0"/>
        <pt x="1454" y="1245" on="0"/>
        <pt x="1688" y="1199" on="0"/>
        <pt x="1800" y="1183" on="1"/>
        <pt x="1828" y="1261" on="0"/>
        <pt x="1933" y="1374" on="0"/>
        <pt x="2067" y="1446" on="0"/>
        <pt x="2218" y="1480" on="0"/>
      </contour>
      <contour>
        <pt x="2440" y="1329" on="1"/>
        <pt x="2440" y="1353" on="0"/>
        <pt x="2409" y="1382" on="0"/>
        <pt x="2363" y="1399" on="0"/>
        <pt x="2312" y="1405" on="0"/>
        <pt x="2291" y="1405" on="1"/>
        <pt x="2243" y="1405" on="0"/>
        <pt x="2126" y="1385" on="0"/>
        <pt x="2011" y="1333" on="0"/>
        <pt x="1910" y="1243" on="0"/>
        <pt x="1878" y="1173" on="1"/>
        <pt x="1989" y="1161" on="0"/>
        <pt x="2083" y="1161" on="1"/>
        <pt x="2160" y="1161" on="0"/>
        <pt x="2291" y="1186" on="0"/>
        <pt x="2386" y="1230" on="0"/>
        <pt x="2440" y="1292" on="0"/>
      </contour>
    </TTGlyph>
    <TTGlyph name="G" xMin="80" yMin="-770" xMax="1735" yMax="1478">
      <contour>
        <pt x="1735" y="961" on="1"/>
        <pt x="1735" y="946" on="0"/>
        <pt x="1714" y="922" on="0"/>
        <pt x="1698" y="922" on="1"/>
        <pt x="1683" y="922" on="0"/>
        <pt x="1661" y="942" on="0"/>
        <pt x="1659" y="959" on="1"/>
        <pt x="1658" y="963" on="0"/>
        <pt x="1651" y="1031" on="0"/>
        <pt x="1618" y="1130" on="0"/>
        <pt x="1550" y="1243" on="0"/>
        <pt x="1431" y="1339" on="0"/>
        <pt x="1249" y="1403" on="0"/>
        <pt x="1119" y="1403" on="1"/>
        <pt x="1004" y="1403" on="0"/>
        <pt x="771" y="1334" on="0"/>
        <pt x="557" y="1209" on="0"/>
        <pt x="371" y="1036" on="0"/>
        <pt x="234" y="828" on="0"/>
        <pt x="155" y="592" on="0"/>
        <pt x="155" y="467" on="1"/>
        <pt x="155" y="354" on="0"/>
        <pt x="217" y="193" on="0"/>
        <pt x="327" y="91" on="0"/>
        <pt x="476" y="44" on="0"/>
        <pt x="562" y="44" on="1"/>
        <pt x="711" y="44" on="0"/>
        <pt x="970" y="147" on="0"/>
        <pt x="1191" y="322" on="0"/>
        <pt x="1373" y="555" on="0"/>
        <pt x="1445" y="684" on="1"/>
        <pt x="1453" y="806" on="0"/>
        <pt x="1494" y="935" on="0"/>
        <pt x="1535" y="935" on="1"/>
        <pt x="1558" y="935" on="0"/>
        <pt x="1589" y="897" on="0"/>
        <pt x="1589" y="867" on="1"/>
        <pt x="1589" y="834" on="0"/>
        <pt x="1555" y="732" on="0"/>
        <pt x="1520" y="665" on="1"/>
        <pt x="1517" y="618" on="0"/>
        <pt x="1517" y="564" on="1"/>
        <pt x="1517" y="485" on="0"/>
        <pt x="1530" y="297" on="0"/>
        <pt x="1544" y="191" on="1"/>
        <pt x="1586" y="212" on="0"/>
        <pt x="1633" y="231" on="0"/>
        <pt x="1655" y="238" on="0"/>
        <pt x="1661" y="237" on="0"/>
        <pt x="1663" y="237" on="1"/>
        <pt x="1678" y="237" on="0"/>
        <pt x="1701" y="216" on="0"/>
        <pt x="1701" y="199" on="1"/>
        <pt x="1701" y="187" on="0"/>
        <pt x="1687" y="168" on="0"/>
        <pt x="1675" y="164" on="1"/>
        <pt x="1673" y="163" on="0"/>
        <pt x="1608" y="138" on="0"/>
        <pt x="1554" y="111" on="1"/>
        <pt x="1559" y="57" on="0"/>
        <pt x="1565" y="-53" on="0"/>
        <pt x="1565" y="-109" on="1"/>
        <pt x="1565" y="-241" on="0"/>
        <pt x="1527" y="-481" on="0"/>
        <pt x="1440" y="-663" on="0"/>
        <pt x="1296" y="-770" on="0"/>
        <pt x="1191" y="-770" on="1"/>
        <pt x="1139" y="-770" on="0"/>
        <pt x="1051" y="-734" on="0"/>
        <pt x="987" y="-670" on="0"/>
        <pt x="951" y="-581" on="0"/>
        <pt x="951" y="-528" on="1"/>
        <pt x="951" y="-453" on="0"/>
        <pt x="1002" y="-307" on="0"/>
        <pt x="1087" y="-171" on="0"/>
        <pt x="1197" y="-50" on="0"/>
        <pt x="1313" y="52" on="0"/>
        <pt x="1426" y="130" on="0"/>
        <pt x="1473" y="154" on="1"/>
        <pt x="1460" y="254" on="0"/>
        <pt x="1444" y="447" on="0"/>
        <pt x="1442" y="538" on="1"/>
        <pt x="1355" y="399" on="0"/>
        <pt x="1146" y="187" on="0"/>
        <pt x="918" y="43" on="0"/>
        <pt x="677" y="-30" on="0"/>
        <pt x="558" y="-30" on="1"/>
        <pt x="450" y="-30" on="0"/>
        <pt x="274" y="35" on="0"/>
        <pt x="148" y="161" on="0"/>
        <pt x="80" y="347" on="0"/>
        <pt x="80" y="468" on="1"/>
        <pt x="80" y="596" on="0"/>
        <pt x="160" y="845" on="0"/>
        <pt x="302" y="1070" on="0"/>
        <pt x="497" y="1260" on="0"/>
        <pt x="728" y="1399" on="0"/>
        <pt x="985" y="1478" on="0"/>
        <pt x="1119" y="1478" on="1"/>
        <pt x="1248" y="1478" on="0"/>
        <pt x="1438" y="1419" on="0"/>
        <pt x="1571" y="1328" on="0"/>
        <pt x="1654" y="1221" on="0"/>
        <pt x="1678" y="1173" on="1"/>
        <pt x="1698" y="1132" on="0"/>
        <pt x="1721" y="1056" on="0"/>
        <pt x="1732" y="998" on="0"/>
        <pt x="1735" y="962" on="0"/>
      </contour>
      <contour>
        <pt x="1482" y="71" on="1"/>
        <pt x="1432" y="43" on="0"/>
        <pt x="1325" y="-34" on="0"/>
        <pt x="1224" y="-126" on="0"/>
        <pt x="1134" y="-232" on="0"/>
        <pt x="1066" y="-346" on="0"/>
        <pt x="1027" y="-467" on="0"/>
        <pt x="1027" y="-528" on="1"/>
        <pt x="1027" y="-566" on="0"/>
        <pt x="1051" y="-627" on="0"/>
        <pt x="1095" y="-670" on="0"/>
        <pt x="1155" y="-694" on="0"/>
        <pt x="1191" y="-694" on="1"/>
        <pt x="1332" y="-694" on="0"/>
        <pt x="1490" y="-395" on="0"/>
        <pt x="1490" y="-108" on="1"/>
        <pt x="1490" y="-65" on="0"/>
        <pt x="1486" y="24" on="0"/>
      </contour>
    </TTGlyph>
    <TTGlyph name="Gbreve" xMin="80" yMin="-770" xMax="1735" yMax="1756">
      <component glyphName="G" x="0" y="0" flags="0x204"/>
      <component glyphName="breve" x="879" y="977" flags="0x4"/>
    </TTGlyph>
    <TTGlyph name="Gcircumflex" xMin="80" yMin="-770" xMax="1735" yMax="1779">
      <component glyphName="G" x="0" y="0" flags="0x204"/>
      <component glyphName="circumflex" x="879" y="977" flags="0x4"/>
    </TTGlyph>
    <TTGlyph name="Gcommaaccent" xMin="80" yMin="-770" xMax="1735" yMax="1478">
      <component glyphName="G" x="0" y="0" flags="0x204"/>
      <component glyphName="commaaccent" x="332" y="-106" flags="0x4"/>
    </TTGlyph>
    <TTGlyph name="Gdotaccent" xMin="80" yMin="-770" xMax="1735" yMax="1706">
      <component glyphName="G" x="0" y="0" flags="0x204"/>
      <component glyphName="dotaccent" x="881" y="977" flags="0x4"/>
    </TTGlyph>
    <TTGlyph name="H" xMin="0" yMin="-71" xMax="2525" yMax="1523">
      <contour>
        <pt x="1519" y="1451" on="1"/>
        <pt x="1519" y="1416" on="0"/>
        <pt x="1481" y="1348" on="0"/>
        <pt x="1421" y="1290" on="0"/>
        <pt x="1346" y="1243" on="0"/>
        <pt x="1309" y="1228" on="1"/>
        <pt x="1299" y="1186" on="0"/>
        <pt x="1287" y="1083" on="0"/>
        <pt x="1285" y="1020" on="1"/>
        <pt x="1283" y="942" on="0"/>
        <pt x="1275" y="788" on="0"/>
        <pt x="1267" y="712" on="1"/>
        <pt x="1348" y="715" on="0"/>
        <pt x="1540" y="722" on="0"/>
        <pt x="1750" y="728" on="0"/>
        <pt x="1971" y="732" on="0"/>
        <pt x="2081" y="732" on="1"/>
        <pt x="2089" y="892" on="0"/>
        <pt x="2143" y="1140" on="0"/>
        <pt x="2230" y="1310" on="0"/>
        <pt x="2348" y="1398" on="0"/>
        <pt x="2420" y="1398" on="1"/>
        <pt x="2432" y="1398" on="0"/>
        <pt x="2467" y="1394" on="0"/>
        <pt x="2501" y="1383" on="0"/>
        <pt x="2525" y="1362" on="0"/>
        <pt x="2525" y="1344" on="1"/>
        <pt x="2525" y="1339" on="0"/>
        <pt x="2523" y="1330" on="0"/>
        <pt x="2520" y="1325" on="1"/>
        <pt x="2509" y="1307" on="0"/>
        <pt x="2490" y="1307" on="1"/>
        <pt x="2482" y="1307" on="0"/>
        <pt x="2473" y="1312" on="0"/>
        <pt x="2460" y="1317" on="0"/>
        <pt x="2440" y="1322" on="0"/>
        <pt x="2422" y="1322" on="1"/>
        <pt x="2407" y="1322" on="0"/>
        <pt x="2360" y="1311" on="0"/>
        <pt x="2306" y="1271" on="0"/>
        <pt x="2249" y="1194" on="0"/>
        <pt x="2200" y="1063" on="0"/>
        <pt x="2163" y="869" on="0"/>
        <pt x="2157" y="732" on="1"/>
        <pt x="2223" y="731" on="0"/>
        <pt x="2351" y="729" on="0"/>
        <pt x="2413" y="727" on="1"/>
        <pt x="2430" y="727" on="0"/>
        <pt x="2449" y="704" on="0"/>
        <pt x="2449" y="688" on="1"/>
        <pt x="2449" y="672" on="0"/>
        <pt x="2427" y="652" on="0"/>
        <pt x="2412" y="652" on="1"/>
        <pt x="2392" y="652" on="0"/>
        <pt x="2349" y="653" on="0"/>
        <pt x="2290" y="655" on="0"/>
        <pt x="2210" y="657" on="0"/>
        <pt x="2155" y="657" on="1"/>
        <pt x="2154" y="641" on="0"/>
        <pt x="2154" y="609" on="0"/>
        <pt x="2154" y="592" on="1"/>
        <pt x="2154" y="482" on="0"/>
        <pt x="2171" y="308" on="0"/>
        <pt x="2196" y="174" on="0"/>
        <pt x="2226" y="79" on="0"/>
        <pt x="2252" y="18" on="0"/>
        <pt x="2269" y="-11" on="0"/>
        <pt x="2269" y="-11" on="1"/>
        <pt x="2276" y="-21" on="0"/>
        <pt x="2276" y="-33" on="1"/>
        <pt x="2276" y="-48" on="0"/>
        <pt x="2254" y="-71" on="0"/>
        <pt x="2238" y="-71" on="1"/>
        <pt x="2219" y="-71" on="0"/>
        <pt x="2208" y="-55" on="1"/>
        <pt x="2206" y="-52" on="0"/>
        <pt x="2165" y="20" on="0"/>
        <pt x="2117" y="175" on="0"/>
        <pt x="2078" y="418" on="0"/>
        <pt x="2078" y="592" on="1"/>
        <pt x="2078" y="657" on="1"/>
        <pt x="1967" y="657" on="0"/>
        <pt x="1743" y="653" on="0"/>
        <pt x="1532" y="647" on="0"/>
        <pt x="1339" y="640" on="0"/>
        <pt x="1258" y="637" on="1"/>
        <pt x="1239" y="498" on="0"/>
        <pt x="1160" y="252" on="0"/>
        <pt x="1013" y="67" on="0"/>
        <pt x="785" y="-40" on="0"/>
        <pt x="618" y="-40" on="1"/>
        <pt x="530" y="-40" on="0"/>
        <pt x="365" y="-3" on="0"/>
        <pt x="223" y="64" on="0"/>
        <pt x="109" y="158" on="0"/>
        <pt x="73" y="214" on="1"/>
        <pt x="67" y="223" on="0"/>
        <pt x="67" y="234" on="1"/>
        <pt x="67" y="249" on="0"/>
        <pt x="88" y="272" on="0"/>
        <pt x="105" y="272" on="1"/>
        <pt x="114" y="272" on="0"/>
        <pt x="132" y="263" on="0"/>
        <pt x="137" y="255" on="1"/>
        <pt x="168" y="206" on="0"/>
        <pt x="267" y="126" on="0"/>
        <pt x="393" y="68" on="0"/>
        <pt x="540" y="36" on="0"/>
        <pt x="619" y="36" on="1"/>
        <pt x="766" y="36" on="0"/>
        <pt x="966" y="129" on="0"/>
        <pt x="1093" y="291" on="0"/>
        <pt x="1162" y="508" on="0"/>
        <pt x="1179" y="633" on="1"/>
        <pt x="1083" y="628" on="0"/>
        <pt x="971" y="622" on="0"/>
        <pt x="969" y="622" on="1"/>
        <pt x="954" y="622" on="0"/>
        <pt x="929" y="641" on="0"/>
        <pt x="929" y="658" on="1"/>
        <pt x="929" y="674" on="0"/>
        <pt x="948" y="696" on="0"/>
        <pt x="964" y="698" on="1"/>
        <pt x="966" y="698" on="0"/>
        <pt x="1086" y="704" on="0"/>
        <pt x="1188" y="709" on="1"/>
        <pt x="1196" y="786" on="0"/>
        <pt x="1205" y="943" on="0"/>
        <pt x="1209" y="1023" on="1"/>
        <pt x="1211" y="1074" on="0"/>
        <pt x="1222" y="1169" on="0"/>
        <pt x="1230" y="1208" on="1"/>
        <pt x="1207" y="1203" on="0"/>
        <pt x="1150" y="1196" on="0"/>
        <pt x="1122" y="1196" on="1"/>
        <pt x="1034" y="1196" on="0"/>
        <pt x="864" y="1224" on="0"/>
        <pt x="693" y="1257" on="0"/>
        <pt x="520" y="1285" on="0"/>
        <pt x="430" y="1285" on="1"/>
        <pt x="356" y="1285" on="0"/>
        <pt x="227" y="1254" on="0"/>
        <pt x="131" y="1190" on="0"/>
        <pt x="76" y="1093" on="0"/>
        <pt x="76" y="1027" on="1"/>
        <pt x="76" y="985" on="0"/>
        <pt x="106" y="921" on="0"/>
        <pt x="144" y="877" on="0"/>
        <pt x="179" y="852" on="0"/>
        <pt x="184" y="849" on="1"/>
        <pt x="202" y="836" on="0"/>
        <pt x="202" y="816" on="1"/>
        <pt x="202" y="800" on="0"/>
        <pt x="182" y="779" on="0"/>
        <pt x="167" y="779" on="1"/>
        <pt x="160" y="779" on="0"/>
        <pt x="147" y="784" on="0"/>
        <pt x="142" y="787" on="1"/>
        <pt x="119" y="801" on="0"/>
        <pt x="69" y="845" on="0"/>
        <pt x="27" y="906" on="0"/>
        <pt x="0" y="982" on="0"/>
        <pt x="0" y="1027" on="1"/>
        <pt x="0" y="1115" on="0"/>
        <pt x="77" y="1242" on="0"/>
        <pt x="201" y="1323" on="0"/>
        <pt x="354" y="1361" on="0"/>
        <pt x="431" y="1361" on="1"/>
        <pt x="518" y="1361" on="0"/>
        <pt x="689" y="1332" on="0"/>
        <pt x="861" y="1298" on="0"/>
        <pt x="1034" y="1269" on="0"/>
        <pt x="1124" y="1269" on="1"/>
        <pt x="1160" y="1269" on="0"/>
        <pt x="1218" y="1274" on="0"/>
        <pt x="1244" y="1282" on="1"/>
        <pt x="1262" y="1345" on="0"/>
        <pt x="1309" y="1436" on="0"/>
        <pt x="1362" y="1495" on="0"/>
        <pt x="1416" y="1523" on="0"/>
        <pt x="1441" y="1523" on="1"/>
        <pt x="1474" y="1523" on="0"/>
        <pt x="1519" y="1483" on="0"/>
      </contour>
      <contour>
        <pt x="1436" y="1452" on="1"/>
        <pt x="1428" y="1452" on="0"/>
        <pt x="1401" y="1435" on="0"/>
        <pt x="1369" y="1400" on="0"/>
        <pt x="1337" y="1346" on="0"/>
        <pt x="1325" y="1309" on="1"/>
        <pt x="1358" y="1324" on="0"/>
        <pt x="1408" y="1372" on="0"/>
        <pt x="1438" y="1419" on="0"/>
        <pt x="1446" y="1452" on="0"/>
      </contour>
    </TTGlyph>
    <TTGlyph name="Hbar" xMin="0" yMin="-71" xMax="2525" yMax="1523">
      <contour>
        <pt x="1519" y="1451" on="1"/>
        <pt x="1519" y="1416" on="0"/>
        <pt x="1481" y="1348" on="0"/>
        <pt x="1421" y="1290" on="0"/>
        <pt x="1346" y="1243" on="0"/>
        <pt x="1309" y="1228" on="1"/>
        <pt x="1299" y="1186" on="0"/>
        <pt x="1287" y="1083" on="0"/>
        <pt x="1285" y="1020" on="1"/>
        <pt x="1284" y="1007" on="0"/>
        <pt x="1284" y="982" on="0"/>
        <pt x="1283" y="969" on="1"/>
        <pt x="2108" y="973" on="1"/>
        <pt x="2145" y="1180" on="0"/>
        <pt x="2305" y="1398" on="0"/>
        <pt x="2420" y="1398" on="1"/>
        <pt x="2432" y="1398" on="0"/>
        <pt x="2467" y="1394" on="0"/>
        <pt x="2501" y="1383" on="0"/>
        <pt x="2525" y="1362" on="0"/>
        <pt x="2525" y="1344" on="1"/>
        <pt x="2525" y="1339" on="0"/>
        <pt x="2523" y="1330" on="0"/>
        <pt x="2520" y="1325" on="1"/>
        <pt x="2509" y="1307" on="0"/>
        <pt x="2490" y="1307" on="1"/>
        <pt x="2482" y="1307" on="0"/>
        <pt x="2473" y="1312" on="0"/>
        <pt x="2460" y="1317" on="0"/>
        <pt x="2440" y="1322" on="0"/>
        <pt x="2422" y="1322" on="1"/>
        <pt x="2410" y="1322" on="0"/>
        <pt x="2373" y="1315" on="0"/>
        <pt x="2330" y="1290" on="0"/>
        <pt x="2283" y="1244" on="0"/>
        <pt x="2238" y="1166" on="0"/>
        <pt x="2198" y="1053" on="0"/>
        <pt x="2183" y="973" on="1"/>
        <pt x="2346" y="974" on="1"/>
        <pt x="2362" y="974" on="0"/>
        <pt x="2385" y="956" on="0"/>
        <pt x="2386" y="940" on="1"/>
        <pt x="2386" y="924" on="0"/>
        <pt x="2367" y="902" on="0"/>
        <pt x="2350" y="902" on="1"/>
        <pt x="2307" y="901" on="0"/>
        <pt x="2218" y="901" on="0"/>
        <pt x="2172" y="900" on="1"/>
        <pt x="2161" y="825" on="0"/>
        <pt x="2157" y="732" on="1"/>
        <pt x="2223" y="731" on="0"/>
        <pt x="2351" y="729" on="0"/>
        <pt x="2413" y="727" on="1"/>
        <pt x="2430" y="727" on="0"/>
        <pt x="2449" y="704" on="0"/>
        <pt x="2449" y="688" on="1"/>
        <pt x="2449" y="672" on="0"/>
        <pt x="2427" y="652" on="0"/>
        <pt x="2412" y="652" on="1"/>
        <pt x="2392" y="652" on="0"/>
        <pt x="2349" y="653" on="0"/>
        <pt x="2290" y="655" on="0"/>
        <pt x="2210" y="657" on="0"/>
        <pt x="2155" y="657" on="1"/>
        <pt x="2154" y="641" on="0"/>
        <pt x="2154" y="609" on="0"/>
        <pt x="2154" y="592" on="1"/>
        <pt x="2154" y="482" on="0"/>
        <pt x="2171" y="308" on="0"/>
        <pt x="2196" y="174" on="0"/>
        <pt x="2226" y="79" on="0"/>
        <pt x="2252" y="18" on="0"/>
        <pt x="2269" y="-11" on="0"/>
        <pt x="2269" y="-11" on="1"/>
        <pt x="2276" y="-21" on="0"/>
        <pt x="2276" y="-33" on="1"/>
        <pt x="2276" y="-48" on="0"/>
        <pt x="2254" y="-71" on="0"/>
        <pt x="2238" y="-71" on="1"/>
        <pt x="2219" y="-71" on="0"/>
        <pt x="2208" y="-55" on="1"/>
        <pt x="2206" y="-52" on="0"/>
        <pt x="2165" y="20" on="0"/>
        <pt x="2117" y="175" on="0"/>
        <pt x="2078" y="418" on="0"/>
        <pt x="2078" y="592" on="1"/>
        <pt x="2078" y="657" on="1"/>
        <pt x="1967" y="657" on="0"/>
        <pt x="1743" y="653" on="0"/>
        <pt x="1532" y="647" on="0"/>
        <pt x="1339" y="640" on="0"/>
        <pt x="1258" y="637" on="1"/>
        <pt x="1239" y="498" on="0"/>
        <pt x="1160" y="252" on="0"/>
        <pt x="1013" y="67" on="0"/>
        <pt x="785" y="-40" on="0"/>
        <pt x="618" y="-40" on="1"/>
        <pt x="530" y="-40" on="0"/>
        <pt x="365" y="-3" on="0"/>
        <pt x="223" y="64" on="0"/>
        <pt x="109" y="158" on="0"/>
        <pt x="73" y="214" on="1"/>
        <pt x="67" y="223" on="0"/>
        <pt x="67" y="234" on="1"/>
        <pt x="67" y="249" on="0"/>
        <pt x="88" y="272" on="0"/>
        <pt x="105" y="272" on="1"/>
        <pt x="114" y="272" on="0"/>
        <pt x="132" y="263" on="0"/>
        <pt x="137" y="255" on="1"/>
        <pt x="168" y="206" on="0"/>
        <pt x="267" y="126" on="0"/>
        <pt x="393" y="68" on="0"/>
        <pt x="540" y="36" on="0"/>
        <pt x="619" y="36" on="1"/>
        <pt x="766" y="36" on="0"/>
        <pt x="966" y="129" on="0"/>
        <pt x="1093" y="291" on="0"/>
        <pt x="1162" y="508" on="0"/>
        <pt x="1179" y="633" on="1"/>
        <pt x="1083" y="628" on="0"/>
        <pt x="971" y="622" on="0"/>
        <pt x="969" y="622" on="1"/>
        <pt x="954" y="622" on="0"/>
        <pt x="929" y="641" on="0"/>
        <pt x="929" y="658" on="1"/>
        <pt x="929" y="674" on="0"/>
        <pt x="948" y="696" on="0"/>
        <pt x="964" y="698" on="1"/>
        <pt x="966" y="698" on="0"/>
        <pt x="1086" y="704" on="0"/>
        <pt x="1188" y="709" on="1"/>
        <pt x="1193" y="756" on="0"/>
        <pt x="1200" y="849" on="0"/>
        <pt x="1202" y="897" on="1"/>
        <pt x="1142" y="897" on="0"/>
        <pt x="1049" y="896" on="0"/>
        <pt x="1023" y="896" on="1"/>
        <pt x="1009" y="896" on="0"/>
        <pt x="986" y="915" on="0"/>
        <pt x="986" y="930" on="1"/>
        <pt x="986" y="946" on="0"/>
        <pt x="1004" y="968" on="0"/>
        <pt x="1021" y="968" on="1"/>
        <pt x="1206" y="969" on="1"/>
        <pt x="1209" y="1023" on="1"/>
        <pt x="1211" y="1074" on="0"/>
        <pt x="1222" y="1169" on="0"/>
        <pt x="1230" y="1208" on="1"/>
        <pt x="1207" y="1203" on="0"/>
        <pt x="1150" y="1196" on="0"/>
        <pt x="1122" y="1196" on="1"/>
        <pt x="1034" y="1196" on="0"/>
        <pt x="864" y="1224" on="0"/>
        <pt x="693" y="1257" on="0"/>
        <pt x="520" y="1285" on="0"/>
        <pt x="430" y="1285" on="1"/>
        <pt x="356" y="1285" on="0"/>
        <pt x="227" y="1254" on="0"/>
        <pt x="131" y="1190" on="0"/>
        <pt x="76" y="1093" on="0"/>
        <pt x="76" y="1027" on="1"/>
        <pt x="76" y="985" on="0"/>
        <pt x="106" y="921" on="0"/>
        <pt x="144" y="877" on="0"/>
        <pt x="179" y="852" on="0"/>
        <pt x="184" y="849" on="1"/>
        <pt x="202" y="836" on="0"/>
        <pt x="202" y="816" on="1"/>
        <pt x="202" y="800" on="0"/>
        <pt x="182" y="779" on="0"/>
        <pt x="167" y="779" on="1"/>
        <pt x="160" y="779" on="0"/>
        <pt x="147" y="784" on="0"/>
        <pt x="142" y="787" on="1"/>
        <pt x="119" y="801" on="0"/>
        <pt x="69" y="845" on="0"/>
        <pt x="27" y="906" on="0"/>
        <pt x="0" y="982" on="0"/>
        <pt x="0" y="1027" on="1"/>
        <pt x="0" y="1115" on="0"/>
        <pt x="77" y="1242" on="0"/>
        <pt x="201" y="1323" on="0"/>
        <pt x="354" y="1361" on="0"/>
        <pt x="431" y="1361" on="1"/>
        <pt x="518" y="1361" on="0"/>
        <pt x="689" y="1332" on="0"/>
        <pt x="861" y="1298" on="0"/>
        <pt x="1034" y="1269" on="0"/>
        <pt x="1124" y="1269" on="1"/>
        <pt x="1160" y="1269" on="0"/>
        <pt x="1218" y="1274" on="0"/>
        <pt x="1244" y="1282" on="1"/>
        <pt x="1262" y="1345" on="0"/>
        <pt x="1309" y="1436" on="0"/>
        <pt x="1362" y="1495" on="0"/>
        <pt x="1416" y="1523" on="0"/>
        <pt x="1441" y="1523" on="1"/>
        <pt x="1474" y="1523" on="0"/>
        <pt x="1519" y="1483" on="0"/>
      </contour>
      <contour>
        <pt x="2081" y="732" on="1"/>
        <pt x="2086" y="823" on="0"/>
        <pt x="2096" y="900" on="1"/>
        <pt x="1988" y="899" on="0"/>
        <pt x="1768" y="898" on="0"/>
        <pt x="1557" y="898" on="0"/>
        <pt x="1362" y="897" on="0"/>
        <pt x="1280" y="897" on="1"/>
        <pt x="1278" y="850" on="0"/>
        <pt x="1272" y="758" on="0"/>
        <pt x="1267" y="712" on="1"/>
        <pt x="1348" y="715" on="0"/>
        <pt x="1540" y="722" on="0"/>
        <pt x="1750" y="728" on="0"/>
        <pt x="1971" y="732" on="0"/>
      </contour>
      <contour>
        <pt x="1436" y="1452" on="1"/>
        <pt x="1428" y="1452" on="0"/>
        <pt x="1401" y="1435" on="0"/>
        <pt x="1369" y="1400" on="0"/>
        <pt x="1337" y="1346" on="0"/>
        <pt x="1325" y="1309" on="1"/>
        <pt x="1358" y="1324" on="0"/>
        <pt x="1408" y="1372" on="0"/>
        <pt x="1438" y="1419" on="0"/>
        <pt x="1446" y="1452" on="0"/>
      </contour>
    </TTGlyph>
    <TTGlyph name="Hcircumflex" xMin="0" yMin="-71" xMax="2525" yMax="1794">
      <component glyphName="H" x="0" y="0" flags="0x204"/>
      <component glyphName="circumflex" x="1620" y="992" flags="0x4"/>
    </TTGlyph>
    <TTGlyph name="I" xMin="5" yMin="-70" xMax="1330" yMax="1550">
      <contour>
        <pt x="1270" y="1550" on="1"/>
        <pt x="1294" y="1550" on="0"/>
        <pt x="1330" y="1508" on="0"/>
        <pt x="1330" y="1477" on="1"/>
        <pt x="1330" y="1435" on="0"/>
        <pt x="1263" y="1332" on="0"/>
        <pt x="1200" y="1276" on="1"/>
        <pt x="1189" y="1220" on="0"/>
        <pt x="1173" y="1077" on="0"/>
        <pt x="1173" y="986" on="1"/>
        <pt x="1173" y="846" on="0"/>
        <pt x="1155" y="580" on="0"/>
        <pt x="1105" y="346" on="0"/>
        <pt x="1014" y="150" on="0"/>
        <pt x="867" y="9" on="0"/>
        <pt x="657" y="-70" on="0"/>
        <pt x="513" y="-70" on="1"/>
        <pt x="393" y="-70" on="0"/>
        <pt x="205" y="-14" on="0"/>
        <pt x="74" y="85" on="0"/>
        <pt x="5" y="218" on="0"/>
        <pt x="5" y="296" on="1"/>
        <pt x="5" y="374" on="0"/>
        <pt x="71" y="507" on="0"/>
        <pt x="183" y="606" on="0"/>
        <pt x="332" y="662" on="0"/>
        <pt x="416" y="662" on="1"/>
        <pt x="429" y="662" on="0"/>
        <pt x="456" y="661" on="0"/>
        <pt x="478" y="654" on="0"/>
        <pt x="493" y="637" on="0"/>
        <pt x="493" y="622" on="1"/>
        <pt x="493" y="606" on="0"/>
        <pt x="470" y="585" on="0"/>
        <pt x="455" y="585" on="1"/>
        <pt x="445" y="585" on="0"/>
        <pt x="426" y="586" on="0"/>
        <pt x="416" y="586" on="1"/>
        <pt x="348" y="586" on="0"/>
        <pt x="226" y="542" on="0"/>
        <pt x="134" y="464" on="0"/>
        <pt x="80" y="358" on="0"/>
        <pt x="80" y="296" on="1"/>
        <pt x="80" y="241" on="0"/>
        <pt x="120" y="155" on="0"/>
        <pt x="188" y="90" on="0"/>
        <pt x="277" y="44" on="0"/>
        <pt x="375" y="16" on="0"/>
        <pt x="476" y="3" on="0"/>
        <pt x="522" y="3" on="1"/>
        <pt x="649" y="3" on="0"/>
        <pt x="833" y="75" on="0"/>
        <pt x="960" y="205" on="0"/>
        <pt x="1038" y="386" on="0"/>
        <pt x="1082" y="605" on="0"/>
        <pt x="1097" y="854" on="0"/>
        <pt x="1098" y="987" on="1"/>
        <pt x="1099" y="1051" on="0"/>
        <pt x="1107" y="1174" on="0"/>
        <pt x="1114" y="1224" on="1"/>
        <pt x="1074" y="1203" on="0"/>
        <pt x="978" y="1163" on="0"/>
        <pt x="881" y="1120" on="0"/>
        <pt x="789" y="1071" on="0"/>
        <pt x="718" y="1012" on="0"/>
        <pt x="675" y="939" on="0"/>
        <pt x="675" y="894" on="1"/>
        <pt x="675" y="853" on="0"/>
        <pt x="703" y="792" on="0"/>
        <pt x="745" y="750" on="0"/>
        <pt x="795" y="723" on="0"/>
        <pt x="838" y="708" on="0"/>
        <pt x="869" y="701" on="0"/>
        <pt x="871" y="701" on="1"/>
        <pt x="888" y="696" on="0"/>
        <pt x="900" y="679" on="0"/>
        <pt x="900" y="667" on="1"/>
        <pt x="900" y="650" on="0"/>
        <pt x="880" y="629" on="0"/>
        <pt x="865" y="629" on="1"/>
        <pt x="863" y="629" on="0"/>
        <pt x="850" y="630" on="0"/>
        <pt x="848" y="631" on="1"/>
        <pt x="815" y="638" on="0"/>
        <pt x="729" y="673" on="0"/>
        <pt x="652" y="736" on="0"/>
        <pt x="599" y="832" on="0"/>
        <pt x="599" y="901" on="1"/>
        <pt x="599" y="962" on="0"/>
        <pt x="659" y="1056" on="0"/>
        <pt x="756" y="1130" on="0"/>
        <pt x="875" y="1188" on="0"/>
        <pt x="993" y="1239" on="0"/>
        <pt x="1097" y="1287" on="0"/>
        <pt x="1130" y="1315" on="1"/>
        <pt x="1158" y="1436" on="0"/>
        <pt x="1232" y="1550" on="0"/>
      </contour>
    </TTGlyph>
    <TTGlyph name="IJ" xMin="5" yMin="-701" xMax="2487" yMax="1603">
      <component glyphName="I" x="0" y="0" flags="0x4"/>
      <component glyphName="J" x="1300" y="0" flags="0x4"/>
    </TTGlyph>
    <TTGlyph name="Iacute" xMin="5" yMin="-70" xMax="1425" yMax="1848">
      <component glyphName="I" x="0" y="0" flags="0x204"/>
      <component glyphName="acute" x="1062" y="1046" flags="0x4"/>
    </TTGlyph>
    <TTGlyph name="Ibreve" xMin="5" yMin="-70" xMax="1411" yMax="1825">
      <component glyphName="I" x="0" y="0" flags="0x204"/>
      <component glyphName="breve" x="1018" y="1046" flags="0x4"/>
    </TTGlyph>
    <TTGlyph name="Icircumflex" xMin="5" yMin="-70" xMax="1411" yMax="1848">
      <component glyphName="I" x="0" y="0" flags="0x204"/>
      <component glyphName="circumflex" x="1018" y="1046" flags="0x4"/>
    </TTGlyph>
    <TTGlyph name="Idieresis" xMin="5" yMin="-70" xMax="1415" yMax="1772">
      <component glyphName="I" x="0" y="0" flags="0x204"/>
      <component glyphName="dieresis" x="1020" y="1046" flags="0x4"/>
    </TTGlyph>
    <TTGlyph name="Idotaccent" xMin="5" yMin="-70" xMax="1330" yMax="1775">
      <component glyphName="I" x="0" y="0" flags="0x204"/>
      <component glyphName="dotaccent" x="1020" y="1046" flags="0x4"/>
    </TTGlyph>
    <TTGlyph name="Igrave" xMin="5" yMin="-70" xMax="1345" yMax="1848">
      <component glyphName="I" x="0" y="0" flags="0x204"/>
      <component glyphName="grave" x="982" y="1046" flags="0x4"/>
    </TTGlyph>
    <TTGlyph name="Imacron" xMin="5" yMin="-70" xMax="1429" yMax="1761">
      <component glyphName="I" x="0" y="0" flags="0x204"/>
      <component glyphName="macron" x="1019" y="1046" flags="0x4"/>
    </TTGlyph>
    <TTGlyph name="Iogonek" xMin="5" yMin="-367" xMax="1330" yMax="1550">
      <contour>
        <pt x="660" y="-269" on="1"/>
        <pt x="660" y="-285" on="0"/>
        <pt x="642" y="-319" on="0"/>
        <pt x="611" y="-348" on="0"/>
        <pt x="567" y="-367" on="0"/>
        <pt x="541" y="-367" on="1"/>
        <pt x="511" y="-367" on="0"/>
        <pt x="467" y="-347" on="0"/>
        <pt x="439" y="-316" on="0"/>
        <pt x="425" y="-276" on="0"/>
        <pt x="425" y="-256" on="1"/>
        <pt x="425" y="-229" on="0"/>
        <pt x="441" y="-176" on="0"/>
        <pt x="465" y="-128" on="0"/>
        <pt x="494" y="-86" on="0"/>
        <pt x="507" y="-70" on="1"/>
        <pt x="388" y="-69" on="0"/>
        <pt x="202" y="-13" on="0"/>
        <pt x="73" y="86" on="0"/>
        <pt x="5" y="219" on="0"/>
        <pt x="5" y="296" on="1"/>
        <pt x="5" y="374" on="0"/>
        <pt x="71" y="507" on="0"/>
        <pt x="183" y="606" on="0"/>
        <pt x="332" y="662" on="0"/>
        <pt x="416" y="662" on="1"/>
        <pt x="429" y="662" on="0"/>
        <pt x="456" y="661" on="0"/>
        <pt x="478" y="654" on="0"/>
        <pt x="493" y="637" on="0"/>
        <pt x="493" y="622" on="1"/>
        <pt x="493" y="606" on="0"/>
        <pt x="470" y="585" on="0"/>
        <pt x="455" y="585" on="1"/>
        <pt x="445" y="585" on="0"/>
        <pt x="426" y="586" on="0"/>
        <pt x="416" y="586" on="1"/>
        <pt x="348" y="586" on="0"/>
        <pt x="226" y="542" on="0"/>
        <pt x="134" y="464" on="0"/>
        <pt x="80" y="358" on="0"/>
        <pt x="80" y="296" on="1"/>
        <pt x="80" y="241" on="0"/>
        <pt x="120" y="155" on="0"/>
        <pt x="188" y="90" on="0"/>
        <pt x="277" y="44" on="0"/>
        <pt x="375" y="16" on="0"/>
        <pt x="476" y="3" on="0"/>
        <pt x="522" y="3" on="1"/>
        <pt x="649" y="3" on="0"/>
        <pt x="833" y="75" on="0"/>
        <pt x="960" y="205" on="0"/>
        <pt x="1038" y="386" on="0"/>
        <pt x="1082" y="605" on="0"/>
        <pt x="1097" y="854" on="0"/>
        <pt x="1098" y="987" on="1"/>
        <pt x="1099" y="1051" on="0"/>
        <pt x="1107" y="1174" on="0"/>
        <pt x="1114" y="1224" on="1"/>
        <pt x="1074" y="1203" on="0"/>
        <pt x="978" y="1163" on="0"/>
        <pt x="881" y="1120" on="0"/>
        <pt x="789" y="1071" on="0"/>
        <pt x="718" y="1012" on="0"/>
        <pt x="675" y="939" on="0"/>
        <pt x="675" y="894" on="1"/>
        <pt x="675" y="853" on="0"/>
        <pt x="703" y="792" on="0"/>
        <pt x="745" y="750" on="0"/>
        <pt x="795" y="723" on="0"/>
        <pt x="838" y="708" on="0"/>
        <pt x="869" y="701" on="0"/>
        <pt x="871" y="701" on="1"/>
        <pt x="888" y="696" on="0"/>
        <pt x="900" y="679" on="0"/>
        <pt x="900" y="667" on="1"/>
        <pt x="900" y="650" on="0"/>
        <pt x="880" y="629" on="0"/>
        <pt x="865" y="629" on="1"/>
        <pt x="863" y="629" on="0"/>
        <pt x="850" y="630" on="0"/>
        <pt x="848" y="631" on="1"/>
        <pt x="815" y="638" on="0"/>
        <pt x="729" y="673" on="0"/>
        <pt x="652" y="736" on="0"/>
        <pt x="599" y="832" on="0"/>
        <pt x="599" y="901" on="1"/>
        <pt x="599" y="962" on="0"/>
        <pt x="659" y="1056" on="0"/>
        <pt x="756" y="1130" on="0"/>
        <pt x="875" y="1188" on="0"/>
        <pt x="993" y="1239" on="0"/>
        <pt x="1097" y="1287" on="0"/>
        <pt x="1130" y="1315" on="1"/>
        <pt x="1158" y="1436" on="0"/>
        <pt x="1232" y="1550" on="0"/>
        <pt x="1270" y="1550" on="1"/>
        <pt x="1294" y="1550" on="0"/>
        <pt x="1330" y="1508" on="0"/>
        <pt x="1330" y="1477" on="1"/>
        <pt x="1330" y="1435" on="0"/>
        <pt x="1263" y="1332" on="0"/>
        <pt x="1200" y="1276" on="1"/>
        <pt x="1189" y="1220" on="0"/>
        <pt x="1173" y="1077" on="0"/>
        <pt x="1173" y="986" on="1"/>
        <pt x="1173" y="853" on="0"/>
        <pt x="1157" y="600" on="0"/>
        <pt x="1113" y="374" on="0"/>
        <pt x="1033" y="181" on="0"/>
        <pt x="905" y="36" on="0"/>
        <pt x="721" y="-55" on="0"/>
        <pt x="596" y="-66" on="1"/>
        <pt x="594" y="-76" on="0"/>
        <pt x="582" y="-89" on="1"/>
        <pt x="582" y="-89" on="0"/>
        <pt x="554" y="-123" on="0"/>
        <pt x="521" y="-172" on="0"/>
        <pt x="494" y="-231" on="0"/>
        <pt x="494" y="-256" on="1"/>
        <pt x="494" y="-279" on="0"/>
        <pt x="519" y="-301" on="0"/>
        <pt x="539" y="-301" on="1"/>
        <pt x="564" y="-301" on="0"/>
        <pt x="590" y="-270" on="0"/>
        <pt x="597" y="-257" on="1"/>
        <pt x="608" y="-237" on="0"/>
        <pt x="629" y="-237" on="1"/>
        <pt x="643" y="-237" on="0"/>
        <pt x="660" y="-256" on="0"/>
      </contour>
    </TTGlyph>
    <TTGlyph name="Itilde" xMin="5" yMin="-70" xMax="1433" yMax="1824">
      <component glyphName="I" x="0" y="0" flags="0x204"/>
      <component glyphName="tilde" x="1018" y="1046" flags="0x4"/>
    </TTGlyph>
    <TTGlyph name="J" xMin="100" yMin="-701" xMax="1187" yMax="1603">
      <contour>
        <pt x="1016" y="1323" on="1"/>
        <pt x="987" y="1239" on="0"/>
        <pt x="947" y="1022" on="0"/>
        <pt x="947" y="892" on="1"/>
        <pt x="947" y="800" on="0"/>
        <pt x="959" y="612" on="0"/>
        <pt x="963" y="504" on="1"/>
        <pt x="987" y="517" on="0"/>
        <pt x="1005" y="517" on="1"/>
        <pt x="1019" y="517" on="0"/>
        <pt x="1041" y="498" on="0"/>
        <pt x="1041" y="483" on="1"/>
        <pt x="1041" y="461" on="0"/>
        <pt x="1001" y="440" on="0"/>
        <pt x="964" y="424" on="1"/>
        <pt x="964" y="337" on="1"/>
        <pt x="964" y="109" on="0"/>
        <pt x="911" y="-272" on="0"/>
        <pt x="793" y="-547" on="0"/>
        <pt x="600" y="-701" on="0"/>
        <pt x="461" y="-701" on="1"/>
        <pt x="402" y="-701" on="0"/>
        <pt x="288" y="-656" on="0"/>
        <pt x="199" y="-564" on="0"/>
        <pt x="144" y="-427" on="0"/>
        <pt x="144" y="-335" on="1"/>
        <pt x="144" y="-234" on="0"/>
        <pt x="219" y="-51" on="0"/>
        <pt x="342" y="110" on="0"/>
        <pt x="500" y="247" on="0"/>
        <pt x="665" y="359" on="0"/>
        <pt x="825" y="443" on="0"/>
        <pt x="888" y="470" on="1"/>
        <pt x="886" y="573" on="0"/>
        <pt x="872" y="780" on="0"/>
        <pt x="872" y="889" on="1"/>
        <pt x="872" y="991" on="0"/>
        <pt x="897" y="1180" on="0"/>
        <pt x="919" y="1262" on="1"/>
        <pt x="880" y="1240" on="0"/>
        <pt x="787" y="1202" on="0"/>
        <pt x="685" y="1168" on="0"/>
        <pt x="578" y="1136" on="0"/>
        <pt x="526" y="1121" on="1"/>
        <pt x="447" y="1098" on="0"/>
        <pt x="318" y="1043" on="0"/>
        <pt x="226" y="971" on="0"/>
        <pt x="175" y="879" on="0"/>
        <pt x="175" y="819" on="1"/>
        <pt x="175" y="749" on="0"/>
        <pt x="229" y="651" on="0"/>
        <pt x="316" y="590" on="0"/>
        <pt x="425" y="563" on="0"/>
        <pt x="479" y="563" on="1"/>
        <pt x="495" y="563" on="0"/>
        <pt x="516" y="541" on="0"/>
        <pt x="516" y="525" on="1"/>
        <pt x="516" y="509" on="0"/>
        <pt x="493" y="488" on="0"/>
        <pt x="479" y="488" on="1"/>
        <pt x="411" y="488" on="0"/>
        <pt x="276" y="527" on="0"/>
        <pt x="168" y="608" on="0"/>
        <pt x="100" y="732" on="0"/>
        <pt x="100" y="816" on="1"/>
        <pt x="100" y="889" on="0"/>
        <pt x="159" y="1004" on="0"/>
        <pt x="265" y="1094" on="0"/>
        <pt x="415" y="1162" on="0"/>
        <pt x="506" y="1188" on="1"/>
        <pt x="572" y="1207" on="0"/>
        <pt x="702" y="1249" on="0"/>
        <pt x="819" y="1294" on="0"/>
        <pt x="917" y="1343" on="0"/>
        <pt x="952" y="1370" on="1"/>
        <pt x="992" y="1482" on="0"/>
        <pt x="1084" y="1603" on="0"/>
        <pt x="1126" y="1603" on="1"/>
        <pt x="1135" y="1603" on="0"/>
        <pt x="1156" y="1596" on="0"/>
        <pt x="1175" y="1581" on="0"/>
        <pt x="1187" y="1555" on="0"/>
        <pt x="1187" y="1536" on="1"/>
        <pt x="1187" y="1492" on="0"/>
        <pt x="1095" y="1380" on="0"/>
      </contour>
      <contour>
        <pt x="889" y="391" on="1"/>
        <pt x="831" y="366" on="0"/>
        <pt x="687" y="288" on="0"/>
        <pt x="538" y="184" on="0"/>
        <pt x="397" y="58" on="0"/>
        <pt x="286" y="-87" on="0"/>
        <pt x="219" y="-248" on="0"/>
        <pt x="219" y="-334" on="1"/>
        <pt x="219" y="-407" on="0"/>
        <pt x="261" y="-517" on="0"/>
        <pt x="332" y="-591" on="0"/>
        <pt x="423" y="-628" on="0"/>
        <pt x="471" y="-628" on="1"/>
        <pt x="554" y="-628" on="0"/>
        <pt x="680" y="-551" on="0"/>
        <pt x="773" y="-414" on="0"/>
        <pt x="835" y="-225" on="0"/>
        <pt x="873" y="2" on="0"/>
        <pt x="889" y="257" on="0"/>
      </contour>
    </TTGlyph>
    <TTGlyph name="Jcircumflex" xMin="100" yMin="-701" xMax="1266" yMax="1905">
      <component glyphName="J" x="0" y="0" flags="0x204"/>
      <component glyphName="circumflex" x="873" y="1103" flags="0x4"/>
    </TTGlyph>
    <TTGlyph name="K" xMin="0" yMin="-43" xMax="2323" yMax="1509">
      <contour>
        <pt x="1047" y="1274" on="1"/>
        <pt x="1032" y="1253" on="0"/>
        <pt x="1005" y="1198" on="0"/>
        <pt x="983" y="1126" on="0"/>
        <pt x="969" y="1033" on="0"/>
        <pt x="967" y="975" on="1"/>
        <pt x="965" y="921" on="0"/>
        <pt x="962" y="813" on="0"/>
        <pt x="959" y="759" on="1"/>
        <pt x="964" y="760" on="0"/>
        <pt x="975" y="760" on="1"/>
        <pt x="1026" y="760" on="0"/>
        <pt x="1154" y="729" on="0"/>
        <pt x="1222" y="698" on="1"/>
        <pt x="1314" y="722" on="0"/>
        <pt x="1455" y="800" on="0"/>
        <pt x="1564" y="897" on="0"/>
        <pt x="1649" y="1008" on="0"/>
        <pt x="1721" y="1120" on="0"/>
        <pt x="1785" y="1229" on="0"/>
        <pt x="1820" y="1275" on="1"/>
        <pt x="1856" y="1323" on="0"/>
        <pt x="1949" y="1409" on="0"/>
        <pt x="2048" y="1472" on="0"/>
        <pt x="2148" y="1509" on="0"/>
        <pt x="2192" y="1509" on="1"/>
        <pt x="2207" y="1509" on="0"/>
        <pt x="2232" y="1490" on="0"/>
        <pt x="2232" y="1473" on="1"/>
        <pt x="2232" y="1457" on="0"/>
        <pt x="2211" y="1435" on="0"/>
        <pt x="2195" y="1434" on="1"/>
        <pt x="2165" y="1433" on="0"/>
        <pt x="2084" y="1403" on="0"/>
        <pt x="1998" y="1349" on="0"/>
        <pt x="1914" y="1275" on="0"/>
        <pt x="1880" y="1229" on="1"/>
        <pt x="1841" y="1176" on="0"/>
        <pt x="1774" y="1066" on="0"/>
        <pt x="1705" y="959" on="0"/>
        <pt x="1627" y="856" on="0"/>
        <pt x="1527" y="763" on="0"/>
        <pt x="1398" y="681" on="0"/>
        <pt x="1313" y="648" on="1"/>
        <pt x="1384" y="603" on="0"/>
        <pt x="1516" y="468" on="0"/>
        <pt x="1593" y="385" on="1"/>
        <pt x="1657" y="316" on="0"/>
        <pt x="1770" y="194" on="0"/>
        <pt x="1877" y="103" on="0"/>
        <pt x="1978" y="51" on="0"/>
        <pt x="2030" y="51" on="1"/>
        <pt x="2094" y="51" on="0"/>
        <pt x="2212" y="118" on="0"/>
        <pt x="2253" y="182" on="1"/>
        <pt x="2264" y="199" on="0"/>
        <pt x="2285" y="199" on="1"/>
        <pt x="2302" y="199" on="0"/>
        <pt x="2323" y="175" on="0"/>
        <pt x="2323" y="161" on="1"/>
        <pt x="2323" y="150" on="0"/>
        <pt x="2317" y="141" on="1"/>
        <pt x="2266" y="60" on="0"/>
        <pt x="2114" y="-25" on="0"/>
        <pt x="2031" y="-25" on="1"/>
        <pt x="1967" y="-25" on="0"/>
        <pt x="1849" y="30" on="0"/>
        <pt x="1731" y="127" on="0"/>
        <pt x="1607" y="258" on="0"/>
        <pt x="1537" y="334" on="1"/>
        <pt x="1491" y="383" on="0"/>
        <pt x="1410" y="469" on="0"/>
        <pt x="1333" y="540" on="0"/>
        <pt x="1255" y="597" on="0"/>
        <pt x="1213" y="618" on="1"/>
        <pt x="1159" y="605" on="0"/>
        <pt x="1059" y="595" on="0"/>
        <pt x="1017" y="595" on="1"/>
        <pt x="997" y="595" on="0"/>
        <pt x="963" y="597" on="0"/>
        <pt x="949" y="600" on="1"/>
        <pt x="941" y="512" on="0"/>
        <pt x="910" y="349" on="0"/>
        <pt x="858" y="206" on="0"/>
        <pt x="779" y="88" on="0"/>
        <pt x="666" y="4" on="0"/>
        <pt x="513" y="-43" on="0"/>
        <pt x="413" y="-43" on="1"/>
        <pt x="356" y="-43" on="0"/>
        <pt x="245" y="-24" on="0"/>
        <pt x="142" y="13" on="0"/>
        <pt x="49" y="66" on="0"/>
        <pt x="12" y="100" on="1"/>
        <pt x="0" y="110" on="0"/>
        <pt x="0" y="128" on="1"/>
        <pt x="0" y="143" on="0"/>
        <pt x="22" y="166" on="0"/>
        <pt x="37" y="166" on="1"/>
        <pt x="53" y="166" on="0"/>
        <pt x="63" y="156" on="1"/>
        <pt x="128" y="97" on="0"/>
        <pt x="312" y="32" on="0"/>
        <pt x="413" y="32" on="1"/>
        <pt x="540" y="32" on="0"/>
        <pt x="709" y="118" on="0"/>
        <pt x="813" y="275" on="0"/>
        <pt x="865" y="494" on="0"/>
        <pt x="876" y="628" on="1"/>
        <pt x="864" y="639" on="0"/>
        <pt x="853" y="664" on="0"/>
        <pt x="853" y="678" on="1"/>
        <pt x="853" y="712" on="0"/>
        <pt x="884" y="734" on="1"/>
        <pt x="887" y="793" on="0"/>
        <pt x="890" y="916" on="0"/>
        <pt x="892" y="981" on="1"/>
        <pt x="894" y="1084" on="0"/>
        <pt x="934" y="1224" on="0"/>
        <pt x="958" y="1272" on="1"/>
        <pt x="908" y="1270" on="0"/>
        <pt x="798" y="1281" on="0"/>
        <pt x="684" y="1295" on="0"/>
        <pt x="570" y="1308" on="0"/>
        <pt x="516" y="1308" on="1"/>
        <pt x="447" y="1308" on="0"/>
        <pt x="325" y="1268" on="0"/>
        <pt x="234" y="1195" on="0"/>
        <pt x="182" y="1093" on="0"/>
        <pt x="182" y="1032" on="1"/>
        <pt x="182" y="979" on="0"/>
        <pt x="227" y="911" on="0"/>
        <pt x="283" y="870" on="0"/>
        <pt x="330" y="854" on="0"/>
        <pt x="333" y="853" on="1"/>
        <pt x="346" y="850" on="0"/>
        <pt x="362" y="829" on="0"/>
        <pt x="362" y="816" on="1"/>
        <pt x="362" y="799" on="0"/>
        <pt x="338" y="779" on="0"/>
        <pt x="324" y="779" on="1"/>
        <pt x="318" y="779" on="0"/>
        <pt x="315" y="780" on="1"/>
        <pt x="287" y="786" on="0"/>
        <pt x="215" y="822" on="0"/>
        <pt x="151" y="883" on="0"/>
        <pt x="107" y="972" on="0"/>
        <pt x="107" y="1032" on="1"/>
        <pt x="107" y="1110" on="0"/>
        <pt x="171" y="1239" on="0"/>
        <pt x="282" y="1332" on="0"/>
        <pt x="431" y="1383" on="0"/>
        <pt x="515" y="1383" on="1"/>
        <pt x="580" y="1383" on="0"/>
        <pt x="714" y="1369" on="0"/>
        <pt x="842" y="1354" on="0"/>
        <pt x="959" y="1343" on="0"/>
        <pt x="1008" y="1347" on="1"/>
        <pt x="1027" y="1371" on="0"/>
        <pt x="1081" y="1417" on="0"/>
        <pt x="1142" y="1452" on="0"/>
        <pt x="1205" y="1474" on="0"/>
        <pt x="1235" y="1474" on="1"/>
        <pt x="1267" y="1474" on="0"/>
        <pt x="1313" y="1435" on="0"/>
        <pt x="1313" y="1405" on="1"/>
        <pt x="1313" y="1381" on="0"/>
        <pt x="1270" y="1337" on="0"/>
        <pt x="1197" y="1301" on="0"/>
        <pt x="1100" y="1277" on="0"/>
      </contour>
      <contour>
        <pt x="1109" y="670" on="1"/>
        <pt x="1100" y="673" on="0"/>
        <pt x="1070" y="680" on="0"/>
        <pt x="1034" y="686" on="0"/>
        <pt x="994" y="690" on="0"/>
        <pt x="975" y="690" on="1"/>
        <pt x="970" y="690" on="0"/>
        <pt x="961" y="689" on="0"/>
        <pt x="956" y="688" on="1"/>
        <pt x="955" y="683" on="0"/>
        <pt x="955" y="672" on="0"/>
        <pt x="954" y="667" on="1"/>
        <pt x="969" y="663" on="0"/>
        <pt x="1008" y="663" on="1"/>
        <pt x="1014" y="663" on="0"/>
        <pt x="1040" y="663" on="0"/>
        <pt x="1071" y="665" on="0"/>
        <pt x="1100" y="667" on="0"/>
      </contour>
      <contour>
        <pt x="1238" y="1413" on="1"/>
        <pt x="1228" y="1413" on="0"/>
        <pt x="1195" y="1403" on="0"/>
        <pt x="1158" y="1385" on="0"/>
        <pt x="1120" y="1363" on="0"/>
        <pt x="1105" y="1351" on="1"/>
        <pt x="1131" y="1353" on="0"/>
        <pt x="1186" y="1373" on="0"/>
        <pt x="1228" y="1395" on="0"/>
        <pt x="1247" y="1413" on="0"/>
      </contour>
    </TTGlyph>
    <TTGlyph name="Kcommaaccent" xMin="0" yMin="-350" xMax="2323" yMax="1509">
      <component glyphName="K" x="0" y="0" flags="0x204"/>
      <component glyphName="commaaccent" x="931" y="0" flags="0x4"/>
    </TTGlyph>
    <TTGlyph name="L" xMin="-60" yMin="-33" xMax="1806" yMax="1475">
      <contour>
        <pt x="1800" y="163" on="1"/>
        <pt x="1799" y="161" on="0"/>
        <pt x="1777" y="131" on="0"/>
        <pt x="1736" y="88" on="0"/>
        <pt x="1675" y="39" on="0"/>
        <pt x="1592" y="-2" on="0"/>
        <pt x="1488" y="-30" on="0"/>
        <pt x="1425" y="-30" on="1"/>
        <pt x="1327" y="-30" on="0"/>
        <pt x="1155" y="19" on="0"/>
        <pt x="996" y="95" on="0"/>
        <pt x="842" y="187" on="0"/>
        <pt x="762" y="231" on="1"/>
        <pt x="713" y="149" on="0"/>
        <pt x="586" y="46" on="0"/>
        <pt x="449" y="-12" on="0"/>
        <pt x="314" y="-33" on="0"/>
        <pt x="257" y="-33" on="1"/>
        <pt x="202" y="-33" on="0"/>
        <pt x="89" y="-10" on="0"/>
        <pt x="-2" y="43" on="0"/>
        <pt x="-60" y="129" on="0"/>
        <pt x="-60" y="193" on="1"/>
        <pt x="-60" y="253" on="0"/>
        <pt x="-5" y="350" on="0"/>
        <pt x="92" y="418" on="0"/>
        <pt x="224" y="455" on="0"/>
        <pt x="300" y="455" on="1"/>
        <pt x="357" y="455" on="0"/>
        <pt x="470" y="435" on="0"/>
        <pt x="578" y="401" on="0"/>
        <pt x="680" y="358" on="0"/>
        <pt x="725" y="336" on="1"/>
        <pt x="731" y="354" on="0"/>
        <pt x="740" y="390" on="0"/>
        <pt x="747" y="433" on="0"/>
        <pt x="750" y="486" on="0"/>
        <pt x="750" y="521" on="1"/>
        <pt x="750" y="554" on="0"/>
        <pt x="747" y="614" on="0"/>
        <pt x="744" y="685" on="0"/>
        <pt x="741" y="774" on="0"/>
        <pt x="741" y="836" on="1"/>
        <pt x="741" y="979" on="0"/>
        <pt x="797" y="1214" on="0"/>
        <pt x="907" y="1382" on="0"/>
        <pt x="1071" y="1475" on="0"/>
        <pt x="1180" y="1475" on="1"/>
        <pt x="1246" y="1475" on="0"/>
        <pt x="1365" y="1433" on="0"/>
        <pt x="1456" y="1355" on="0"/>
        <pt x="1509" y="1247" on="0"/>
        <pt x="1509" y="1181" on="1"/>
        <pt x="1509" y="1145" on="0"/>
        <pt x="1489" y="1067" on="0"/>
        <pt x="1454" y="1002" on="0"/>
        <pt x="1409" y="960" on="0"/>
        <pt x="1384" y="960" on="1"/>
        <pt x="1370" y="960" on="0"/>
        <pt x="1348" y="976" on="0"/>
        <pt x="1348" y="993" on="1"/>
        <pt x="1348" y="1005" on="0"/>
        <pt x="1359" y="1022" on="0"/>
        <pt x="1367" y="1029" on="1"/>
        <pt x="1396" y="1055" on="0"/>
        <pt x="1433" y="1131" on="0"/>
        <pt x="1433" y="1181" on="1"/>
        <pt x="1433" y="1231" on="0"/>
        <pt x="1392" y="1312" on="0"/>
        <pt x="1323" y="1369" on="0"/>
        <pt x="1232" y="1400" on="0"/>
        <pt x="1182" y="1400" on="1"/>
        <pt x="1088" y="1400" on="0"/>
        <pt x="950" y="1318" on="0"/>
        <pt x="860" y="1169" on="0"/>
        <pt x="817" y="958" on="0"/>
        <pt x="817" y="829" on="1"/>
        <pt x="817" y="767" on="0"/>
        <pt x="820" y="673" on="0"/>
        <pt x="823" y="595" on="0"/>
        <pt x="826" y="526" on="0"/>
        <pt x="826" y="490" on="1"/>
        <pt x="826" y="469" on="0"/>
        <pt x="822" y="420" on="0"/>
        <pt x="814" y="369" on="0"/>
        <pt x="801" y="320" on="0"/>
        <pt x="793" y="300" on="1"/>
        <pt x="869" y="260" on="0"/>
        <pt x="1017" y="170" on="0"/>
        <pt x="1170" y="95" on="0"/>
        <pt x="1333" y="46" on="0"/>
        <pt x="1424" y="46" on="1"/>
        <pt x="1504" y="46" on="0"/>
        <pt x="1621" y="94" on="0"/>
        <pt x="1698" y="153" on="0"/>
        <pt x="1736" y="202" on="0"/>
        <pt x="1736" y="203" on="1"/>
        <pt x="1747" y="221" on="0"/>
        <pt x="1768" y="221" on="1"/>
        <pt x="1785" y="221" on="0"/>
        <pt x="1806" y="197" on="0"/>
        <pt x="1806" y="183" on="1"/>
        <pt x="1806" y="172" on="0"/>
      </contour>
      <contour>
        <pt x="696" y="268" on="1"/>
        <pt x="653" y="289" on="0"/>
        <pt x="558" y="330" on="0"/>
        <pt x="458" y="362" on="0"/>
        <pt x="353" y="381" on="0"/>
        <pt x="301" y="381" on="1"/>
        <pt x="242" y="381" on="0"/>
        <pt x="138" y="356" on="0"/>
        <pt x="60" y="308" on="0"/>
        <pt x="15" y="240" on="0"/>
        <pt x="15" y="197" on="1"/>
        <pt x="15" y="157" on="0"/>
        <pt x="55" y="98" on="0"/>
        <pt x="122" y="59" on="0"/>
        <pt x="210" y="40" on="0"/>
        <pt x="258" y="40" on="1"/>
        <pt x="316" y="40" on="0"/>
        <pt x="440" y="59" on="0"/>
        <pt x="556" y="110" on="0"/>
        <pt x="658" y="199" on="0"/>
      </contour>
    </TTGlyph>
    <TTGlyph name="Lacute" xMin="-60" yMin="-33" xMax="1806" yMax="1773">
      <component glyphName="L" x="0" y="0" flags="0x204"/>
      <component glyphName="acute" x="986" y="971" flags="0x4"/>
    </TTGlyph>
    <TTGlyph name="Lcaron" xMin="-60" yMin="-33" xMax="1806" yMax="1475">
      <component glyphName="L" x="0" y="0" flags="0x204"/>
      <component glyphName="quoteright" x="1525" y="0" flags="0x4"/>
    </TTGlyph>
    <TTGlyph name="Lcommaaccent" xMin="-60" yMin="-350" xMax="1806" yMax="1475">
      <component glyphName="L" x="0" y="0" flags="0x204"/>
      <component glyphName="commaaccent" x="673" y="0" flags="0x4"/>
    </TTGlyph>
    <TTGlyph name="Ldot" xMin="-60" yMin="-33" xMax="1806" yMax="1475">
      <component glyphName="L" x="0" y="0" flags="0x204"/>
      <component glyphName="periodcentered" x="1149" y="-99" flags="0x4"/>
    </TTGlyph>
    <TTGlyph name="Lslash" xMin="-60" yMin="-33" xMax="1806" yMax="1475">
      <contour>
        <pt x="1800" y="163" on="1"/>
        <pt x="1799" y="161" on="0"/>
        <pt x="1777" y="131" on="0"/>
        <pt x="1736" y="88" on="0"/>
        <pt x="1675" y="39" on="0"/>
        <pt x="1592" y="-2" on="0"/>
        <pt x="1488" y="-30" on="0"/>
        <pt x="1425" y="-30" on="1"/>
        <pt x="1327" y="-30" on="0"/>
        <pt x="1155" y="19" on="0"/>
        <pt x="996" y="95" on="0"/>
        <pt x="842" y="187" on="0"/>
        <pt x="762" y="231" on="1"/>
        <pt x="713" y="149" on="0"/>
        <pt x="586" y="46" on="0"/>
        <pt x="449" y="-12" on="0"/>
        <pt x="314" y="-33" on="0"/>
        <pt x="257" y="-33" on="1"/>
        <pt x="202" y="-33" on="0"/>
        <pt x="89" y="-10" on="0"/>
        <pt x="-2" y="43" on="0"/>
        <pt x="-60" y="129" on="0"/>
        <pt x="-60" y="193" on="1"/>
        <pt x="-60" y="253" on="0"/>
        <pt x="-5" y="350" on="0"/>
        <pt x="92" y="418" on="0"/>
        <pt x="224" y="455" on="0"/>
        <pt x="300" y="455" on="1"/>
        <pt x="357" y="455" on="0"/>
        <pt x="470" y="435" on="0"/>
        <pt x="578" y="401" on="0"/>
        <pt x="680" y="358" on="0"/>
        <pt x="725" y="336" on="1"/>
        <pt x="731" y="354" on="0"/>
        <pt x="740" y="390" on="0"/>
        <pt x="747" y="433" on="0"/>
        <pt x="750" y="486" on="0"/>
        <pt x="750" y="521" on="1"/>
        <pt x="750" y="546" on="0"/>
        <pt x="749" y="591" on="0"/>
        <pt x="747" y="616" on="1"/>
        <pt x="534" y="541" on="1"/>
        <pt x="531" y="540" on="0"/>
        <pt x="522" y="538" on="0"/>
        <pt x="519" y="538" on="1"/>
        <pt x="504" y="538" on="0"/>
        <pt x="482" y="560" on="0"/>
        <pt x="482" y="576" on="1"/>
        <pt x="482" y="587" on="0"/>
        <pt x="494" y="607" on="0"/>
        <pt x="505" y="611" on="1"/>
        <pt x="743" y="695" on="1"/>
        <pt x="742" y="724" on="0"/>
        <pt x="741" y="792" on="0"/>
        <pt x="741" y="836" on="1"/>
        <pt x="741" y="979" on="0"/>
        <pt x="797" y="1214" on="0"/>
        <pt x="907" y="1382" on="0"/>
        <pt x="1071" y="1475" on="0"/>
        <pt x="1180" y="1475" on="1"/>
        <pt x="1246" y="1475" on="0"/>
        <pt x="1365" y="1433" on="0"/>
        <pt x="1456" y="1355" on="0"/>
        <pt x="1509" y="1247" on="0"/>
        <pt x="1509" y="1181" on="1"/>
        <pt x="1509" y="1145" on="0"/>
        <pt x="1489" y="1067" on="0"/>
        <pt x="1454" y="1002" on="0"/>
        <pt x="1409" y="960" on="0"/>
        <pt x="1384" y="960" on="1"/>
        <pt x="1370" y="960" on="0"/>
        <pt x="1348" y="976" on="0"/>
        <pt x="1348" y="993" on="1"/>
        <pt x="1348" y="1005" on="0"/>
        <pt x="1359" y="1022" on="0"/>
        <pt x="1367" y="1029" on="1"/>
        <pt x="1396" y="1055" on="0"/>
        <pt x="1433" y="1131" on="0"/>
        <pt x="1433" y="1181" on="1"/>
        <pt x="1433" y="1231" on="0"/>
        <pt x="1392" y="1312" on="0"/>
        <pt x="1323" y="1369" on="0"/>
        <pt x="1232" y="1400" on="0"/>
        <pt x="1182" y="1400" on="1"/>
        <pt x="1088" y="1400" on="0"/>
        <pt x="950" y="1318" on="0"/>
        <pt x="860" y="1169" on="0"/>
        <pt x="817" y="958" on="0"/>
        <pt x="817" y="829" on="1"/>
        <pt x="817" y="798" on="0"/>
        <pt x="817" y="745" on="0"/>
        <pt x="818" y="722" on="1"/>
        <pt x="1090" y="818" on="1"/>
        <pt x="1098" y="820" on="0"/>
        <pt x="1103" y="820" on="1"/>
        <pt x="1118" y="820" on="0"/>
        <pt x="1141" y="800" on="0"/>
        <pt x="1141" y="783" on="1"/>
        <pt x="1141" y="772" on="0"/>
        <pt x="1129" y="752" on="0"/>
        <pt x="1118" y="748" on="1"/>
        <pt x="821" y="642" on="1"/>
        <pt x="823" y="600" on="0"/>
        <pt x="826" y="528" on="0"/>
        <pt x="826" y="490" on="1"/>
        <pt x="826" y="469" on="0"/>
        <pt x="822" y="420" on="0"/>
        <pt x="814" y="369" on="0"/>
        <pt x="801" y="320" on="0"/>
        <pt x="793" y="300" on="1"/>
        <pt x="869" y="260" on="0"/>
        <pt x="1017" y="170" on="0"/>
        <pt x="1170" y="95" on="0"/>
        <pt x="1333" y="46" on="0"/>
        <pt x="1424" y="46" on="1"/>
        <pt x="1504" y="46" on="0"/>
        <pt x="1621" y="94" on="0"/>
        <pt x="1698" y="153" on="0"/>
        <pt x="1736" y="202" on="0"/>
        <pt x="1736" y="203" on="1"/>
        <pt x="1747" y="221" on="0"/>
        <pt x="1768" y="221" on="1"/>
        <pt x="1785" y="221" on="0"/>
        <pt x="1806" y="197" on="0"/>
        <pt x="1806" y="183" on="1"/>
        <pt x="1806" y="172" on="0"/>
      </contour>
      <contour>
        <pt x="696" y="268" on="1"/>
        <pt x="653" y="289" on="0"/>
        <pt x="558" y="330" on="0"/>
        <pt x="458" y="362" on="0"/>
        <pt x="353" y="381" on="0"/>
        <pt x="301" y="381" on="1"/>
        <pt x="242" y="381" on="0"/>
        <pt x="138" y="356" on="0"/>
        <pt x="60" y="308" on="0"/>
        <pt x="15" y="240" on="0"/>
        <pt x="15" y="197" on="1"/>
        <pt x="15" y="157" on="0"/>
        <pt x="55" y="98" on="0"/>
        <pt x="122" y="59" on="0"/>
        <pt x="210" y="40" on="0"/>
        <pt x="258" y="40" on="1"/>
        <pt x="316" y="40" on="0"/>
        <pt x="440" y="59" on="0"/>
        <pt x="556" y="110" on="0"/>
        <pt x="658" y="199" on="0"/>
      </contour>
    </TTGlyph>
    <TTGlyph name="M" xMin="30" yMin="-38" xMax="2702" yMax="1531">
      <contour>
        <pt x="2382" y="1288" on="1"/>
        <pt x="2339" y="1225" on="0"/>
        <pt x="2233" y="1049" on="0"/>
        <pt x="2173" y="940" on="1"/>
        <pt x="2122" y="849" on="0"/>
        <pt x="2023" y="644" on="0"/>
        <pt x="1933" y="443" on="0"/>
        <pt x="1857" y="258" on="0"/>
        <pt x="1801" y="117" on="0"/>
        <pt x="1769" y="32" on="0"/>
        <pt x="1769" y="31" on="1"/>
        <pt x="1759" y="6" on="0"/>
        <pt x="1733" y="6" on="1"/>
        <pt x="1720" y="6" on="0"/>
        <pt x="1700" y="23" on="0"/>
        <pt x="1697" y="36" on="1"/>
        <pt x="1697" y="37" on="0"/>
        <pt x="1678" y="120" on="0"/>
        <pt x="1646" y="259" on="0"/>
        <pt x="1605" y="440" on="0"/>
        <pt x="1560" y="637" on="0"/>
        <pt x="1514" y="839" on="0"/>
        <pt x="1494" y="930" on="1"/>
        <pt x="1427" y="741" on="0"/>
        <pt x="1292" y="450" on="0"/>
        <pt x="1150" y="235" on="0"/>
        <pt x="999" y="89" on="0"/>
        <pt x="834" y="0" on="0"/>
        <pt x="653" y="-38" on="0"/>
        <pt x="552" y="-38" on="1"/>
        <pt x="500" y="-38" on="0"/>
        <pt x="382" y="-15" on="0"/>
        <pt x="266" y="33" on="0"/>
        <pt x="160" y="105" on="0"/>
        <pt x="78" y="204" on="0"/>
        <pt x="30" y="329" on="0"/>
        <pt x="30" y="406" on="1"/>
        <pt x="30" y="487" on="0"/>
        <pt x="98" y="622" on="0"/>
        <pt x="214" y="719" on="0"/>
        <pt x="367" y="773" on="0"/>
        <pt x="452" y="773" on="1"/>
        <pt x="514" y="773" on="0"/>
        <pt x="613" y="752" on="0"/>
        <pt x="689" y="720" on="0"/>
        <pt x="743" y="682" on="0"/>
        <pt x="779" y="650" on="0"/>
        <pt x="795" y="627" on="0"/>
        <pt x="796" y="627" on="1"/>
        <pt x="802" y="616" on="0"/>
        <pt x="802" y="606" on="1"/>
        <pt x="802" y="592" on="0"/>
        <pt x="781" y="568" on="0"/>
        <pt x="764" y="568" on="1"/>
        <pt x="744" y="568" on="0"/>
        <pt x="732" y="585" on="1"/>
        <pt x="731" y="586" on="0"/>
        <pt x="701" y="621" on="0"/>
        <pt x="633" y="663" on="0"/>
        <pt x="526" y="697" on="0"/>
        <pt x="449" y="697" on="1"/>
        <pt x="379" y="697" on="0"/>
        <pt x="254" y="654" on="0"/>
        <pt x="161" y="576" on="0"/>
        <pt x="106" y="469" on="0"/>
        <pt x="106" y="405" on="1"/>
        <pt x="106" y="342" on="0"/>
        <pt x="148" y="238" on="0"/>
        <pt x="218" y="156" on="0"/>
        <pt x="310" y="96" on="0"/>
        <pt x="410" y="57" on="0"/>
        <pt x="511" y="38" on="0"/>
        <pt x="556" y="38" on="1"/>
        <pt x="632" y="38" on="0"/>
        <pt x="777" y="61" on="0"/>
        <pt x="918" y="125" on="0"/>
        <pt x="1054" y="237" on="0"/>
        <pt x="1188" y="417" on="0"/>
        <pt x="1319" y="671" on="0"/>
        <pt x="1385" y="844" on="1"/>
        <pt x="1405" y="896" on="0"/>
        <pt x="1443" y="1016" on="0"/>
        <pt x="1463" y="1077" on="1"/>
        <pt x="1446" y="1165" on="0"/>
        <pt x="1431" y="1289" on="0"/>
        <pt x="1431" y="1330" on="1"/>
        <pt x="1431" y="1374" on="0"/>
        <pt x="1445" y="1426" on="0"/>
        <pt x="1467" y="1453" on="0"/>
        <pt x="1493" y="1460" on="0"/>
        <pt x="1505" y="1460" on="1"/>
        <pt x="1515" y="1460" on="0"/>
        <pt x="1540" y="1452" on="0"/>
        <pt x="1561" y="1425" on="0"/>
        <pt x="1575" y="1373" on="0"/>
        <pt x="1575" y="1329" on="1"/>
        <pt x="1575" y="1281" on="0"/>
        <pt x="1557" y="1155" on="0"/>
        <pt x="1539" y="1079" on="1"/>
        <pt x="1552" y="1018" on="0"/>
        <pt x="1586" y="868" on="0"/>
        <pt x="1622" y="707" on="0"/>
        <pt x="1660" y="539" on="0"/>
        <pt x="1696" y="379" on="0"/>
        <pt x="1729" y="233" on="0"/>
        <pt x="1743" y="174" on="1"/>
        <pt x="1770" y="242" on="0"/>
        <pt x="1848" y="435" on="0"/>
        <pt x="1944" y="652" on="0"/>
        <pt x="2051" y="877" on="0"/>
        <pt x="2107" y="977" on="1"/>
        <pt x="2186" y="1119" on="0"/>
        <pt x="2318" y="1322" on="0"/>
        <pt x="2414" y="1454" on="0"/>
        <pt x="2469" y="1517" on="0"/>
        <pt x="2471" y="1520" on="1"/>
        <pt x="2482" y="1531" on="0"/>
        <pt x="2498" y="1531" on="1"/>
        <pt x="2515" y="1531" on="0"/>
        <pt x="2536" y="1508" on="0"/>
        <pt x="2536" y="1493" on="1"/>
        <pt x="2536" y="1486" on="0"/>
        <pt x="2533" y="1479" on="1"/>
        <pt x="2533" y="1478" on="0"/>
        <pt x="2510" y="1421" on="0"/>
        <pt x="2475" y="1322" on="0"/>
        <pt x="2433" y="1189" on="0"/>
        <pt x="2393" y="1036" on="0"/>
        <pt x="2362" y="869" on="0"/>
        <pt x="2355" y="786" on="1"/>
        <pt x="2352" y="748" on="0"/>
        <pt x="2348" y="665" on="0"/>
        <pt x="2348" y="623" on="1"/>
        <pt x="2348" y="557" on="0"/>
        <pt x="2360" y="423" on="0"/>
        <pt x="2388" y="299" on="0"/>
        <pt x="2436" y="190" on="0"/>
        <pt x="2506" y="108" on="0"/>
        <pt x="2603" y="58" on="0"/>
        <pt x="2667" y="56" on="1"/>
        <pt x="2683" y="55" on="0"/>
        <pt x="2702" y="30" on="0"/>
        <pt x="2702" y="16" on="1"/>
        <pt x="2702" y="2" on="0"/>
        <pt x="2680" y="-20" on="0"/>
        <pt x="2665" y="-20" on="1"/>
        <pt x="2649" y="-20" on="0"/>
        <pt x="2633" y="-17" on="1"/>
        <pt x="2561" y="-7" on="0"/>
        <pt x="2451" y="56" on="0"/>
        <pt x="2371" y="149" on="0"/>
        <pt x="2318" y="268" on="0"/>
        <pt x="2286" y="404" on="0"/>
        <pt x="2273" y="551" on="0"/>
        <pt x="2273" y="626" on="1"/>
        <pt x="2273" y="715" on="0"/>
        <pt x="2291" y="893" on="0"/>
        <pt x="2321" y="1062" on="0"/>
        <pt x="2361" y="1220" on="0"/>
      </contour>
    </TTGlyph>
    <TTGlyph name="N" xMin="30" yMin="-22" xMax="2660" yMax="1548">
      <contour>
        <pt x="2660" y="1504" on="1"/>
        <pt x="2658" y="1489" on="0"/>
        <pt x="2636" y="1471" on="0"/>
        <pt x="2622" y="1471" on="1"/>
        <pt x="2620" y="1471" on="0"/>
        <pt x="2610" y="1472" on="0"/>
        <pt x="2592" y="1472" on="1"/>
        <pt x="2573" y="1472" on="0"/>
        <pt x="2514" y="1464" on="0"/>
        <pt x="2443" y="1439" on="0"/>
        <pt x="2366" y="1391" on="0"/>
        <pt x="2292" y="1310" on="0"/>
        <pt x="2226" y="1191" on="0"/>
        <pt x="2203" y="1107" on="1"/>
        <pt x="2191" y="1065" on="0"/>
        <pt x="2160" y="908" on="0"/>
        <pt x="2125" y="712" on="0"/>
        <pt x="2090" y="490" on="0"/>
        <pt x="2059" y="276" on="0"/>
        <pt x="2033" y="83" on="0"/>
        <pt x="2026" y="14" on="1"/>
        <pt x="2024" y="1" on="0"/>
        <pt x="2005" y="-20" on="0"/>
        <pt x="1991" y="-20" on="1"/>
        <pt x="1977" y="-20" on="0"/>
        <pt x="1956" y="-6" on="0"/>
        <pt x="1952" y="8" on="1"/>
        <pt x="1939" y="56" on="0"/>
        <pt x="1883" y="226" on="0"/>
        <pt x="1810" y="439" on="0"/>
        <pt x="1724" y="679" on="0"/>
        <pt x="1639" y="914" on="0"/>
        <pt x="1560" y="1129" on="0"/>
        <pt x="1530" y="1211" on="1"/>
        <pt x="1525" y="1155" on="0"/>
        <pt x="1504" y="1018" on="0"/>
        <pt x="1469" y="861" on="0"/>
        <pt x="1417" y="686" on="0"/>
        <pt x="1381" y="592" on="1"/>
        <pt x="1325" y="448" on="0"/>
        <pt x="1174" y="244" on="0"/>
        <pt x="1008" y="108" on="0"/>
        <pt x="837" y="29" on="0"/>
        <pt x="687" y="-11" on="0"/>
        <pt x="567" y="-22" on="0"/>
        <pt x="535" y="-22" on="1"/>
        <pt x="425" y="-22" on="0"/>
        <pt x="240" y="36" on="0"/>
        <pt x="105" y="143" on="0"/>
        <pt x="30" y="292" on="0"/>
        <pt x="30" y="382" on="1"/>
        <pt x="30" y="463" on="0"/>
        <pt x="103" y="604" on="0"/>
        <pt x="226" y="708" on="0"/>
        <pt x="385" y="768" on="0"/>
        <pt x="471" y="768" on="1"/>
        <pt x="542" y="768" on="0"/>
        <pt x="655" y="740" on="0"/>
        <pt x="742" y="697" on="0"/>
        <pt x="805" y="647" on="0"/>
        <pt x="846" y="602" on="0"/>
        <pt x="867" y="570" on="0"/>
        <pt x="869" y="567" on="1"/>
        <pt x="873" y="559" on="0"/>
        <pt x="873" y="549" on="1"/>
        <pt x="873" y="535" on="0"/>
        <pt x="852" y="511" on="0"/>
        <pt x="835" y="511" on="1"/>
        <pt x="813" y="511" on="0"/>
        <pt x="802" y="531" on="1"/>
        <pt x="801" y="534" on="0"/>
        <pt x="764" y="585" on="0"/>
        <pt x="687" y="645" on="0"/>
        <pt x="565" y="694" on="0"/>
        <pt x="478" y="694" on="1"/>
        <pt x="407" y="694" on="0"/>
        <pt x="272" y="646" on="0"/>
        <pt x="168" y="562" on="0"/>
        <pt x="105" y="447" on="0"/>
        <pt x="105" y="380" on="1"/>
        <pt x="105" y="307" on="0"/>
        <pt x="173" y="186" on="0"/>
        <pt x="290" y="100" on="0"/>
        <pt x="445" y="53" on="0"/>
        <pt x="533" y="53" on="1"/>
        <pt x="567" y="53" on="0"/>
        <pt x="679" y="63" on="0"/>
        <pt x="818" y="99" on="0"/>
        <pt x="972" y="172" on="0"/>
        <pt x="1122" y="298" on="0"/>
        <pt x="1259" y="486" on="0"/>
        <pt x="1311" y="620" on="1"/>
        <pt x="1365" y="758" on="0"/>
        <pt x="1426" y="1007" on="0"/>
        <pt x="1456" y="1207" on="0"/>
        <pt x="1463" y="1348" on="0"/>
        <pt x="1463" y="1378" on="1"/>
        <pt x="1463" y="1398" on="1"/>
        <pt x="1463" y="1414" on="0"/>
        <pt x="1484" y="1437" on="0"/>
        <pt x="1501" y="1437" on="1"/>
        <pt x="1526" y="1437" on="0"/>
        <pt x="1536" y="1412" on="1"/>
        <pt x="1539" y="1405" on="0"/>
        <pt x="1568" y="1325" on="0"/>
        <pt x="1615" y="1198" on="0"/>
        <pt x="1676" y="1032" on="0"/>
        <pt x="1744" y="845" on="0"/>
        <pt x="1816" y="645" on="0"/>
        <pt x="1885" y="451" on="0"/>
        <pt x="1947" y="271" on="0"/>
        <pt x="1972" y="197" on="1"/>
        <pt x="1983" y="277" on="0"/>
        <pt x="2009" y="456" on="0"/>
        <pt x="2038" y="639" on="0"/>
        <pt x="2067" y="815" on="0"/>
        <pt x="2096" y="969" on="0"/>
        <pt x="2120" y="1091" on="0"/>
        <pt x="2130" y="1128" on="1"/>
        <pt x="2152" y="1216" on="0"/>
        <pt x="2234" y="1369" on="0"/>
        <pt x="2351" y="1483" on="0"/>
        <pt x="2502" y="1548" on="0"/>
        <pt x="2594" y="1548" on="1"/>
        <pt x="2629" y="1548" on="0"/>
        <pt x="2660" y="1532" on="0"/>
        <pt x="2660" y="1509" on="1"/>
        <pt x="2660" y="1504" on="1"/>
      </contour>
    </TTGlyph>
    <TTGlyph name="Nacute" xMin="30" yMin="-22" xMax="2660" yMax="1728">
      <component glyphName="N" x="0" y="0" flags="0x204"/>
      <component glyphName="acute" x="1724" y="926" flags="0x4"/>
    </TTGlyph>
    <TTGlyph name="Ncaron" xMin="30" yMin="-22" xMax="2660" yMax="1728">
      <component glyphName="N" x="0" y="0" flags="0x204"/>
      <component glyphName="caron" x="1684" y="926" flags="0x4"/>
    </TTGlyph>
    <TTGlyph name="Ncommaaccent" xMin="30" yMin="-350" xMax="2660" yMax="1548">
      <component glyphName="N" x="0" y="0" flags="0x204"/>
      <component glyphName="commaaccent" x="1223" y="0" flags="0x4"/>
    </TTGlyph>
    <TTGlyph name="Ntilde" xMin="30" yMin="-22" xMax="2660" yMax="1704">
      <component glyphName="N" x="0" y="0" flags="0x204"/>
      <component glyphName="tilde" x="1680" y="926" flags="0x4"/>
    </TTGlyph>
    <TTGlyph name="O" xMin="60" yMin="-39" xMax="1684" yMax="1470">
      <contour>
        <pt x="1500" y="835" on="1"/>
        <pt x="1518" y="845" on="0"/>
        <pt x="1557" y="875" on="0"/>
        <pt x="1593" y="907" on="0"/>
        <pt x="1622" y="936" on="0"/>
        <pt x="1630" y="947" on="1"/>
        <pt x="1636" y="954" on="0"/>
        <pt x="1646" y="954" on="1"/>
        <pt x="1663" y="954" on="0"/>
        <pt x="1684" y="929" on="0"/>
        <pt x="1684" y="915" on="1"/>
        <pt x="1684" y="905" on="0"/>
        <pt x="1680" y="898" on="1"/>
        <pt x="1668" y="882" on="0"/>
        <pt x="1631" y="843" on="0"/>
        <pt x="1582" y="803" on="0"/>
        <pt x="1524" y="762" on="0"/>
        <pt x="1493" y="744" on="1"/>
        <pt x="1476" y="547" on="0"/>
        <pt x="1345" y="254" on="0"/>
        <pt x="1142" y="58" on="0"/>
        <pt x="881" y="-39" on="0"/>
        <pt x="734" y="-39" on="1"/>
        <pt x="654" y="-39" on="0"/>
        <pt x="491" y="-5" on="0"/>
        <pt x="341" y="66" on="0"/>
        <pt x="211" y="175" on="0"/>
        <pt x="115" y="326" on="0"/>
        <pt x="60" y="519" on="0"/>
        <pt x="60" y="639" on="1"/>
        <pt x="60" y="758" on="0"/>
        <pt x="117" y="971" on="0"/>
        <pt x="228" y="1154" on="0"/>
        <pt x="390" y="1301" on="0"/>
        <pt x="496" y="1354" on="1"/>
        <pt x="504" y="1358" on="0"/>
        <pt x="514" y="1358" on="1"/>
        <pt x="528" y="1358" on="0"/>
        <pt x="552" y="1338" on="0"/>
        <pt x="552" y="1321" on="1"/>
        <pt x="552" y="1310" on="0"/>
        <pt x="539" y="1291" on="0"/>
        <pt x="528" y="1286" on="1"/>
        <pt x="522" y="1283" on="0"/>
        <pt x="459" y="1252" on="0"/>
        <pt x="372" y="1188" on="0"/>
        <pt x="273" y="1089" on="0"/>
        <pt x="190" y="947" on="0"/>
        <pt x="135" y="759" on="0"/>
        <pt x="135" y="639" on="1"/>
        <pt x="135" y="529" on="0"/>
        <pt x="182" y="361" on="0"/>
        <pt x="260" y="235" on="0"/>
        <pt x="361" y="147" on="0"/>
        <pt x="468" y="89" on="0"/>
        <pt x="574" y="55" on="0"/>
        <pt x="663" y="39" on="0"/>
        <pt x="725" y="35" on="0"/>
        <pt x="735" y="35" on="1"/>
        <pt x="859" y="35" on="0"/>
        <pt x="1085" y="113" on="0"/>
        <pt x="1265" y="276" on="0"/>
        <pt x="1388" y="528" on="0"/>
        <pt x="1410" y="702" on="1"/>
        <pt x="1345" y="673" on="0"/>
        <pt x="1204" y="640" on="0"/>
        <pt x="1127" y="640" on="1"/>
        <pt x="1021" y="640" on="0"/>
        <pt x="821" y="695" on="0"/>
        <pt x="667" y="806" on="0"/>
        <pt x="573" y="972" on="0"/>
        <pt x="573" y="1083" on="1"/>
        <pt x="573" y="1173" on="0"/>
        <pt x="636" y="1316" on="0"/>
        <pt x="744" y="1417" on="0"/>
        <pt x="886" y="1470" on="0"/>
        <pt x="964" y="1470" on="1"/>
        <pt x="1028" y="1470" on="0"/>
        <pt x="1157" y="1440" on="0"/>
        <pt x="1276" y="1377" on="0"/>
        <pt x="1379" y="1281" on="0"/>
        <pt x="1456" y="1147" on="0"/>
        <pt x="1500" y="976" on="0"/>
        <pt x="1500" y="870" on="1"/>
      </contour>
      <contour>
        <pt x="1422" y="788" on="1"/>
        <pt x="1425" y="827" on="0"/>
        <pt x="1425" y="866" on="1"/>
        <pt x="1425" y="1008" on="0"/>
        <pt x="1342" y="1210" on="0"/>
        <pt x="1209" y="1338" on="0"/>
        <pt x="1043" y="1397" on="0"/>
        <pt x="960" y="1397" on="1"/>
        <pt x="896" y="1397" on="0"/>
        <pt x="783" y="1355" on="0"/>
        <pt x="698" y="1275" on="0"/>
        <pt x="649" y="1158" on="0"/>
        <pt x="649" y="1083" on="1"/>
        <pt x="649" y="1011" on="0"/>
        <pt x="710" y="878" on="0"/>
        <pt x="830" y="775" on="0"/>
        <pt x="1009" y="714" on="0"/>
        <pt x="1128" y="714" on="1"/>
        <pt x="1209" y="714" on="0"/>
        <pt x="1356" y="754" on="0"/>
      </contour>
    </TTGlyph>
    <TTGlyph name="OE" xMin="60" yMin="-54" xMax="2942" yMax="1481">
      <contour>
        <pt x="2940" y="425" on="1"/>
        <pt x="2939" y="421" on="0"/>
        <pt x="2913" y="361" on="0"/>
        <pt x="2852" y="273" on="0"/>
        <pt x="2752" y="167" on="0"/>
        <pt x="2600" y="66" on="0"/>
        <pt x="2392" y="-17" on="0"/>
        <pt x="2255" y="-39" on="1"/>
        <pt x="2163" y="-54" on="0"/>
        <pt x="2062" y="-54" on="1"/>
        <pt x="1947" y="-54" on="0"/>
        <pt x="1719" y="-10" on="0"/>
        <pt x="1528" y="84" on="0"/>
        <pt x="1393" y="229" on="0"/>
        <pt x="1372" y="331" on="1"/>
        <pt x="1322" y="242" on="0"/>
        <pt x="1188" y="105" on="0"/>
        <pt x="1025" y="10" on="0"/>
        <pt x="837" y="-39" on="0"/>
        <pt x="734" y="-39" on="1"/>
        <pt x="654" y="-39" on="0"/>
        <pt x="491" y="-5" on="0"/>
        <pt x="341" y="66" on="0"/>
        <pt x="211" y="175" on="0"/>
        <pt x="115" y="326" on="0"/>
        <pt x="60" y="519" on="0"/>
        <pt x="60" y="639" on="1"/>
        <pt x="60" y="758" on="0"/>
        <pt x="117" y="971" on="0"/>
        <pt x="228" y="1154" on="0"/>
        <pt x="390" y="1301" on="0"/>
        <pt x="496" y="1354" on="1"/>
        <pt x="504" y="1358" on="0"/>
        <pt x="514" y="1358" on="1"/>
        <pt x="528" y="1358" on="0"/>
        <pt x="552" y="1338" on="0"/>
        <pt x="552" y="1321" on="1"/>
        <pt x="552" y="1310" on="0"/>
        <pt x="539" y="1291" on="0"/>
        <pt x="528" y="1286" on="1"/>
        <pt x="522" y="1283" on="0"/>
        <pt x="459" y="1252" on="0"/>
        <pt x="372" y="1188" on="0"/>
        <pt x="273" y="1089" on="0"/>
        <pt x="190" y="947" on="0"/>
        <pt x="135" y="759" on="0"/>
        <pt x="135" y="639" on="1"/>
        <pt x="135" y="529" on="0"/>
        <pt x="182" y="361" on="0"/>
        <pt x="260" y="235" on="0"/>
        <pt x="361" y="147" on="0"/>
        <pt x="468" y="89" on="0"/>
        <pt x="574" y="55" on="0"/>
        <pt x="663" y="39" on="0"/>
        <pt x="725" y="35" on="0"/>
        <pt x="735" y="35" on="1"/>
        <pt x="859" y="35" on="0"/>
        <pt x="1085" y="113" on="0"/>
        <pt x="1265" y="276" on="0"/>
        <pt x="1388" y="528" on="0"/>
        <pt x="1410" y="702" on="1"/>
        <pt x="1345" y="673" on="0"/>
        <pt x="1204" y="640" on="0"/>
        <pt x="1127" y="640" on="1"/>
        <pt x="1021" y="640" on="0"/>
        <pt x="821" y="695" on="0"/>
        <pt x="667" y="806" on="0"/>
        <pt x="573" y="972" on="0"/>
        <pt x="573" y="1083" on="1"/>
        <pt x="573" y="1173" on="0"/>
        <pt x="636" y="1316" on="0"/>
        <pt x="744" y="1417" on="0"/>
        <pt x="886" y="1470" on="0"/>
        <pt x="964" y="1470" on="1"/>
        <pt x="1028" y="1470" on="0"/>
        <pt x="1157" y="1440" on="0"/>
        <pt x="1276" y="1377" on="0"/>
        <pt x="1379" y="1281" on="0"/>
        <pt x="1456" y="1147" on="0"/>
        <pt x="1500" y="976" on="0"/>
        <pt x="1500" y="870" on="1"/>
        <pt x="1500" y="791" on="0"/>
        <pt x="1491" y="719" on="1"/>
        <pt x="1567" y="789" on="0"/>
        <pt x="1687" y="834" on="1"/>
        <pt x="1630" y="887" on="0"/>
        <pt x="1574" y="1015" on="0"/>
        <pt x="1574" y="1084" on="1"/>
        <pt x="1574" y="1170" on="0"/>
        <pt x="1653" y="1316" on="0"/>
        <pt x="1793" y="1422" on="0"/>
        <pt x="1986" y="1481" on="0"/>
        <pt x="2101" y="1481" on="1"/>
        <pt x="2217" y="1481" on="0"/>
        <pt x="2390" y="1437" on="0"/>
        <pt x="2513" y="1371" on="0"/>
        <pt x="2592" y="1293" on="0"/>
        <pt x="2638" y="1225" on="0"/>
        <pt x="2656" y="1178" on="0"/>
        <pt x="2657" y="1175" on="1"/>
        <pt x="2658" y="1171" on="0"/>
        <pt x="2658" y="1164" on="1"/>
        <pt x="2658" y="1150" on="0"/>
        <pt x="2637" y="1127" on="0"/>
        <pt x="2620" y="1127" on="1"/>
        <pt x="2608" y="1127" on="0"/>
        <pt x="2589" y="1142" on="0"/>
        <pt x="2585" y="1155" on="1"/>
        <pt x="2585" y="1157" on="0"/>
        <pt x="2569" y="1196" on="0"/>
        <pt x="2529" y="1252" on="0"/>
        <pt x="2460" y="1315" on="0"/>
        <pt x="2352" y="1370" on="0"/>
        <pt x="2202" y="1406" on="0"/>
        <pt x="2101" y="1406" on="1"/>
        <pt x="1985" y="1406" on="0"/>
        <pt x="1814" y="1348" on="0"/>
        <pt x="1703" y="1255" on="0"/>
        <pt x="1649" y="1141" on="0"/>
        <pt x="1649" y="1086" on="1"/>
        <pt x="1649" y="1021" on="0"/>
        <pt x="1713" y="903" on="0"/>
        <pt x="1773" y="861" on="1"/>
        <pt x="1827" y="875" on="0"/>
        <pt x="1931" y="891" on="0"/>
        <pt x="2023" y="900" on="0"/>
        <pt x="2098" y="903" on="0"/>
        <pt x="2122" y="903" on="1"/>
        <pt x="2166" y="903" on="0"/>
        <pt x="2240" y="890" on="0"/>
        <pt x="2293" y="865" on="0"/>
        <pt x="2323" y="826" on="0"/>
        <pt x="2323" y="801" on="1"/>
        <pt x="2323" y="776" on="0"/>
        <pt x="2293" y="736" on="0"/>
        <pt x="2240" y="708" on="0"/>
        <pt x="2166" y="693" on="0"/>
        <pt x="2122" y="693" on="1"/>
        <pt x="2074" y="693" on="0"/>
        <pt x="1976" y="705" on="0"/>
        <pt x="1883" y="727" on="0"/>
        <pt x="1797" y="760" on="0"/>
        <pt x="1762" y="781" on="1"/>
        <pt x="1603" y="733" on="0"/>
        <pt x="1439" y="552" on="0"/>
        <pt x="1439" y="419" on="1"/>
        <pt x="1439" y="347" on="0"/>
        <pt x="1490" y="232" on="0"/>
        <pt x="1580" y="144" on="0"/>
        <pt x="1701" y="81" on="0"/>
        <pt x="1839" y="41" on="0"/>
        <pt x="1989" y="22" on="0"/>
        <pt x="2063" y="22" on="1"/>
        <pt x="2111" y="22" on="0"/>
        <pt x="2201" y="29" on="0"/>
        <pt x="2243" y="36" on="1"/>
        <pt x="2369" y="56" on="0"/>
        <pt x="2560" y="133" on="0"/>
        <pt x="2699" y="224" on="0"/>
        <pt x="2791" y="319" on="0"/>
        <pt x="2846" y="398" on="0"/>
        <pt x="2869" y="448" on="0"/>
        <pt x="2869" y="449" on="1"/>
        <pt x="2873" y="461" on="0"/>
        <pt x="2892" y="474" on="0"/>
        <pt x="2904" y="474" on="1"/>
        <pt x="2920" y="474" on="0"/>
        <pt x="2942" y="452" on="0"/>
        <pt x="2942" y="437" on="1"/>
        <pt x="2942" y="433" on="0"/>
      </contour>
      <contour>
        <pt x="1422" y="788" on="1"/>
        <pt x="1425" y="827" on="0"/>
        <pt x="1425" y="866" on="1"/>
        <pt x="1425" y="1008" on="0"/>
        <pt x="1342" y="1210" on="0"/>
        <pt x="1209" y="1338" on="0"/>
        <pt x="1043" y="1397" on="0"/>
        <pt x="960" y="1397" on="1"/>
        <pt x="896" y="1397" on="0"/>
        <pt x="783" y="1355" on="0"/>
        <pt x="698" y="1275" on="0"/>
        <pt x="649" y="1158" on="0"/>
        <pt x="649" y="1083" on="1"/>
        <pt x="649" y="1011" on="0"/>
        <pt x="710" y="878" on="0"/>
        <pt x="830" y="775" on="0"/>
        <pt x="1009" y="714" on="0"/>
        <pt x="1128" y="714" on="1"/>
        <pt x="1209" y="714" on="0"/>
        <pt x="1356" y="754" on="0"/>
      </contour>
      <contour>
        <pt x="2247" y="800" on="1"/>
        <pt x="2247" y="808" on="0"/>
        <pt x="2221" y="820" on="0"/>
        <pt x="2180" y="827" on="0"/>
        <pt x="2128" y="830" on="0"/>
        <pt x="2101" y="830" on="1"/>
        <pt x="2042" y="830" on="0"/>
        <pt x="1936" y="823" on="0"/>
        <pt x="1868" y="810" on="1"/>
        <pt x="1920" y="791" on="0"/>
        <pt x="2055" y="768" on="0"/>
        <pt x="2124" y="768" on="1"/>
        <pt x="2187" y="768" on="0"/>
        <pt x="2247" y="788" on="0"/>
      </contour>
    </TTGlyph>
    <TTGlyph name="Oacute" xMin="60" yMin="-39" xMax="1684" yMax="1773">
      <component glyphName="O" x="0" y="0" flags="0x204"/>
      <component glyphName="acute" x="752" y="971" flags="0x4"/>
    </TTGlyph>
    <TTGlyph name="Obreve" xMin="60" yMin="-39" xMax="1684" yMax="1750">
      <component glyphName="O" x="0" y="0" flags="0x204"/>
      <component glyphName="breve" x="708" y="971" flags="0x4"/>
    </TTGlyph>
    <TTGlyph name="Ocircumflex" xMin="60" yMin="-39" xMax="1684" yMax="1773">
      <component glyphName="O" x="0" y="0" flags="0x204"/>
      <component glyphName="circumflex" x="708" y="971" flags="0x4"/>
    </TTGlyph>
    <TTGlyph name="Odieresis" xMin="60" yMin="-39" xMax="1684" yMax="1697">
      <component glyphName="O" x="0" y="0" flags="0x204"/>
      <component glyphName="dieresis" x="710" y="971" flags="0x4"/>
    </TTGlyph>
    <TTGlyph name="Ograve" xMin="60" yMin="-39" xMax="1684" yMax="1773">
      <component glyphName="O" x="0" y="0" flags="0x204"/>
      <component glyphName="grave" x="672" y="971" flags="0x4"/>
    </TTGlyph>
    <TTGlyph name="Ohungarumlaut" xMin="60" yMin="-39" xMax="1684" yMax="1773">
      <component glyphName="O" x="0" y="0" flags="0x204"/>
      <component glyphName="hungarumlaut" x="764" y="971" flags="0x4"/>
    </TTGlyph>
    <TTGlyph name="Omacron" xMin="60" yMin="-39" xMax="1684" yMax="1686">
      <component glyphName="O" x="0" y="0" flags="0x204"/>
      <component glyphName="macron" x="709" y="971" flags="0x4"/>
    </TTGlyph>
    <TTGlyph name="Oslash" xMin="60" yMin="-118" xMax="1684" yMax="1533">
      <contour>
        <pt x="1500" y="835" on="1"/>
        <pt x="1518" y="845" on="0"/>
        <pt x="1557" y="875" on="0"/>
        <pt x="1593" y="907" on="0"/>
        <pt x="1622" y="936" on="0"/>
        <pt x="1630" y="947" on="1"/>
        <pt x="1636" y="954" on="0"/>
        <pt x="1646" y="954" on="1"/>
        <pt x="1663" y="954" on="0"/>
        <pt x="1684" y="929" on="0"/>
        <pt x="1684" y="915" on="1"/>
        <pt x="1684" y="905" on="0"/>
        <pt x="1680" y="898" on="1"/>
        <pt x="1668" y="882" on="0"/>
        <pt x="1631" y="843" on="0"/>
        <pt x="1582" y="803" on="0"/>
        <pt x="1524" y="762" on="0"/>
        <pt x="1493" y="744" on="1"/>
        <pt x="1476" y="547" on="0"/>
        <pt x="1345" y="254" on="0"/>
        <pt x="1142" y="58" on="0"/>
        <pt x="881" y="-39" on="0"/>
        <pt x="734" y="-39" on="1"/>
        <pt x="667" y="-39" on="0"/>
        <pt x="532" y="-16" on="0"/>
        <pt x="468" y="8" on="1"/>
        <pt x="405" y="-99" on="1"/>
        <pt x="394" y="-118" on="0"/>
        <pt x="373" y="-118" on="1"/>
        <pt x="356" y="-118" on="0"/>
        <pt x="335" y="-94" on="0"/>
        <pt x="335" y="-80" on="1"/>
        <pt x="335" y="-69" on="0"/>
        <pt x="340" y="-61" on="1"/>
        <pt x="399" y="39" on="1"/>
        <pt x="327" y="76" on="0"/>
        <pt x="203" y="185" on="0"/>
        <pt x="112" y="334" on="0"/>
        <pt x="60" y="523" on="0"/>
        <pt x="60" y="639" on="1"/>
        <pt x="60" y="758" on="0"/>
        <pt x="117" y="971" on="0"/>
        <pt x="228" y="1154" on="0"/>
        <pt x="390" y="1301" on="0"/>
        <pt x="496" y="1354" on="1"/>
        <pt x="504" y="1358" on="0"/>
        <pt x="514" y="1358" on="1"/>
        <pt x="528" y="1358" on="0"/>
        <pt x="552" y="1338" on="0"/>
        <pt x="552" y="1321" on="1"/>
        <pt x="552" y="1310" on="0"/>
        <pt x="539" y="1291" on="0"/>
        <pt x="528" y="1286" on="1"/>
        <pt x="522" y="1283" on="0"/>
        <pt x="459" y="1252" on="0"/>
        <pt x="372" y="1188" on="0"/>
        <pt x="273" y="1089" on="0"/>
        <pt x="190" y="947" on="0"/>
        <pt x="135" y="759" on="0"/>
        <pt x="135" y="639" on="1"/>
        <pt x="135" y="523" on="0"/>
        <pt x="187" y="349" on="0"/>
        <pt x="272" y="221" on="0"/>
        <pt x="381" y="134" on="0"/>
        <pt x="438" y="106" on="1"/>
        <pt x="796" y="718" on="1"/>
        <pt x="746" y="745" on="0"/>
        <pt x="664" y="818" on="0"/>
        <pt x="606" y="909" on="0"/>
        <pt x="573" y="1019" on="0"/>
        <pt x="573" y="1083" on="1"/>
        <pt x="573" y="1173" on="0"/>
        <pt x="636" y="1316" on="0"/>
        <pt x="744" y="1417" on="0"/>
        <pt x="886" y="1470" on="0"/>
        <pt x="964" y="1470" on="1"/>
        <pt x="1024" y="1470" on="0"/>
        <pt x="1147" y="1443" on="0"/>
        <pt x="1204" y="1415" on="1"/>
        <pt x="1262" y="1514" on="1"/>
        <pt x="1273" y="1533" on="0"/>
        <pt x="1294" y="1533" on="1"/>
        <pt x="1311" y="1533" on="0"/>
        <pt x="1332" y="1508" on="0"/>
        <pt x="1332" y="1494" on="1"/>
        <pt x="1332" y="1486" on="0"/>
        <pt x="1327" y="1476" on="1"/>
        <pt x="1269" y="1376" on="1"/>
        <pt x="1319" y="1341" on="0"/>
        <pt x="1404" y="1245" on="0"/>
        <pt x="1465" y="1119" on="0"/>
        <pt x="1500" y="964" on="0"/>
        <pt x="1500" y="870" on="1"/>
      </contour>
      <contour>
        <pt x="1127" y="640" on="1"/>
        <pt x="1058" y="640" on="0"/>
        <pt x="925" y="663" on="0"/>
        <pt x="865" y="686" on="1"/>
        <pt x="508" y="77" on="1"/>
        <pt x="549" y="62" on="0"/>
        <pt x="624" y="46" on="0"/>
        <pt x="685" y="37" on="0"/>
        <pt x="727" y="35" on="0"/>
        <pt x="735" y="35" on="1"/>
        <pt x="859" y="35" on="0"/>
        <pt x="1085" y="113" on="0"/>
        <pt x="1265" y="276" on="0"/>
        <pt x="1388" y="528" on="0"/>
        <pt x="1410" y="702" on="1"/>
        <pt x="1345" y="673" on="0"/>
        <pt x="1204" y="640" on="0"/>
      </contour>
      <contour>
        <pt x="1422" y="788" on="1"/>
        <pt x="1425" y="827" on="0"/>
        <pt x="1425" y="866" on="1"/>
        <pt x="1425" y="948" on="0"/>
        <pt x="1396" y="1085" on="0"/>
        <pt x="1343" y="1195" on="0"/>
        <pt x="1272" y="1280" on="0"/>
        <pt x="1230" y="1311" on="1"/>
        <pt x="902" y="751" on="1"/>
        <pt x="950" y="733" on="0"/>
        <pt x="1062" y="714" on="0"/>
        <pt x="1128" y="714" on="1"/>
        <pt x="1209" y="714" on="0"/>
        <pt x="1356" y="754" on="0"/>
      </contour>
      <contour>
        <pt x="649" y="1083" on="1"/>
        <pt x="649" y="993" on="0"/>
        <pt x="741" y="834" on="0"/>
        <pt x="833" y="782" on="1"/>
        <pt x="1166" y="1350" on="1"/>
        <pt x="1116" y="1374" on="0"/>
        <pt x="1012" y="1397" on="0"/>
        <pt x="960" y="1397" on="1"/>
        <pt x="896" y="1397" on="0"/>
        <pt x="783" y="1355" on="0"/>
        <pt x="698" y="1275" on="0"/>
        <pt x="649" y="1158" on="0"/>
      </contour>
    </TTGlyph>
    <TTGlyph name="Oslashacute" xMin="60" yMin="-118" xMax="1684" yMax="1768">
      <component glyphName="Oslash" x="0" y="0" flags="0x204"/>
      <component glyphName="acute" x="753" y="966" flags="0x4"/>
    </TTGlyph>
    <TTGlyph name="Otilde" xMin="60" yMin="-39" xMax="1684" yMax="1749">
      <component glyphName="O" x="0" y="0" flags="0x204"/>
      <component glyphName="tilde" x="708" y="971" flags="0x4"/>
    </TTGlyph>
    <TTGlyph name="P" xMin="100" yMin="-53" xMax="1883" yMax="1514">
      <contour>
        <pt x="1883" y="987" on="1"/>
        <pt x="1883" y="866" on="0"/>
        <pt x="1791" y="675" on="0"/>
        <pt x="1623" y="542" on="0"/>
        <pt x="1389" y="471" on="0"/>
        <pt x="1248" y="471" on="1"/>
        <pt x="1231" y="471" on="0"/>
        <pt x="1206" y="490" on="0"/>
        <pt x="1206" y="509" on="1"/>
        <pt x="1206" y="524" on="0"/>
        <pt x="1228" y="546" on="0"/>
        <pt x="1244" y="546" on="1"/>
        <pt x="1370" y="546" on="0"/>
        <pt x="1578" y="604" on="0"/>
        <pt x="1726" y="717" on="0"/>
        <pt x="1808" y="881" on="0"/>
        <pt x="1808" y="987" on="1"/>
        <pt x="1808" y="1095" on="0"/>
        <pt x="1713" y="1263" on="0"/>
        <pt x="1542" y="1379" on="0"/>
        <pt x="1305" y="1439" on="0"/>
        <pt x="1163" y="1439" on="1"/>
        <pt x="1029" y="1439" on="0"/>
        <pt x="778" y="1395" on="0"/>
        <pt x="558" y="1315" on="0"/>
        <pt x="377" y="1203" on="0"/>
        <pt x="248" y="1069" on="0"/>
        <pt x="176" y="916" on="0"/>
        <pt x="176" y="834" on="1"/>
        <pt x="176" y="762" on="0"/>
        <pt x="226" y="654" on="0"/>
        <pt x="309" y="581" on="0"/>
        <pt x="417" y="545" on="0"/>
        <pt x="476" y="545" on="1"/>
        <pt x="546" y="545" on="0"/>
        <pt x="655" y="575" on="0"/>
        <pt x="730" y="611" on="0"/>
        <pt x="770" y="642" on="0"/>
        <pt x="772" y="644" on="1"/>
        <pt x="783" y="655" on="0"/>
        <pt x="798" y="655" on="1"/>
        <pt x="813" y="655" on="0"/>
        <pt x="836" y="632" on="0"/>
        <pt x="836" y="617" on="1"/>
        <pt x="836" y="600" on="0"/>
        <pt x="824" y="590" on="1"/>
        <pt x="822" y="588" on="0"/>
        <pt x="775" y="550" on="0"/>
        <pt x="686" y="505" on="0"/>
        <pt x="558" y="469" on="0"/>
        <pt x="476" y="469" on="1"/>
        <pt x="401" y="469" on="0"/>
        <pt x="264" y="519" on="0"/>
        <pt x="161" y="614" on="0"/>
        <pt x="100" y="749" on="0"/>
        <pt x="100" y="834" on="1"/>
        <pt x="100" y="927" on="0"/>
        <pt x="177" y="1100" on="0"/>
        <pt x="316" y="1251" on="0"/>
        <pt x="510" y="1376" on="0"/>
        <pt x="746" y="1465" on="0"/>
        <pt x="1016" y="1514" on="0"/>
        <pt x="1161" y="1514" on="1"/>
        <pt x="1320" y="1514" on="0"/>
        <pt x="1586" y="1442" on="0"/>
        <pt x="1777" y="1306" on="0"/>
        <pt x="1883" y="1111" on="0"/>
      </contour>
      <contour>
        <pt x="1289" y="1225" on="1"/>
        <pt x="1304" y="1225" on="0"/>
        <pt x="1327" y="1204" on="0"/>
        <pt x="1327" y="1187" on="1"/>
        <pt x="1327" y="1177" on="0"/>
        <pt x="1316" y="1161" on="0"/>
        <pt x="1308" y="1154" on="1"/>
        <pt x="1252" y="1110" on="0"/>
        <pt x="1185" y="1008" on="0"/>
        <pt x="1150" y="891" on="0"/>
        <pt x="1139" y="759" on="0"/>
        <pt x="1139" y="687" on="1"/>
        <pt x="1139" y="561" on="1"/>
        <pt x="1139" y="437" on="0"/>
        <pt x="1095" y="214" on="0"/>
        <pt x="990" y="46" on="0"/>
        <pt x="814" y="-53" on="0"/>
        <pt x="681" y="-53" on="1"/>
        <pt x="621" y="-53" on="0"/>
        <pt x="506" y="-24" on="0"/>
        <pt x="404" y="31" on="0"/>
        <pt x="318" y="111" on="0"/>
        <pt x="287" y="161" on="1"/>
        <pt x="285" y="165" on="0"/>
        <pt x="281" y="176" on="0"/>
        <pt x="281" y="181" on="1"/>
        <pt x="281" y="195" on="0"/>
        <pt x="302" y="218" on="0"/>
        <pt x="319" y="218" on="1"/>
        <pt x="329" y="218" on="0"/>
        <pt x="346" y="207" on="0"/>
        <pt x="352" y="199" on="1"/>
        <pt x="416" y="110" on="0"/>
        <pt x="578" y="21" on="0"/>
        <pt x="681" y="21" on="1"/>
        <pt x="799" y="21" on="0"/>
        <pt x="948" y="108" on="0"/>
        <pt x="1033" y="259" on="0"/>
        <pt x="1064" y="461" on="0"/>
        <pt x="1064" y="575" on="1"/>
        <pt x="1064" y="702" on="1"/>
        <pt x="1064" y="769" on="0"/>
        <pt x="1076" y="912" on="0"/>
        <pt x="1119" y="1049" on="0"/>
        <pt x="1200" y="1172" on="0"/>
        <pt x="1269" y="1219" on="1"/>
        <pt x="1273" y="1221" on="0"/>
        <pt x="1285" y="1225" on="0"/>
      </contour>
    </TTGlyph>
    <TTGlyph name="Q" xMin="100" yMin="-213" xMax="2099" yMax="1491">
      <contour>
        <pt x="1076" y="114" on="1"/>
        <pt x="927" y="48" on="0"/>
        <pt x="646" y="-13" on="0"/>
        <pt x="520" y="-13" on="1"/>
        <pt x="426" y="-13" on="0"/>
        <pt x="291" y="10" on="0"/>
        <pt x="197" y="46" on="0"/>
        <pt x="141" y="92" on="0"/>
        <pt x="110" y="140" on="0"/>
        <pt x="100" y="184" on="0"/>
        <pt x="100" y="201" on="1"/>
        <pt x="100" y="243" on="0"/>
        <pt x="140" y="305" on="0"/>
        <pt x="201" y="350" on="0"/>
        <pt x="274" y="379" on="0"/>
        <pt x="307" y="388" on="1"/>
        <pt x="226" y="471" on="0"/>
        <pt x="144" y="671" on="0"/>
        <pt x="144" y="785" on="1"/>
        <pt x="144" y="884" on="0"/>
        <pt x="201" y="1066" on="0"/>
        <pt x="302" y="1223" on="0"/>
        <pt x="444" y="1351" on="0"/>
        <pt x="613" y="1442" on="0"/>
        <pt x="805" y="1491" on="0"/>
        <pt x="906" y="1491" on="1"/>
        <pt x="1007" y="1491" on="0"/>
        <pt x="1192" y="1443" on="0"/>
        <pt x="1351" y="1356" on="0"/>
        <pt x="1480" y="1235" on="0"/>
        <pt x="1572" y="1086" on="0"/>
        <pt x="1622" y="916" on="0"/>
        <pt x="1622" y="824" on="1"/>
        <pt x="1622" y="736" on="0"/>
        <pt x="1581" y="582" on="0"/>
        <pt x="1510" y="450" on="0"/>
        <pt x="1417" y="339" on="0"/>
        <pt x="1314" y="249" on="0"/>
        <pt x="1205" y="179" on="0"/>
        <pt x="1155" y="154" on="1"/>
        <pt x="1209" y="120" on="0"/>
        <pt x="1312" y="51" on="0"/>
        <pt x="1411" y="-13" on="0"/>
        <pt x="1508" y="-69" on="0"/>
        <pt x="1555" y="-90" on="1"/>
        <pt x="1615" y="-117" on="0"/>
        <pt x="1733" y="-137" on="0"/>
        <pt x="1787" y="-137" on="1"/>
        <pt x="1841" y="-137" on="0"/>
        <pt x="1936" y="-122" on="0"/>
        <pt x="2005" y="-104" on="0"/>
        <pt x="2046" y="-88" on="0"/>
        <pt x="2046" y="-88" on="1"/>
        <pt x="2053" y="-85" on="0"/>
        <pt x="2061" y="-85" on="1"/>
        <pt x="2076" y="-85" on="0"/>
        <pt x="2099" y="-106" on="0"/>
        <pt x="2099" y="-123" on="1"/>
        <pt x="2099" y="-134" on="0"/>
        <pt x="2088" y="-152" on="0"/>
        <pt x="2077" y="-157" on="1"/>
        <pt x="2074" y="-158" on="0"/>
        <pt x="2028" y="-176" on="0"/>
        <pt x="1951" y="-196" on="0"/>
        <pt x="1848" y="-213" on="0"/>
        <pt x="1788" y="-213" on="1"/>
        <pt x="1727" y="-213" on="0"/>
        <pt x="1593" y="-189" on="0"/>
        <pt x="1524" y="-158" on="1"/>
        <pt x="1470" y="-134" on="0"/>
        <pt x="1361" y="-70" on="0"/>
        <pt x="1249" y="2" on="0"/>
        <pt x="1135" y="78" on="0"/>
      </contour>
      <contour>
        <pt x="1084" y="197" on="1"/>
        <pt x="1175" y="240" on="0"/>
        <pt x="1342" y="359" on="0"/>
        <pt x="1470" y="515" on="0"/>
        <pt x="1546" y="709" on="0"/>
        <pt x="1546" y="826" on="1"/>
        <pt x="1546" y="948" on="0"/>
        <pt x="1448" y="1163" on="0"/>
        <pt x="1276" y="1324" on="0"/>
        <pt x="1042" y="1417" on="0"/>
        <pt x="906" y="1417" on="1"/>
        <pt x="814" y="1417" on="0"/>
        <pt x="642" y="1372" on="0"/>
        <pt x="489" y="1291" on="0"/>
        <pt x="362" y="1177" on="0"/>
        <pt x="270" y="1037" on="0"/>
        <pt x="219" y="875" on="0"/>
        <pt x="219" y="788" on="1"/>
        <pt x="219" y="720" on="0"/>
        <pt x="250" y="605" on="0"/>
        <pt x="301" y="509" on="0"/>
        <pt x="367" y="433" on="0"/>
        <pt x="402" y="403" on="1"/>
        <pt x="415" y="404" on="0"/>
        <pt x="442" y="405" on="0"/>
        <pt x="456" y="405" on="1"/>
        <pt x="501" y="405" on="0"/>
        <pt x="607" y="393" on="0"/>
        <pt x="668" y="379" on="1"/>
        <pt x="781" y="353" on="0"/>
        <pt x="990" y="253" on="0"/>
      </contour>
      <contour>
        <pt x="998" y="161" on="1"/>
        <pt x="938" y="200" on="0"/>
        <pt x="821" y="258" on="0"/>
        <pt x="701" y="299" on="0"/>
        <pt x="573" y="324" on="0"/>
        <pt x="502" y="330" on="1"/>
        <pt x="531" y="310" on="0"/>
        <pt x="580" y="291" on="0"/>
        <pt x="587" y="288" on="1"/>
        <pt x="612" y="277" on="0"/>
        <pt x="612" y="254" on="1"/>
        <pt x="612" y="237" on="0"/>
        <pt x="590" y="218" on="0"/>
        <pt x="575" y="218" on="1"/>
        <pt x="564" y="218" on="0"/>
        <pt x="551" y="223" on="1"/>
        <pt x="549" y="223" on="0"/>
        <pt x="521" y="235" on="0"/>
        <pt x="473" y="260" on="0"/>
        <pt x="411" y="299" on="0"/>
        <pt x="376" y="326" on="1"/>
        <pt x="350" y="326" on="0"/>
        <pt x="281" y="311" on="0"/>
        <pt x="219" y="281" on="0"/>
        <pt x="175" y="234" on="0"/>
        <pt x="175" y="201" on="1"/>
        <pt x="175" y="177" on="0"/>
        <pt x="206" y="127" on="0"/>
        <pt x="285" y="86" on="0"/>
        <pt x="419" y="60" on="0"/>
        <pt x="522" y="60" on="1"/>
        <pt x="561" y="60" on="0"/>
        <pt x="664" y="68" on="0"/>
        <pt x="785" y="90" on="0"/>
        <pt x="923" y="129" on="0"/>
      </contour>
    </TTGlyph>
    <TTGlyph name="R" xMin="100" yMin="-58" xMax="2188" yMax="1515">
      <contour>
        <pt x="1289" y="1225" on="1"/>
        <pt x="1304" y="1225" on="0"/>
        <pt x="1327" y="1204" on="0"/>
        <pt x="1327" y="1187" on="1"/>
        <pt x="1327" y="1165" on="0"/>
        <pt x="1308" y="1154" on="1"/>
        <pt x="1305" y="1152" on="0"/>
        <pt x="1258" y="1118" on="0"/>
        <pt x="1202" y="1042" on="0"/>
        <pt x="1150" y="917" on="0"/>
        <pt x="1143" y="825" on="1"/>
        <pt x="1141" y="809" on="0"/>
        <pt x="1140" y="777" on="0"/>
        <pt x="1139" y="761" on="1"/>
        <pt x="1157" y="763" on="0"/>
        <pt x="1196" y="766" on="0"/>
        <pt x="1218" y="766" on="1"/>
        <pt x="1290" y="766" on="0"/>
        <pt x="1424" y="734" on="0"/>
        <pt x="1480" y="704" on="1"/>
        <pt x="1625" y="762" on="0"/>
        <pt x="1779" y="954" on="0"/>
        <pt x="1779" y="1072" on="1"/>
        <pt x="1779" y="1160" on="0"/>
        <pt x="1691" y="1297" on="0"/>
        <pt x="1532" y="1391" on="0"/>
        <pt x="1311" y="1441" on="0"/>
        <pt x="1179" y="1441" on="1"/>
        <pt x="1064" y="1441" on="0"/>
        <pt x="825" y="1406" on="0"/>
        <pt x="602" y="1336" on="0"/>
        <pt x="406" y="1232" on="0"/>
        <pt x="260" y="1097" on="0"/>
        <pt x="176" y="931" on="0"/>
        <pt x="176" y="834" on="1"/>
        <pt x="176" y="762" on="0"/>
        <pt x="226" y="653" on="0"/>
        <pt x="309" y="580" on="0"/>
        <pt x="417" y="543" on="0"/>
        <pt x="476" y="543" on="1"/>
        <pt x="546" y="543" on="0"/>
        <pt x="652" y="571" on="0"/>
        <pt x="724" y="604" on="0"/>
        <pt x="761" y="633" on="0"/>
        <pt x="763" y="635" on="1"/>
        <pt x="770" y="640" on="0"/>
        <pt x="788" y="653" on="0"/>
        <pt x="798" y="653" on="1"/>
        <pt x="813" y="653" on="0"/>
        <pt x="835" y="632" on="0"/>
        <pt x="835" y="616" on="1"/>
        <pt x="835" y="600" on="0"/>
        <pt x="824" y="590" on="1"/>
        <pt x="822" y="588" on="0"/>
        <pt x="775" y="549" on="0"/>
        <pt x="687" y="505" on="0"/>
        <pt x="560" y="469" on="0"/>
        <pt x="478" y="469" on="1"/>
        <pt x="402" y="469" on="0"/>
        <pt x="265" y="519" on="0"/>
        <pt x="161" y="613" on="0"/>
        <pt x="100" y="748" on="0"/>
        <pt x="100" y="834" on="1"/>
        <pt x="100" y="929" on="0"/>
        <pt x="178" y="1104" on="0"/>
        <pt x="320" y="1256" on="0"/>
        <pt x="518" y="1379" on="0"/>
        <pt x="757" y="1467" on="0"/>
        <pt x="1031" y="1515" on="0"/>
        <pt x="1177" y="1515" on="1"/>
        <pt x="1326" y="1515" on="0"/>
        <pt x="1575" y="1456" on="0"/>
        <pt x="1755" y="1345" on="0"/>
        <pt x="1855" y="1184" on="0"/>
        <pt x="1855" y="1082" on="1"/>
        <pt x="1855" y="947" on="0"/>
        <pt x="1700" y="727" on="0"/>
        <pt x="1550" y="654" on="1"/>
        <pt x="1605" y="607" on="0"/>
        <pt x="1668" y="482" on="0"/>
        <pt x="1699" y="354" on="0"/>
        <pt x="1708" y="238" on="0"/>
        <pt x="1710" y="199" on="1"/>
        <pt x="1712" y="142" on="0"/>
        <pt x="1729" y="71" on="0"/>
        <pt x="1760" y="31" on="0"/>
        <pt x="1805" y="16" on="0"/>
        <pt x="1837" y="16" on="1"/>
        <pt x="1882" y="16" on="0"/>
        <pt x="1958" y="59" on="0"/>
        <pt x="2019" y="123" on="0"/>
        <pt x="2066" y="198" on="0"/>
        <pt x="2098" y="263" on="0"/>
        <pt x="2115" y="306" on="0"/>
        <pt x="2115" y="307" on="1"/>
        <pt x="2125" y="332" on="0"/>
        <pt x="2150" y="332" on="1"/>
        <pt x="2167" y="332" on="0"/>
        <pt x="2188" y="309" on="0"/>
        <pt x="2188" y="294" on="1"/>
        <pt x="2188" y="289" on="0"/>
        <pt x="2186" y="281" on="1"/>
        <pt x="2185" y="277" on="0"/>
        <pt x="2164" y="224" on="0"/>
        <pt x="2124" y="149" on="0"/>
        <pt x="2064" y="63" on="0"/>
        <pt x="1985" y="-10" on="0"/>
        <pt x="1886" y="-58" on="0"/>
        <pt x="1826" y="-58" on="1"/>
        <pt x="1773" y="-58" on="0"/>
        <pt x="1702" y="-24" on="0"/>
        <pt x="1657" y="41" on="0"/>
        <pt x="1636" y="134" on="0"/>
        <pt x="1634" y="194" on="1"/>
        <pt x="1633" y="219" on="0"/>
        <pt x="1629" y="288" on="0"/>
        <pt x="1618" y="365" on="0"/>
        <pt x="1598" y="447" on="0"/>
        <pt x="1562" y="525" on="0"/>
        <pt x="1508" y="595" on="0"/>
        <pt x="1469" y="621" on="1"/>
        <pt x="1392" y="595" on="0"/>
        <pt x="1227" y="566" on="0"/>
        <pt x="1139" y="565" on="1"/>
        <pt x="1139" y="535" on="1"/>
        <pt x="1139" y="412" on="0"/>
        <pt x="1090" y="197" on="0"/>
        <pt x="980" y="38" on="0"/>
        <pt x="806" y="-53" on="0"/>
        <pt x="681" y="-53" on="1"/>
        <pt x="619" y="-53" on="0"/>
        <pt x="498" y="-20" on="0"/>
        <pt x="393" y="38" on="0"/>
        <pt x="310" y="117" on="0"/>
        <pt x="286" y="163" on="1"/>
        <pt x="281" y="171" on="0"/>
        <pt x="281" y="181" on="1"/>
        <pt x="281" y="195" on="0"/>
        <pt x="302" y="218" on="0"/>
        <pt x="319" y="218" on="1"/>
        <pt x="341" y="218" on="0"/>
        <pt x="352" y="199" on="1"/>
        <pt x="374" y="160" on="0"/>
        <pt x="444" y="94" on="0"/>
        <pt x="531" y="47" on="0"/>
        <pt x="630" y="21" on="0"/>
        <pt x="681" y="21" on="1"/>
        <pt x="784" y="21" on="0"/>
        <pt x="930" y="94" on="0"/>
        <pt x="1022" y="229" on="0"/>
        <pt x="1064" y="418" on="0"/>
        <pt x="1064" y="535" on="1"/>
        <pt x="1064" y="574" on="1"/>
        <pt x="1031" y="585" on="0"/>
        <pt x="991" y="625" on="0"/>
        <pt x="991" y="654" on="1"/>
        <pt x="991" y="683" on="0"/>
        <pt x="1029" y="727" on="0"/>
        <pt x="1064" y="741" on="1"/>
        <pt x="1064" y="764" on="0"/>
        <pt x="1066" y="809" on="0"/>
        <pt x="1068" y="831" on="1"/>
        <pt x="1074" y="903" on="0"/>
        <pt x="1107" y="1017" on="0"/>
        <pt x="1152" y="1103" on="0"/>
        <pt x="1200" y="1163" on="0"/>
        <pt x="1242" y="1202" on="0"/>
        <pt x="1270" y="1220" on="0"/>
        <pt x="1272" y="1221" on="1"/>
        <pt x="1279" y="1225" on="0"/>
      </contour>
      <contour>
        <pt x="1383" y="667" on="1"/>
        <pt x="1366" y="672" on="0"/>
        <pt x="1334" y="682" on="0"/>
        <pt x="1297" y="689" on="0"/>
        <pt x="1252" y="694" on="0"/>
        <pt x="1223" y="694" on="1"/>
        <pt x="1171" y="694" on="0"/>
        <pt x="1138" y="688" on="1"/>
        <pt x="1138" y="687" on="1"/>
        <pt x="1138" y="639" on="1"/>
        <pt x="1199" y="639" on="0"/>
        <pt x="1328" y="653" on="0"/>
      </contour>
    </TTGlyph>
    <TTGlyph name="Racute" xMin="100" yMin="-58" xMax="2188" yMax="1813">
      <component glyphName="R" x="0" y="0" flags="0x204"/>
      <component glyphName="acute" x="965" y="1011" flags="0x4"/>
    </TTGlyph>
    <TTGlyph name="Rcaron" xMin="100" yMin="-58" xMax="2188" yMax="1813">
      <component glyphName="R" x="0" y="0" flags="0x204"/>
      <component glyphName="caron" x="925" y="1011" flags="0x4"/>
    </TTGlyph>
    <TTGlyph name="Rcommaaccent" xMin="100" yMin="-350" xMax="2188" yMax="1515">
      <component glyphName="R" x="0" y="0" flags="0x204"/>
      <component glyphName="commaaccent" x="1035" y="0" flags="0x4"/>
    </TTGlyph>
    <TTGlyph name="S" xMin="100" yMin="-39" xMax="1821" yMax="1500">
      <contour>
        <pt x="1814" y="1050" on="1"/>
        <pt x="1811" y="1036" on="0"/>
        <pt x="1791" y="1020" on="0"/>
        <pt x="1779" y="1020" on="1"/>
        <pt x="1761" y="1020" on="0"/>
        <pt x="1739" y="1043" on="0"/>
        <pt x="1739" y="1058" on="1"/>
        <pt x="1739" y="1073" on="0"/>
        <pt x="1745" y="1102" on="0"/>
        <pt x="1745" y="1116" on="1"/>
        <pt x="1745" y="1189" on="0"/>
        <pt x="1655" y="1305" on="0"/>
        <pt x="1490" y="1384" on="0"/>
        <pt x="1254" y="1426" on="0"/>
        <pt x="1109" y="1426" on="1"/>
        <pt x="998" y="1426" on="0"/>
        <pt x="773" y="1397" on="0"/>
        <pt x="566" y="1342" on="0"/>
        <pt x="386" y="1259" on="0"/>
        <pt x="253" y="1150" on="0"/>
        <pt x="177" y="1017" on="0"/>
        <pt x="177" y="938" on="1"/>
        <pt x="177" y="877" on="0"/>
        <pt x="230" y="784" on="0"/>
        <pt x="322" y="715" on="0"/>
        <pt x="447" y="666" on="0"/>
        <pt x="593" y="633" on="0"/>
        <pt x="751" y="612" on="0"/>
        <pt x="831" y="605" on="1"/>
        <pt x="985" y="592" on="1"/>
        <pt x="1100" y="582" on="0"/>
        <pt x="1282" y="560" on="0"/>
        <pt x="1351" y="543" on="1"/>
        <pt x="1466" y="514" on="0"/>
        <pt x="1576" y="406" on="0"/>
        <pt x="1576" y="316" on="1"/>
        <pt x="1576" y="229" on="0"/>
        <pt x="1480" y="97" on="0"/>
        <pt x="1314" y="7" on="0"/>
        <pt x="1092" y="-39" on="0"/>
        <pt x="965" y="-39" on="1"/>
        <pt x="827" y="-39" on="0"/>
        <pt x="618" y="-2" on="0"/>
        <pt x="477" y="43" on="0"/>
        <pt x="403" y="81" on="0"/>
        <pt x="400" y="83" on="1"/>
        <pt x="382" y="93" on="0"/>
        <pt x="382" y="115" on="1"/>
        <pt x="382" y="132" on="0"/>
        <pt x="406" y="153" on="0"/>
        <pt x="420" y="153" on="1"/>
        <pt x="431" y="153" on="0"/>
        <pt x="440" y="147" on="1"/>
        <pt x="441" y="147" on="0"/>
        <pt x="508" y="112" on="0"/>
        <pt x="641" y="70" on="0"/>
        <pt x="837" y="36" on="0"/>
        <pt x="967" y="36" on="1"/>
        <pt x="1096" y="36" on="0"/>
        <pt x="1294" y="78" on="0"/>
        <pt x="1429" y="153" on="0"/>
        <pt x="1498" y="254" on="0"/>
        <pt x="1498" y="313" on="1"/>
        <pt x="1498" y="348" on="0"/>
        <pt x="1473" y="399" on="0"/>
        <pt x="1429" y="436" on="0"/>
        <pt x="1368" y="462" on="0"/>
        <pt x="1332" y="471" on="1"/>
        <pt x="1294" y="481" on="0"/>
        <pt x="1207" y="495" on="0"/>
        <pt x="1115" y="505" on="0"/>
        <pt x="1022" y="513" on="0"/>
        <pt x="977" y="517" on="1"/>
        <pt x="823" y="530" on="1"/>
        <pt x="641" y="545" on="0"/>
        <pt x="370" y="608" on="0"/>
        <pt x="190" y="707" on="0"/>
        <pt x="100" y="845" on="0"/>
        <pt x="100" y="937" on="1"/>
        <pt x="100" y="1031" on="0"/>
        <pt x="185" y="1188" on="0"/>
        <pt x="332" y="1314" on="0"/>
        <pt x="529" y="1407" on="0"/>
        <pt x="753" y="1469" on="0"/>
        <pt x="993" y="1500" on="0"/>
        <pt x="1109" y="1500" on="1"/>
        <pt x="1254" y="1500" on="0"/>
        <pt x="1469" y="1465" on="0"/>
        <pt x="1622" y="1410" on="0"/>
        <pt x="1720" y="1340" on="0"/>
        <pt x="1750" y="1306" on="1"/>
        <pt x="1821" y="1223" on="0"/>
        <pt x="1821" y="1117" on="1"/>
        <pt x="1821" y="1082" on="0"/>
      </contour>
    </TTGlyph>
    <TTGlyph name="Sacute" xMin="100" yMin="-39" xMax="1821" yMax="1801">
      <component glyphName="S" x="0" y="0" flags="0x204"/>
      <component glyphName="acute" x="815" y="999" flags="0x4"/>
    </TTGlyph>
    <TTGlyph name="Scaron" xMin="100" yMin="-39" xMax="1821" yMax="1801">
      <component glyphName="S" x="0" y="0" flags="0x204"/>
      <component glyphName="caron" x="775" y="999" flags="0x4"/>
    </TTGlyph>
    <TTGlyph name="Scedilla" xMin="100" yMin="-347" xMax="1821" yMax="1500">
      <contour>
        <pt x="1098" y="-220" on="1"/>
        <pt x="1098" y="-244" on="0"/>
        <pt x="1080" y="-289" on="0"/>
        <pt x="1044" y="-325" on="0"/>
        <pt x="991" y="-347" on="0"/>
        <pt x="957" y="-347" on="1"/>
        <pt x="937" y="-347" on="0"/>
        <pt x="891" y="-338" on="0"/>
        <pt x="853" y="-320" on="0"/>
        <pt x="828" y="-295" on="0"/>
        <pt x="828" y="-279" on="1"/>
        <pt x="828" y="-264" on="0"/>
        <pt x="849" y="-247" on="0"/>
        <pt x="862" y="-247" on="1"/>
        <pt x="870" y="-247" on="0"/>
        <pt x="886" y="-258" on="0"/>
        <pt x="907" y="-271" on="0"/>
        <pt x="936" y="-282" on="0"/>
        <pt x="956" y="-282" on="1"/>
        <pt x="986" y="-282" on="0"/>
        <pt x="1030" y="-251" on="0"/>
        <pt x="1030" y="-219" on="1"/>
        <pt x="1030" y="-201" on="0"/>
        <pt x="1017" y="-177" on="0"/>
        <pt x="998" y="-162" on="0"/>
        <pt x="974" y="-156" on="0"/>
        <pt x="964" y="-156" on="1"/>
        <pt x="947" y="-156" on="0"/>
        <pt x="925" y="-162" on="0"/>
        <pt x="918" y="-162" on="1"/>
        <pt x="905" y="-162" on="0"/>
        <pt x="888" y="-147" on="0"/>
        <pt x="888" y="-133" on="1"/>
        <pt x="888" y="-125" on="0"/>
        <pt x="892" y="-112" on="0"/>
        <pt x="894" y="-106" on="1"/>
        <pt x="919" y="-38" on="1"/>
        <pt x="792" y="-35" on="0"/>
        <pt x="600" y="3" on="0"/>
        <pt x="470" y="45" on="0"/>
        <pt x="403" y="81" on="0"/>
        <pt x="400" y="83" on="1"/>
        <pt x="382" y="93" on="0"/>
        <pt x="382" y="115" on="1"/>
        <pt x="382" y="132" on="0"/>
        <pt x="406" y="153" on="0"/>
        <pt x="420" y="153" on="1"/>
        <pt x="431" y="153" on="0"/>
        <pt x="440" y="147" on="1"/>
        <pt x="441" y="147" on="0"/>
        <pt x="508" y="112" on="0"/>
        <pt x="641" y="70" on="0"/>
        <pt x="837" y="36" on="0"/>
        <pt x="967" y="36" on="1"/>
        <pt x="1096" y="36" on="0"/>
        <pt x="1294" y="78" on="0"/>
        <pt x="1429" y="153" on="0"/>
        <pt x="1498" y="254" on="0"/>
        <pt x="1498" y="313" on="1"/>
        <pt x="1498" y="348" on="0"/>
        <pt x="1473" y="399" on="0"/>
        <pt x="1429" y="436" on="0"/>
        <pt x="1368" y="462" on="0"/>
        <pt x="1332" y="471" on="1"/>
        <pt x="1294" y="481" on="0"/>
        <pt x="1207" y="495" on="0"/>
        <pt x="1115" y="505" on="0"/>
        <pt x="1022" y="513" on="0"/>
        <pt x="977" y="517" on="1"/>
        <pt x="823" y="530" on="1"/>
        <pt x="641" y="545" on="0"/>
        <pt x="370" y="608" on="0"/>
        <pt x="190" y="707" on="0"/>
        <pt x="100" y="845" on="0"/>
        <pt x="100" y="937" on="1"/>
        <pt x="100" y="1031" on="0"/>
        <pt x="185" y="1188" on="0"/>
        <pt x="332" y="1314" on="0"/>
        <pt x="529" y="1407" on="0"/>
        <pt x="753" y="1469" on="0"/>
        <pt x="993" y="1500" on="0"/>
        <pt x="1109" y="1500" on="1"/>
        <pt x="1254" y="1500" on="0"/>
        <pt x="1469" y="1465" on="0"/>
        <pt x="1622" y="1410" on="0"/>
        <pt x="1720" y="1340" on="0"/>
        <pt x="1750" y="1306" on="1"/>
        <pt x="1821" y="1223" on="0"/>
        <pt x="1821" y="1117" on="1"/>
        <pt x="1821" y="1082" on="0"/>
        <pt x="1814" y="1050" on="1"/>
        <pt x="1811" y="1036" on="0"/>
        <pt x="1791" y="1020" on="0"/>
        <pt x="1779" y="1020" on="1"/>
        <pt x="1761" y="1020" on="0"/>
        <pt x="1739" y="1043" on="0"/>
        <pt x="1739" y="1058" on="1"/>
        <pt x="1739" y="1073" on="0"/>
        <pt x="1745" y="1102" on="0"/>
        <pt x="1745" y="1116" on="1"/>
        <pt x="1745" y="1189" on="0"/>
        <pt x="1655" y="1305" on="0"/>
        <pt x="1490" y="1384" on="0"/>
        <pt x="1254" y="1426" on="0"/>
        <pt x="1109" y="1426" on="1"/>
        <pt x="998" y="1426" on="0"/>
        <pt x="773" y="1397" on="0"/>
        <pt x="566" y="1342" on="0"/>
        <pt x="386" y="1259" on="0"/>
        <pt x="253" y="1150" on="0"/>
        <pt x="177" y="1017" on="0"/>
        <pt x="177" y="938" on="1"/>
        <pt x="177" y="877" on="0"/>
        <pt x="230" y="784" on="0"/>
        <pt x="322" y="715" on="0"/>
        <pt x="447" y="666" on="0"/>
        <pt x="593" y="633" on="0"/>
        <pt x="751" y="612" on="0"/>
        <pt x="831" y="605" on="1"/>
        <pt x="985" y="592" on="1"/>
        <pt x="1100" y="582" on="0"/>
        <pt x="1282" y="560" on="0"/>
        <pt x="1351" y="543" on="1"/>
        <pt x="1466" y="514" on="0"/>
        <pt x="1576" y="406" on="0"/>
        <pt x="1576" y="316" on="1"/>
        <pt x="1576" y="232" on="0"/>
        <pt x="1485" y="101" on="0"/>
        <pt x="1326" y="11" on="0"/>
        <pt x="1112" y="-37" on="0"/>
        <pt x="990" y="-39" on="1"/>
        <pt x="988" y="-44" on="0"/>
        <pt x="985" y="-53" on="0"/>
        <pt x="984" y="-55" on="1"/>
        <pt x="970" y="-94" on="1"/>
        <pt x="993" y="-94" on="0"/>
        <pt x="1039" y="-109" on="0"/>
        <pt x="1075" y="-141" on="0"/>
        <pt x="1098" y="-188" on="0"/>
      </contour>
    </TTGlyph>
    <TTGlyph name="Scircumflex" xMin="100" yMin="-39" xMax="1821" yMax="1801">
      <component glyphName="S" x="0" y="0" flags="0x204"/>
      <component glyphName="circumflex" x="771" y="999" flags="0x4"/>
    </TTGlyph>
    <TTGlyph name="T" xMin="40" yMin="-53" xMax="2297" yMax="1512">
      <contour>
        <pt x="1749" y="1392" on="1"/>
        <pt x="1763" y="1392" on="0"/>
        <pt x="1788" y="1371" on="0"/>
        <pt x="1788" y="1354" on="1"/>
        <pt x="1788" y="1333" on="0"/>
        <pt x="1769" y="1322" on="1"/>
        <pt x="1768" y="1321" on="0"/>
        <pt x="1715" y="1285" on="0"/>
        <pt x="1679" y="1247" on="1"/>
        <pt x="1754" y="1238" on="0"/>
        <pt x="1832" y="1238" on="1"/>
        <pt x="1908" y="1238" on="0"/>
        <pt x="2033" y="1259" on="0"/>
        <pt x="2132" y="1296" on="0"/>
        <pt x="2205" y="1346" on="0"/>
        <pt x="2229" y="1376" on="1"/>
        <pt x="2235" y="1383" on="0"/>
        <pt x="2251" y="1392" on="0"/>
        <pt x="2260" y="1392" on="1"/>
        <pt x="2276" y="1392" on="0"/>
        <pt x="2297" y="1368" on="0"/>
        <pt x="2297" y="1354" on="1"/>
        <pt x="2297" y="1340" on="0"/>
        <pt x="2290" y="1332" on="1"/>
        <pt x="2266" y="1300" on="0"/>
        <pt x="2186" y="1239" on="0"/>
        <pt x="2072" y="1191" on="0"/>
        <pt x="1924" y="1162" on="0"/>
        <pt x="1833" y="1162" on="1"/>
        <pt x="1781" y="1162" on="0"/>
        <pt x="1677" y="1171" on="0"/>
        <pt x="1625" y="1179" on="1"/>
        <pt x="1602" y="1146" on="0"/>
        <pt x="1563" y="1064" on="0"/>
        <pt x="1551" y="1015" on="1"/>
        <pt x="1530" y="931" on="0"/>
        <pt x="1525" y="743" on="0"/>
        <pt x="1522" y="548" on="0"/>
        <pt x="1506" y="355" on="0"/>
        <pt x="1476" y="265" on="1"/>
        <pt x="1453" y="197" on="0"/>
        <pt x="1376" y="81" on="0"/>
        <pt x="1265" y="-4" on="0"/>
        <pt x="1122" y="-53" on="0"/>
        <pt x="1033" y="-53" on="1"/>
        <pt x="887" y="-53" on="0"/>
        <pt x="651" y="63" on="0"/>
        <pt x="564" y="188" on="1"/>
        <pt x="561" y="193" on="0"/>
        <pt x="551" y="211" on="0"/>
        <pt x="551" y="220" on="1"/>
        <pt x="551" y="234" on="0"/>
        <pt x="571" y="260" on="0"/>
        <pt x="589" y="260" on="1"/>
        <pt x="600" y="260" on="0"/>
        <pt x="618" y="249" on="0"/>
        <pt x="623" y="241" on="1"/>
        <pt x="696" y="129" on="0"/>
        <pt x="892" y="22" on="0"/>
        <pt x="1032" y="22" on="1"/>
        <pt x="1106" y="22" on="0"/>
        <pt x="1224" y="59" on="0"/>
        <pt x="1315" y="128" on="0"/>
        <pt x="1381" y="228" on="0"/>
        <pt x="1403" y="292" on="1"/>
        <pt x="1427" y="362" on="0"/>
        <pt x="1440" y="545" on="0"/>
        <pt x="1444" y="744" on="0"/>
        <pt x="1455" y="944" on="0"/>
        <pt x="1477" y="1033" on="1"/>
        <pt x="1488" y="1080" on="0"/>
        <pt x="1524" y="1160" on="0"/>
        <pt x="1544" y="1194" on="1"/>
        <pt x="1410" y="1221" on="0"/>
        <pt x="1145" y="1304" on="0"/>
        <pt x="892" y="1381" on="0"/>
        <pt x="657" y="1437" on="0"/>
        <pt x="553" y="1437" on="1"/>
        <pt x="458" y="1437" on="0"/>
        <pt x="297" y="1383" on="0"/>
        <pt x="180" y="1285" on="0"/>
        <pt x="115" y="1147" on="0"/>
        <pt x="115" y="1063" on="1"/>
        <pt x="115" y="1002" on="0"/>
        <pt x="158" y="900" on="0"/>
        <pt x="234" y="825" on="0"/>
        <pt x="338" y="783" on="0"/>
        <pt x="400" y="783" on="1"/>
        <pt x="465" y="783" on="0"/>
        <pt x="567" y="822" on="0"/>
        <pt x="645" y="880" on="0"/>
        <pt x="700" y="948" on="0"/>
        <pt x="735" y="1007" on="0"/>
        <pt x="752" y="1046" on="0"/>
        <pt x="752" y="1046" on="1"/>
        <pt x="756" y="1057" on="0"/>
        <pt x="776" y="1071" on="0"/>
        <pt x="788" y="1071" on="1"/>
        <pt x="805" y="1071" on="0"/>
        <pt x="826" y="1048" on="0"/>
        <pt x="826" y="1033" on="1"/>
        <pt x="826" y="1030" on="0"/>
        <pt x="825" y="1025" on="0"/>
        <pt x="824" y="1022" on="1"/>
        <pt x="823" y="1020" on="0"/>
        <pt x="803" y="971" on="0"/>
        <pt x="761" y="902" on="0"/>
        <pt x="695" y="822" on="0"/>
        <pt x="601" y="753" on="0"/>
        <pt x="478" y="708" on="0"/>
        <pt x="399" y="708" on="1"/>
        <pt x="323" y="708" on="0"/>
        <pt x="192" y="762" on="0"/>
        <pt x="95" y="856" on="0"/>
        <pt x="40" y="986" on="0"/>
        <pt x="40" y="1063" on="1"/>
        <pt x="40" y="1165" on="0"/>
        <pt x="118" y="1330" on="0"/>
        <pt x="256" y="1448" on="0"/>
        <pt x="444" y="1512" on="0"/>
        <pt x="554" y="1512" on="1"/>
        <pt x="634" y="1512" on="0"/>
        <pt x="796" y="1484" on="0"/>
        <pt x="963" y="1438" on="0"/>
        <pt x="1135" y="1382" on="0"/>
        <pt x="1312" y="1325" on="0"/>
        <pt x="1495" y="1275" on="0"/>
        <pt x="1590" y="1259" on="1"/>
        <pt x="1615" y="1290" on="0"/>
        <pt x="1664" y="1338" on="0"/>
        <pt x="1703" y="1369" on="0"/>
        <pt x="1729" y="1386" on="0"/>
        <pt x="1731" y="1387" on="1"/>
        <pt x="1741" y="1392" on="0"/>
      </contour>
    </TTGlyph>
</ttFont>
